%TF.GenerationSoftware,KiCad,Pcbnew,7.0.6*%
%TF.CreationDate,2024-02-09T00:40:26+01:00*%
%TF.ProjectId,openDTU,6f70656e-4454-4552-9e6b-696361645f70,rev?*%
%TF.SameCoordinates,Original*%
%TF.FileFunction,Copper,L1,Top*%
%TF.FilePolarity,Positive*%
%FSLAX46Y46*%
G04 Gerber Fmt 4.6, Leading zero omitted, Abs format (unit mm)*
G04 Created by KiCad (PCBNEW 7.0.6) date 2024-02-09 00:40:26*
%MOMM*%
%LPD*%
G01*
G04 APERTURE LIST*
%TA.AperFunction,ComponentPad*%
%ADD10C,1.524000*%
%TD*%
%TA.AperFunction,ComponentPad*%
%ADD11C,2.000000*%
%TD*%
%TA.AperFunction,ComponentPad*%
%ADD12R,1.700000X1.700000*%
%TD*%
%TA.AperFunction,ComponentPad*%
%ADD13O,1.700000X1.700000*%
%TD*%
%TA.AperFunction,ViaPad*%
%ADD14C,0.800000*%
%TD*%
%TA.AperFunction,Conductor*%
%ADD15C,0.250000*%
%TD*%
G04 APERTURE END LIST*
D10*
%TO.P,U3,1,SDA*%
%TO.N,/SDA*%
X131740800Y-64167600D03*
%TO.P,U3,2,SCL*%
%TO.N,/SCL*%
X134280800Y-64167600D03*
%TO.P,U3,3,GND*%
%TO.N,GND*%
X136820800Y-64167600D03*
%TO.P,U3,4,VCC*%
%TO.N,Net-(SW1-A)*%
X139360800Y-64167600D03*
%TD*%
%TO.P,U1,1,GND*%
%TO.N,GND*%
X168185000Y-100708500D03*
%TO.P,U1,2,VCC*%
%TO.N,+3.3V*%
X168185000Y-98168500D03*
%TO.P,U1,3,CE*%
%TO.N,/CE*%
X170725000Y-100708500D03*
%TO.P,U1,4,CSn*%
%TO.N,/CS*%
X170725000Y-98168500D03*
%TO.P,U1,5,SCK*%
%TO.N,/SCK*%
X173265000Y-100708500D03*
%TO.P,U1,6,MOSI*%
%TO.N,/MOSI*%
X173265000Y-98168500D03*
%TO.P,U1,7,MISO*%
%TO.N,/MISO*%
X175805000Y-100708500D03*
%TO.P,U1,8,IRQ*%
%TO.N,/IRQ*%
X175805000Y-98168500D03*
%TD*%
D11*
%TO.P,U2,1,3.3*%
%TO.N,+3.3V*%
X161400000Y-95999964D03*
%TO.P,U2,2,3.3*%
X158860000Y-95999964D03*
%TO.P,U2,3,RST*%
%TO.N,unconnected-(U2-RST-Pad3)*%
X156320000Y-95999964D03*
%TO.P,U2,4,4*%
%TO.N,/CE*%
X153780000Y-95999964D03*
%TO.P,U2,5,5*%
%TO.N,unconnected-(U2-Pad5)*%
X151240000Y-95999964D03*
%TO.P,U2,6,6*%
%TO.N,unconnected-(U2-Pad6)*%
X148700000Y-95999964D03*
%TO.P,U2,7,7*%
%TO.N,unconnected-(U2-Pad7)*%
X146160000Y-95999964D03*
%TO.P,U2,8,15*%
%TO.N,/SCL*%
X143620000Y-95999964D03*
%TO.P,U2,9,16*%
%TO.N,/IRQ*%
X141080000Y-95999964D03*
%TO.P,U2,10,17*%
%TO.N,unconnected-(U2-17-Pad10)*%
X138540000Y-95999964D03*
%TO.P,U2,11,18*%
%TO.N,unconnected-(U2-18-Pad11)*%
X136000000Y-95999964D03*
%TO.P,U2,12,8*%
%TO.N,unconnected-(U2-8-Pad12)*%
X133460000Y-95999964D03*
%TO.P,U2,13,3*%
%TO.N,unconnected-(U2-3-Pad13)*%
X130920000Y-95999964D03*
%TO.P,U2,14,46*%
%TO.N,unconnected-(U2-46-Pad14)*%
X128380000Y-95999964D03*
%TO.P,U2,15,9*%
%TO.N,unconnected-(U2-9-Pad15)*%
X125840000Y-95999964D03*
%TO.P,U2,16,10*%
%TO.N,/CS*%
X123300000Y-95999964D03*
%TO.P,U2,17,11*%
%TO.N,/MOSI*%
X120760000Y-95999964D03*
%TO.P,U2,18,12*%
%TO.N,/SCK*%
X118220000Y-95999964D03*
%TO.P,U2,19,13*%
%TO.N,/MISO*%
X115680000Y-95999964D03*
%TO.P,U2,20,14*%
%TO.N,/SDA*%
X113140000Y-95999964D03*
%TO.P,U2,21,5V*%
%TO.N,unconnected-(U2-5V-Pad21)*%
X110600000Y-95999964D03*
%TO.P,U2,22,GND*%
%TO.N,GND*%
X108060000Y-95999964D03*
%TO.P,U2,23,GND*%
X108060000Y-70598100D03*
%TO.P,U2,24,GND*%
X110600000Y-70599964D03*
%TO.P,U2,25,19*%
%TO.N,unconnected-(U2-19-Pad25)*%
X113140000Y-70599964D03*
%TO.P,U2,26,20*%
%TO.N,unconnected-(U2-20-Pad26)*%
X115680000Y-70599964D03*
%TO.P,U2,27,21*%
%TO.N,unconnected-(U2-21-Pad27)*%
X118220000Y-70599964D03*
%TO.P,U2,28,47*%
%TO.N,unconnected-(U2-47-Pad28)*%
X120760000Y-70599964D03*
%TO.P,U2,29,48*%
%TO.N,Net-(J1-Pin_10)*%
X123300000Y-70599964D03*
%TO.P,U2,30,45*%
%TO.N,Net-(J1-Pin_9)*%
X125840000Y-70599964D03*
%TO.P,U2,31,0*%
%TO.N,unconnected-(U2-0-Pad31)*%
X128380000Y-70599964D03*
%TO.P,U2,32,35*%
%TO.N,Net-(J1-Pin_8)*%
X130920000Y-70599964D03*
%TO.P,U2,33,36*%
%TO.N,Net-(J1-Pin_7)*%
X133460000Y-70599964D03*
%TO.P,U2,34,37*%
%TO.N,Net-(J1-Pin_6)*%
X136000000Y-70599964D03*
%TO.P,U2,35,38*%
%TO.N,Net-(J1-Pin_5)*%
X138540000Y-70599964D03*
%TO.P,U2,36,39*%
%TO.N,Net-(J1-Pin_4)*%
X141080000Y-70599964D03*
%TO.P,U2,37,40*%
%TO.N,Net-(J1-Pin_3)*%
X143620000Y-70599964D03*
%TO.P,U2,38,41*%
%TO.N,Net-(J1-Pin_2)*%
X146160000Y-70599964D03*
%TO.P,U2,39,42*%
%TO.N,Net-(J1-Pin_1)*%
X148700000Y-70599964D03*
%TO.P,U2,40,2*%
%TO.N,unconnected-(U2-2-Pad40)*%
X151240000Y-70599964D03*
%TO.P,U2,41,1*%
%TO.N,unconnected-(U2-1-Pad41)*%
X153780000Y-70599964D03*
%TO.P,U2,42,RX*%
%TO.N,unconnected-(U2-RX-Pad42)*%
X156320000Y-70599964D03*
%TO.P,U2,43,TX*%
%TO.N,unconnected-(U2-TX-Pad43)*%
X158860000Y-70599964D03*
%TO.P,U2,44,GND*%
%TO.N,GND*%
X161400000Y-70599964D03*
%TD*%
D12*
%TO.P,J1,1,Pin_1*%
%TO.N,Net-(J1-Pin_1)*%
X177700000Y-87000000D03*
D13*
%TO.P,J1,2,Pin_2*%
%TO.N,Net-(J1-Pin_2)*%
X177700000Y-84460000D03*
%TO.P,J1,3,Pin_3*%
%TO.N,Net-(J1-Pin_3)*%
X177700000Y-81920000D03*
%TO.P,J1,4,Pin_4*%
%TO.N,Net-(J1-Pin_4)*%
X177700000Y-79380000D03*
%TO.P,J1,5,Pin_5*%
%TO.N,Net-(J1-Pin_5)*%
X177700000Y-76840000D03*
%TO.P,J1,6,Pin_6*%
%TO.N,Net-(J1-Pin_6)*%
X177700000Y-74300000D03*
%TO.P,J1,7,Pin_7*%
%TO.N,Net-(J1-Pin_7)*%
X177700000Y-71760000D03*
%TO.P,J1,8,Pin_8*%
%TO.N,Net-(J1-Pin_8)*%
X177700000Y-69220000D03*
%TO.P,J1,9,Pin_9*%
%TO.N,Net-(J1-Pin_9)*%
X177700000Y-66680000D03*
%TO.P,J1,10,Pin_10*%
%TO.N,Net-(J1-Pin_10)*%
X177700000Y-64140000D03*
%TD*%
D14*
%TO.N,GND*%
X178200000Y-99500000D03*
X137800000Y-100500000D03*
X173100000Y-73200000D03*
X172200000Y-95600000D03*
X143900000Y-75100000D03*
X165200000Y-100800000D03*
X147300000Y-77800000D03*
X173100000Y-75400000D03*
X166000000Y-96500000D03*
X126300000Y-68100000D03*
X171000000Y-93700000D03*
X144500000Y-98400000D03*
X173700000Y-67700000D03*
X173200000Y-70300000D03*
X168500000Y-95900000D03*
%TD*%
D15*
%TO.N,+3.3V*%
X158860000Y-96000000D02*
X161400000Y-96000000D01*
%TO.N,GND*%
X171900000Y-95900000D02*
X168500000Y-95900000D01*
X168185000Y-100708500D02*
X165291500Y-100708500D01*
X172200000Y-95600000D02*
X171900000Y-95900000D01*
X165291500Y-100708500D02*
X165200000Y-100800000D01*
%TO.N,/CS*%
X167096900Y-97326100D02*
X124626100Y-97326100D01*
X169622100Y-97065600D02*
X167357400Y-97065600D01*
X170725000Y-98168500D02*
X169622100Y-97065600D01*
X167357400Y-97065600D02*
X167096900Y-97326100D01*
X124626100Y-97326100D02*
X123300000Y-96000000D01*
%TO.N,/SCK*%
X172044700Y-99488200D02*
X121708200Y-99488200D01*
X121708200Y-99488200D02*
X118220000Y-96000000D01*
X173265000Y-100708500D02*
X172044700Y-99488200D01*
%TO.N,/MISO*%
X174710100Y-101803400D02*
X121483400Y-101803400D01*
X175805000Y-100708500D02*
X174710100Y-101803400D01*
X121483400Y-101803400D02*
X115680000Y-96000000D01*
%TO.N,/IRQ*%
X172303200Y-94666700D02*
X175805000Y-98168500D01*
X142413300Y-94666700D02*
X172303200Y-94666700D01*
X141080000Y-96000000D02*
X142413300Y-94666700D01*
%TO.N,Net-(J1-Pin_1)*%
X177700000Y-87000000D02*
X152700000Y-87000000D01*
X148700000Y-83000000D02*
X148700000Y-70599964D01*
X152700000Y-87000000D02*
X148700000Y-83000000D01*
%TO.N,Net-(J1-Pin_2)*%
X178875000Y-85635000D02*
X178875000Y-88175000D01*
X146160000Y-82260000D02*
X146160000Y-70599964D01*
X178750000Y-88300000D02*
X152200000Y-88300000D01*
X177700000Y-84460000D02*
X178875000Y-85635000D01*
X152200000Y-88300000D02*
X146160000Y-82260000D01*
X178875000Y-88175000D02*
X178750000Y-88300000D01*
%TO.N,Net-(J1-Pin_3)*%
X151500000Y-89500000D02*
X144900000Y-82900000D01*
X178600000Y-89500000D02*
X151500000Y-89500000D01*
X179600000Y-88500000D02*
X178600000Y-89500000D01*
X179600000Y-83820000D02*
X179600000Y-88500000D01*
X144900000Y-71879964D02*
X143620000Y-70599964D01*
X177700000Y-81920000D02*
X179600000Y-83820000D01*
X144900000Y-82900000D02*
X144900000Y-71879964D01*
%TO.N,Net-(J1-Pin_4)*%
X141200000Y-80200000D02*
X141200000Y-78500000D01*
X180200000Y-89100000D02*
X179200000Y-90100000D01*
X141200000Y-78500000D02*
X141080000Y-78380000D01*
X180200000Y-81880000D02*
X180200000Y-89100000D01*
X151100000Y-90100000D02*
X141200000Y-80200000D01*
X141080000Y-78380000D02*
X141080000Y-70599964D01*
X177700000Y-79380000D02*
X180200000Y-81880000D01*
X179200000Y-90100000D02*
X151100000Y-90100000D01*
%TO.N,Net-(J1-Pin_5)*%
X138540000Y-70599964D02*
X139865000Y-69274964D01*
X164474964Y-69274964D02*
X172040000Y-76840000D01*
X172040000Y-76840000D02*
X177700000Y-76840000D01*
X139865000Y-69274964D02*
X164474964Y-69274964D01*
%TO.N,Net-(J1-Pin_6)*%
X171200000Y-74300000D02*
X177700000Y-74300000D01*
X165724964Y-68824964D02*
X171200000Y-74300000D01*
X139174964Y-69274964D02*
X139624964Y-68824964D01*
X136000000Y-70599964D02*
X137325000Y-69274964D01*
X139624964Y-68824964D02*
X165724964Y-68824964D01*
X137325000Y-69274964D02*
X139174964Y-69274964D01*
%TO.N,Net-(J1-Pin_7)*%
X169760000Y-71760000D02*
X177700000Y-71760000D01*
X166300000Y-68300000D02*
X169760000Y-71760000D01*
X135759964Y-68300000D02*
X166300000Y-68300000D01*
X133460000Y-70599964D02*
X135759964Y-68300000D01*
%TO.N,Net-(J1-Pin_8)*%
X166900000Y-67800000D02*
X133719964Y-67800000D01*
X133719964Y-67800000D02*
X130920000Y-70599964D01*
X177700000Y-69220000D02*
X168320000Y-69220000D01*
X168320000Y-69220000D02*
X166900000Y-67800000D01*
%TO.N,Net-(J1-Pin_9)*%
X129089964Y-67350000D02*
X171150000Y-67350000D01*
X171150000Y-67350000D02*
X171820000Y-66680000D01*
X171820000Y-66680000D02*
X177700000Y-66680000D01*
X125840000Y-70599964D02*
X129089964Y-67350000D01*
%TO.N,Net-(J1-Pin_10)*%
X125600000Y-66900000D02*
X123300000Y-69200000D01*
X175160000Y-64140000D02*
X173200000Y-66100000D01*
X123300000Y-69200000D02*
X123300000Y-70599964D01*
X170700000Y-66900000D02*
X125600000Y-66900000D01*
X177700000Y-64140000D02*
X175160000Y-64140000D01*
X171500000Y-66100000D02*
X170700000Y-66900000D01*
X173200000Y-66100000D02*
X171500000Y-66100000D01*
%TO.N,/SDA*%
X106735000Y-70049267D02*
X112616667Y-64167600D01*
X112616667Y-64167600D02*
X131740800Y-64167600D01*
X113140000Y-95999964D02*
X106735000Y-89594964D01*
X106735000Y-89594964D02*
X106735000Y-70049267D01*
%TD*%
%TA.AperFunction,Conductor*%
%TO.N,GND*%
G36*
X109283433Y-71467981D02*
G01*
X109308220Y-71465411D01*
X109333806Y-71465411D01*
X109376565Y-71469845D01*
X110116923Y-70729487D01*
X110140507Y-70809808D01*
X110218239Y-70930762D01*
X110326900Y-71024916D01*
X110457685Y-71084644D01*
X110467466Y-71086050D01*
X109729942Y-71823573D01*
X109776768Y-71860019D01*
X109776770Y-71860020D01*
X109995385Y-71978328D01*
X109995396Y-71978333D01*
X110230506Y-72059047D01*
X110475707Y-72099964D01*
X110724293Y-72099964D01*
X110969493Y-72059047D01*
X111204603Y-71978333D01*
X111204614Y-71978328D01*
X111423228Y-71860021D01*
X111423231Y-71860019D01*
X111470056Y-71823573D01*
X110732533Y-71086050D01*
X110742315Y-71084644D01*
X110873100Y-71024916D01*
X110981761Y-70930762D01*
X111059493Y-70809808D01*
X111083076Y-70729488D01*
X111823434Y-71469846D01*
X111834861Y-71468661D01*
X111903573Y-71481324D01*
X111948092Y-71521158D01*
X111948683Y-71520699D01*
X111951218Y-71523956D01*
X111951456Y-71524169D01*
X111951831Y-71524744D01*
X111951836Y-71524749D01*
X112120256Y-71707702D01*
X112316491Y-71860438D01*
X112316493Y-71860439D01*
X112534332Y-71978328D01*
X112535190Y-71978792D01*
X112744138Y-72050524D01*
X112768964Y-72059047D01*
X112770386Y-72059535D01*
X113015665Y-72100464D01*
X113264335Y-72100464D01*
X113509614Y-72059535D01*
X113744810Y-71978792D01*
X113963509Y-71860438D01*
X114159744Y-71707702D01*
X114318771Y-71534952D01*
X114378657Y-71498963D01*
X114448495Y-71501063D01*
X114501228Y-71534952D01*
X114660256Y-71707702D01*
X114856491Y-71860438D01*
X114856493Y-71860439D01*
X115074332Y-71978328D01*
X115075190Y-71978792D01*
X115284138Y-72050524D01*
X115308964Y-72059047D01*
X115310386Y-72059535D01*
X115555665Y-72100464D01*
X115804335Y-72100464D01*
X116049614Y-72059535D01*
X116284810Y-71978792D01*
X116503509Y-71860438D01*
X116699744Y-71707702D01*
X116858771Y-71534952D01*
X116918657Y-71498963D01*
X116988495Y-71501063D01*
X117041228Y-71534952D01*
X117200256Y-71707702D01*
X117396491Y-71860438D01*
X117396493Y-71860439D01*
X117614332Y-71978328D01*
X117615190Y-71978792D01*
X117824138Y-72050524D01*
X117848964Y-72059047D01*
X117850386Y-72059535D01*
X118095665Y-72100464D01*
X118344335Y-72100464D01*
X118589614Y-72059535D01*
X118824810Y-71978792D01*
X119043509Y-71860438D01*
X119239744Y-71707702D01*
X119398771Y-71534952D01*
X119458657Y-71498963D01*
X119528495Y-71501063D01*
X119581228Y-71534952D01*
X119740256Y-71707702D01*
X119936491Y-71860438D01*
X119936493Y-71860439D01*
X120154332Y-71978328D01*
X120155190Y-71978792D01*
X120364138Y-72050524D01*
X120388964Y-72059047D01*
X120390386Y-72059535D01*
X120635665Y-72100464D01*
X120884335Y-72100464D01*
X121129614Y-72059535D01*
X121364810Y-71978792D01*
X121583509Y-71860438D01*
X121779744Y-71707702D01*
X121938771Y-71534952D01*
X121998657Y-71498963D01*
X122068495Y-71501063D01*
X122121228Y-71534952D01*
X122280256Y-71707702D01*
X122476491Y-71860438D01*
X122476493Y-71860439D01*
X122694332Y-71978328D01*
X122695190Y-71978792D01*
X122904138Y-72050524D01*
X122928964Y-72059047D01*
X122930386Y-72059535D01*
X123175665Y-72100464D01*
X123424335Y-72100464D01*
X123669614Y-72059535D01*
X123904810Y-71978792D01*
X124123509Y-71860438D01*
X124319744Y-71707702D01*
X124478771Y-71534952D01*
X124538657Y-71498963D01*
X124608495Y-71501063D01*
X124661228Y-71534952D01*
X124820256Y-71707702D01*
X125016491Y-71860438D01*
X125016493Y-71860439D01*
X125234332Y-71978328D01*
X125235190Y-71978792D01*
X125444138Y-72050524D01*
X125468964Y-72059047D01*
X125470386Y-72059535D01*
X125715665Y-72100464D01*
X125964335Y-72100464D01*
X126209614Y-72059535D01*
X126444810Y-71978792D01*
X126663509Y-71860438D01*
X126859744Y-71707702D01*
X127018771Y-71534952D01*
X127078657Y-71498963D01*
X127148495Y-71501063D01*
X127201228Y-71534952D01*
X127360256Y-71707702D01*
X127556491Y-71860438D01*
X127556493Y-71860439D01*
X127774332Y-71978328D01*
X127775190Y-71978792D01*
X127984138Y-72050524D01*
X128008964Y-72059047D01*
X128010386Y-72059535D01*
X128255665Y-72100464D01*
X128504335Y-72100464D01*
X128749614Y-72059535D01*
X128984810Y-71978792D01*
X129203509Y-71860438D01*
X129399744Y-71707702D01*
X129558771Y-71534952D01*
X129618657Y-71498963D01*
X129688495Y-71501063D01*
X129741228Y-71534952D01*
X129900256Y-71707702D01*
X130096491Y-71860438D01*
X130096493Y-71860439D01*
X130314332Y-71978328D01*
X130315190Y-71978792D01*
X130524138Y-72050524D01*
X130548964Y-72059047D01*
X130550386Y-72059535D01*
X130795665Y-72100464D01*
X131044335Y-72100464D01*
X131289614Y-72059535D01*
X131524810Y-71978792D01*
X131743509Y-71860438D01*
X131939744Y-71707702D01*
X132098771Y-71534952D01*
X132158657Y-71498963D01*
X132228495Y-71501063D01*
X132281228Y-71534952D01*
X132440256Y-71707702D01*
X132636491Y-71860438D01*
X132636493Y-71860439D01*
X132854332Y-71978328D01*
X132855190Y-71978792D01*
X133064138Y-72050524D01*
X133088964Y-72059047D01*
X133090386Y-72059535D01*
X133335665Y-72100464D01*
X133584335Y-72100464D01*
X133829614Y-72059535D01*
X134064810Y-71978792D01*
X134283509Y-71860438D01*
X134479744Y-71707702D01*
X134638771Y-71534952D01*
X134698657Y-71498963D01*
X134768495Y-71501063D01*
X134821228Y-71534952D01*
X134980256Y-71707702D01*
X135176491Y-71860438D01*
X135176493Y-71860439D01*
X135394332Y-71978328D01*
X135395190Y-71978792D01*
X135604138Y-72050524D01*
X135628964Y-72059047D01*
X135630386Y-72059535D01*
X135875665Y-72100464D01*
X136124335Y-72100464D01*
X136369614Y-72059535D01*
X136604810Y-71978792D01*
X136823509Y-71860438D01*
X137019744Y-71707702D01*
X137178771Y-71534952D01*
X137238657Y-71498963D01*
X137308495Y-71501063D01*
X137361228Y-71534952D01*
X137520256Y-71707702D01*
X137716491Y-71860438D01*
X137716493Y-71860439D01*
X137934332Y-71978328D01*
X137935190Y-71978792D01*
X138144138Y-72050524D01*
X138168964Y-72059047D01*
X138170386Y-72059535D01*
X138415665Y-72100464D01*
X138664335Y-72100464D01*
X138909614Y-72059535D01*
X139144810Y-71978792D01*
X139363509Y-71860438D01*
X139559744Y-71707702D01*
X139718771Y-71534952D01*
X139778657Y-71498963D01*
X139848495Y-71501063D01*
X139901228Y-71534952D01*
X140060256Y-71707702D01*
X140182764Y-71803054D01*
X140256488Y-71860436D01*
X140256493Y-71860439D01*
X140389517Y-71932428D01*
X140439108Y-71981647D01*
X140454500Y-72041483D01*
X140454500Y-78297255D01*
X140452775Y-78312872D01*
X140453061Y-78312899D01*
X140452326Y-78320665D01*
X140454500Y-78389814D01*
X140454500Y-78419343D01*
X140454501Y-78419360D01*
X140455368Y-78426231D01*
X140455826Y-78432050D01*
X140457290Y-78478624D01*
X140457291Y-78478627D01*
X140462880Y-78497867D01*
X140466824Y-78516911D01*
X140469336Y-78536792D01*
X140481344Y-78567122D01*
X140486490Y-78580119D01*
X140488382Y-78585647D01*
X140501381Y-78630388D01*
X140511580Y-78647634D01*
X140520138Y-78665103D01*
X140527514Y-78683732D01*
X140550818Y-78715807D01*
X140574298Y-78781613D01*
X140574500Y-78788692D01*
X140574500Y-80117255D01*
X140572775Y-80132872D01*
X140573061Y-80132899D01*
X140572326Y-80140665D01*
X140574500Y-80209814D01*
X140574500Y-80239343D01*
X140574501Y-80239360D01*
X140575368Y-80246231D01*
X140575826Y-80252050D01*
X140577290Y-80298624D01*
X140577291Y-80298627D01*
X140582880Y-80317867D01*
X140586824Y-80336911D01*
X140589336Y-80356791D01*
X140606490Y-80400119D01*
X140608382Y-80405647D01*
X140621381Y-80450388D01*
X140631580Y-80467634D01*
X140640138Y-80485103D01*
X140647514Y-80503732D01*
X140674898Y-80541423D01*
X140678106Y-80546307D01*
X140701827Y-80586416D01*
X140701833Y-80586424D01*
X140715990Y-80600580D01*
X140728628Y-80615376D01*
X140740405Y-80631586D01*
X140740406Y-80631587D01*
X140776309Y-80661288D01*
X140780620Y-80665210D01*
X148808878Y-88693469D01*
X150599197Y-90483788D01*
X150609022Y-90496051D01*
X150609243Y-90495869D01*
X150614214Y-90501878D01*
X150635043Y-90521437D01*
X150664635Y-90549226D01*
X150685529Y-90570120D01*
X150691011Y-90574373D01*
X150695443Y-90578157D01*
X150729418Y-90610062D01*
X150746976Y-90619714D01*
X150763235Y-90630395D01*
X150779064Y-90642673D01*
X150821838Y-90661182D01*
X150827056Y-90663738D01*
X150867908Y-90686197D01*
X150887316Y-90691180D01*
X150905717Y-90697480D01*
X150924104Y-90705437D01*
X150967488Y-90712308D01*
X150970119Y-90712725D01*
X150975839Y-90713909D01*
X151020981Y-90725500D01*
X151041016Y-90725500D01*
X151060414Y-90727026D01*
X151080194Y-90730159D01*
X151080195Y-90730160D01*
X151080195Y-90730159D01*
X151080196Y-90730160D01*
X151126583Y-90725775D01*
X151132422Y-90725500D01*
X179117257Y-90725500D01*
X179132877Y-90727224D01*
X179132904Y-90726939D01*
X179140660Y-90727671D01*
X179140667Y-90727673D01*
X179209814Y-90725500D01*
X179239350Y-90725500D01*
X179246228Y-90724630D01*
X179252041Y-90724172D01*
X179298627Y-90722709D01*
X179317869Y-90717117D01*
X179336912Y-90713174D01*
X179356792Y-90710664D01*
X179400122Y-90693507D01*
X179405646Y-90691617D01*
X179409396Y-90690527D01*
X179450390Y-90678618D01*
X179467629Y-90668422D01*
X179485103Y-90659862D01*
X179503727Y-90652488D01*
X179503727Y-90652487D01*
X179503732Y-90652486D01*
X179541449Y-90625082D01*
X179546305Y-90621892D01*
X179586420Y-90598170D01*
X179600589Y-90583999D01*
X179615379Y-90571368D01*
X179631587Y-90559594D01*
X179661299Y-90523676D01*
X179665212Y-90519376D01*
X180583786Y-89600802D01*
X180596048Y-89590980D01*
X180595865Y-89590759D01*
X180601867Y-89585792D01*
X180601877Y-89585786D01*
X180649241Y-89535348D01*
X180670120Y-89514470D01*
X180674373Y-89508986D01*
X180678150Y-89504563D01*
X180710062Y-89470582D01*
X180719714Y-89453023D01*
X180730389Y-89436772D01*
X180742674Y-89420936D01*
X180761186Y-89378153D01*
X180763752Y-89372915D01*
X180765715Y-89369346D01*
X180766854Y-89367276D01*
X180816413Y-89318025D01*
X180884732Y-89303386D01*
X180950120Y-89328007D01*
X180991816Y-89384071D01*
X180999500Y-89427042D01*
X180999500Y-105997289D01*
X180999264Y-106002697D01*
X180995523Y-106045445D01*
X180983082Y-106171760D01*
X180979454Y-106191699D01*
X180961601Y-106258330D01*
X180933318Y-106351563D01*
X180927040Y-106367971D01*
X180895614Y-106435367D01*
X180894101Y-106438393D01*
X180849236Y-106522327D01*
X180845341Y-106528667D01*
X180799015Y-106594828D01*
X180796154Y-106598600D01*
X180736895Y-106670808D01*
X180732806Y-106675320D01*
X180675320Y-106732806D01*
X180670808Y-106736895D01*
X180598600Y-106796154D01*
X180594828Y-106799015D01*
X180528667Y-106845341D01*
X180522327Y-106849236D01*
X180438393Y-106894101D01*
X180435367Y-106895614D01*
X180367971Y-106927040D01*
X180351563Y-106933318D01*
X180258330Y-106961601D01*
X180191699Y-106979454D01*
X180171760Y-106983082D01*
X180045445Y-106995523D01*
X180004789Y-106999080D01*
X180002696Y-106999264D01*
X179997290Y-106999500D01*
X107002710Y-106999500D01*
X106997303Y-106999264D01*
X106995015Y-106999063D01*
X106954554Y-106995523D01*
X106828238Y-106983082D01*
X106808299Y-106979454D01*
X106741669Y-106961601D01*
X106648435Y-106933319D01*
X106632027Y-106927040D01*
X106583433Y-106904381D01*
X106564618Y-106895607D01*
X106561605Y-106894101D01*
X106477671Y-106849236D01*
X106471331Y-106845341D01*
X106405170Y-106799015D01*
X106401398Y-106796154D01*
X106329190Y-106736895D01*
X106324688Y-106732815D01*
X106267182Y-106675309D01*
X106263103Y-106670808D01*
X106203844Y-106598600D01*
X106200983Y-106594828D01*
X106154657Y-106528667D01*
X106150762Y-106522327D01*
X106125982Y-106475969D01*
X106105888Y-106438375D01*
X106104406Y-106435411D01*
X106072958Y-106367971D01*
X106066682Y-106351570D01*
X106038398Y-106258330D01*
X106020541Y-106191685D01*
X106016918Y-106171771D01*
X106004482Y-106045519D01*
X106000735Y-106002695D01*
X106000500Y-105997293D01*
X106000500Y-104386600D01*
X109045585Y-104386600D01*
X109064402Y-104589682D01*
X109120217Y-104785847D01*
X109120222Y-104785860D01*
X109211127Y-104968421D01*
X109334037Y-105131181D01*
X109484758Y-105268580D01*
X109484760Y-105268582D01*
X109610948Y-105346713D01*
X109658163Y-105375948D01*
X109689663Y-105388151D01*
X109692727Y-105389444D01*
X109692802Y-105389470D01*
X109692804Y-105389471D01*
X109693821Y-105389823D01*
X109695299Y-105390335D01*
X109773685Y-105420701D01*
X109848344Y-105449624D01*
X109881195Y-105455765D01*
X109884408Y-105456454D01*
X109890870Y-105458022D01*
X109890875Y-105458024D01*
X109890879Y-105458024D01*
X109890881Y-105458025D01*
X109901293Y-105459522D01*
X109928496Y-105464607D01*
X110048824Y-105487100D01*
X110048826Y-105487100D01*
X110084237Y-105487100D01*
X110092443Y-105487686D01*
X110092449Y-105487572D01*
X110098337Y-105487852D01*
X110098341Y-105487853D01*
X110098344Y-105487852D01*
X110098348Y-105487853D01*
X110106754Y-105487453D01*
X110106764Y-105487455D01*
X110112738Y-105487170D01*
X110115691Y-105487100D01*
X110252775Y-105487100D01*
X110252776Y-105487100D01*
X110295998Y-105479020D01*
X110304446Y-105478035D01*
X110307702Y-105477880D01*
X110307704Y-105477879D01*
X110309581Y-105477790D01*
X110309627Y-105477785D01*
X110342714Y-105476208D01*
X110373094Y-105464608D01*
X110453256Y-105449624D01*
X110498181Y-105432219D01*
X110505945Y-105429786D01*
X110511393Y-105428465D01*
X110511396Y-105428463D01*
X110514140Y-105427798D01*
X110514170Y-105427790D01*
X110543386Y-105420701D01*
X110569799Y-105404475D01*
X110626695Y-105382433D01*
X110643435Y-105375949D01*
X110643440Y-105375946D01*
X110688044Y-105348328D01*
X110694892Y-105344664D01*
X110702051Y-105341395D01*
X110702054Y-105341392D01*
X110706375Y-105339420D01*
X110708328Y-105338528D01*
X110709582Y-105338347D01*
X110712829Y-105336472D01*
X110730045Y-105328610D01*
X110751828Y-105308834D01*
X110816841Y-105268581D01*
X110858853Y-105230281D01*
X110864609Y-105225636D01*
X110872785Y-105219815D01*
X110872789Y-105219810D01*
X110872877Y-105219748D01*
X110875706Y-105218768D01*
X110882422Y-105212950D01*
X110896096Y-105203212D01*
X110912853Y-105181053D01*
X110967564Y-105131179D01*
X111004491Y-105082278D01*
X111009078Y-105076878D01*
X111012007Y-105073803D01*
X111013084Y-105072674D01*
X111017102Y-105070352D01*
X111025599Y-105059549D01*
X111035639Y-105049019D01*
X111047255Y-105025650D01*
X111090473Y-104968421D01*
X111117622Y-104913897D01*
X111125139Y-104905789D01*
X111126341Y-104902787D01*
X111137142Y-104881835D01*
X111143793Y-104871484D01*
X111150407Y-104848055D01*
X111181382Y-104785850D01*
X111198398Y-104726043D01*
X111205143Y-104715350D01*
X111206396Y-104708853D01*
X111213040Y-104686226D01*
X111216747Y-104676965D01*
X111218748Y-104654521D01*
X111237197Y-104589683D01*
X111244168Y-104514445D01*
X111245017Y-104508480D01*
X111248310Y-104491399D01*
X111248310Y-104491394D01*
X111251979Y-104472358D01*
X111249973Y-104451795D01*
X111256015Y-104386600D01*
X159845585Y-104386600D01*
X159864402Y-104589682D01*
X159920217Y-104785847D01*
X159920222Y-104785860D01*
X160011127Y-104968421D01*
X160134037Y-105131181D01*
X160284758Y-105268580D01*
X160284760Y-105268582D01*
X160410948Y-105346713D01*
X160458163Y-105375948D01*
X160489663Y-105388151D01*
X160492727Y-105389444D01*
X160492802Y-105389470D01*
X160492804Y-105389471D01*
X160493821Y-105389823D01*
X160495299Y-105390335D01*
X160573685Y-105420701D01*
X160648344Y-105449624D01*
X160681195Y-105455765D01*
X160684408Y-105456454D01*
X160690870Y-105458022D01*
X160690875Y-105458024D01*
X160690879Y-105458024D01*
X160690881Y-105458025D01*
X160701293Y-105459522D01*
X160728496Y-105464607D01*
X160848824Y-105487100D01*
X160848826Y-105487100D01*
X160884237Y-105487100D01*
X160892443Y-105487686D01*
X160892449Y-105487572D01*
X160898337Y-105487852D01*
X160898341Y-105487853D01*
X160898344Y-105487852D01*
X160898348Y-105487853D01*
X160906754Y-105487453D01*
X160906764Y-105487455D01*
X160912738Y-105487170D01*
X160915691Y-105487100D01*
X161052775Y-105487100D01*
X161052776Y-105487100D01*
X161095998Y-105479020D01*
X161104446Y-105478035D01*
X161107702Y-105477880D01*
X161107704Y-105477879D01*
X161109581Y-105477790D01*
X161109627Y-105477785D01*
X161142714Y-105476208D01*
X161173094Y-105464608D01*
X161253256Y-105449624D01*
X161298181Y-105432219D01*
X161305945Y-105429786D01*
X161311393Y-105428465D01*
X161311396Y-105428463D01*
X161314140Y-105427798D01*
X161314170Y-105427790D01*
X161343386Y-105420701D01*
X161369799Y-105404475D01*
X161426695Y-105382433D01*
X161443435Y-105375949D01*
X161443440Y-105375946D01*
X161488044Y-105348328D01*
X161494892Y-105344664D01*
X161502051Y-105341395D01*
X161502054Y-105341392D01*
X161506375Y-105339420D01*
X161508328Y-105338528D01*
X161509582Y-105338347D01*
X161512829Y-105336472D01*
X161530045Y-105328610D01*
X161551828Y-105308834D01*
X161616841Y-105268581D01*
X161658853Y-105230281D01*
X161664609Y-105225636D01*
X161672785Y-105219815D01*
X161672789Y-105219810D01*
X161672877Y-105219748D01*
X161675706Y-105218768D01*
X161682422Y-105212950D01*
X161696096Y-105203212D01*
X161712853Y-105181053D01*
X161767564Y-105131179D01*
X161804491Y-105082278D01*
X161809078Y-105076878D01*
X161812007Y-105073803D01*
X161813084Y-105072674D01*
X161817102Y-105070352D01*
X161825599Y-105059549D01*
X161835639Y-105049019D01*
X161847255Y-105025650D01*
X161890473Y-104968421D01*
X161917045Y-104915056D01*
X169299500Y-104915056D01*
X169312652Y-104968417D01*
X169340210Y-105080226D01*
X169419263Y-105230849D01*
X169419266Y-105230852D01*
X169532071Y-105358183D01*
X169578651Y-105390335D01*
X169672068Y-105454817D01*
X169672069Y-105454817D01*
X169672070Y-105454818D01*
X169831128Y-105515140D01*
X169907028Y-105524356D01*
X169957626Y-105530500D01*
X169957628Y-105530500D01*
X170042374Y-105530500D01*
X170084538Y-105525380D01*
X170168872Y-105515140D01*
X170327930Y-105454818D01*
X170467929Y-105358183D01*
X170580734Y-105230852D01*
X170586530Y-105219810D01*
X170633047Y-105131179D01*
X170659790Y-105080225D01*
X170700500Y-104915056D01*
X172299500Y-104915056D01*
X172312652Y-104968417D01*
X172340210Y-105080226D01*
X172419263Y-105230849D01*
X172419266Y-105230852D01*
X172532071Y-105358183D01*
X172578651Y-105390335D01*
X172672068Y-105454817D01*
X172672069Y-105454817D01*
X172672070Y-105454818D01*
X172831128Y-105515140D01*
X172907028Y-105524356D01*
X172957626Y-105530500D01*
X172957628Y-105530500D01*
X173042374Y-105530500D01*
X173084538Y-105525380D01*
X173168872Y-105515140D01*
X173327930Y-105454818D01*
X173467929Y-105358183D01*
X173580734Y-105230852D01*
X173586530Y-105219810D01*
X173633047Y-105131179D01*
X173659790Y-105080225D01*
X173700500Y-104915056D01*
X173700500Y-104744944D01*
X173659790Y-104579775D01*
X173625523Y-104514485D01*
X173580736Y-104429150D01*
X173543039Y-104386599D01*
X173467929Y-104301817D01*
X173418177Y-104267475D01*
X173327931Y-104205182D01*
X173168874Y-104144860D01*
X173168868Y-104144859D01*
X173042374Y-104129500D01*
X173042372Y-104129500D01*
X172957628Y-104129500D01*
X172957626Y-104129500D01*
X172831131Y-104144859D01*
X172831125Y-104144860D01*
X172672068Y-104205182D01*
X172532072Y-104301816D01*
X172419263Y-104429150D01*
X172340210Y-104579773D01*
X172306794Y-104715350D01*
X172299500Y-104744944D01*
X172299500Y-104915056D01*
X170700500Y-104915056D01*
X170700500Y-104744944D01*
X170659790Y-104579775D01*
X170625523Y-104514485D01*
X170580736Y-104429150D01*
X170543039Y-104386599D01*
X170467929Y-104301817D01*
X170418177Y-104267475D01*
X170327931Y-104205182D01*
X170168874Y-104144860D01*
X170168868Y-104144859D01*
X170042374Y-104129500D01*
X170042372Y-104129500D01*
X169957628Y-104129500D01*
X169957626Y-104129500D01*
X169831131Y-104144859D01*
X169831125Y-104144860D01*
X169672068Y-104205182D01*
X169532072Y-104301816D01*
X169419263Y-104429150D01*
X169340210Y-104579773D01*
X169306794Y-104715350D01*
X169299500Y-104744944D01*
X169299500Y-104915056D01*
X161917045Y-104915056D01*
X161917622Y-104913897D01*
X161925139Y-104905789D01*
X161926341Y-104902787D01*
X161937142Y-104881835D01*
X161943793Y-104871484D01*
X161950407Y-104848055D01*
X161981382Y-104785850D01*
X161998398Y-104726043D01*
X162005143Y-104715350D01*
X162006396Y-104708853D01*
X162013040Y-104686226D01*
X162016747Y-104676965D01*
X162018748Y-104654521D01*
X162037197Y-104589683D01*
X162044168Y-104514445D01*
X162045017Y-104508480D01*
X162048310Y-104491399D01*
X162048310Y-104491394D01*
X162051979Y-104472358D01*
X162049973Y-104451795D01*
X162056015Y-104386600D01*
X162049973Y-104321404D01*
X162052980Y-104306033D01*
X162045020Y-104264732D01*
X162044168Y-104258748D01*
X162037197Y-104183517D01*
X162018748Y-104118676D01*
X162018891Y-104101586D01*
X162013039Y-104086969D01*
X162006397Y-104064346D01*
X162005952Y-104062040D01*
X161998399Y-104047158D01*
X161981382Y-103987350D01*
X161981381Y-103987347D01*
X161981380Y-103987344D01*
X161950408Y-103925146D01*
X161947165Y-103906959D01*
X161937142Y-103891362D01*
X161926691Y-103871090D01*
X161917624Y-103859305D01*
X161890473Y-103804779D01*
X161890470Y-103804775D01*
X161890469Y-103804773D01*
X161847256Y-103747549D01*
X161840256Y-103729020D01*
X161825597Y-103713647D01*
X161818944Y-103705188D01*
X161813116Y-103700557D01*
X161809099Y-103696344D01*
X161804492Y-103690922D01*
X161793843Y-103676820D01*
X161767566Y-103642022D01*
X161767564Y-103642020D01*
X161712855Y-103592147D01*
X161701901Y-103574119D01*
X161682423Y-103560249D01*
X161677169Y-103555696D01*
X161672865Y-103553442D01*
X161664632Y-103547578D01*
X161658824Y-103542891D01*
X161644566Y-103529893D01*
X161616841Y-103504619D01*
X161616834Y-103504615D01*
X161616832Y-103504613D01*
X161551829Y-103464365D01*
X161536913Y-103447724D01*
X161512829Y-103436726D01*
X161510333Y-103435285D01*
X161508386Y-103434697D01*
X161494904Y-103428540D01*
X161488014Y-103424853D01*
X161443437Y-103397252D01*
X161397082Y-103379294D01*
X161369793Y-103368722D01*
X161351120Y-103354372D01*
X161311064Y-103344655D01*
X161309016Y-103344158D01*
X161305955Y-103343415D01*
X161298170Y-103340975D01*
X161267445Y-103329073D01*
X161253256Y-103323576D01*
X161253247Y-103323574D01*
X161253246Y-103323574D01*
X161173084Y-103308588D01*
X161151047Y-103297383D01*
X161104441Y-103295163D01*
X161095991Y-103294177D01*
X161052780Y-103286100D01*
X161052776Y-103286100D01*
X160915634Y-103286100D01*
X160912684Y-103286030D01*
X160898340Y-103285346D01*
X160892449Y-103285628D01*
X160892443Y-103285513D01*
X160884237Y-103286100D01*
X160848824Y-103286100D01*
X160805616Y-103294177D01*
X160701291Y-103313678D01*
X160690872Y-103315176D01*
X160684393Y-103316748D01*
X160681173Y-103317439D01*
X160648348Y-103323575D01*
X160648338Y-103323577D01*
X160495296Y-103382866D01*
X160492715Y-103383759D01*
X160489611Y-103385068D01*
X160458163Y-103397251D01*
X160458161Y-103397252D01*
X160284757Y-103504620D01*
X160134037Y-103642018D01*
X160011127Y-103804778D01*
X159920222Y-103987339D01*
X159920217Y-103987352D01*
X159864402Y-104183517D01*
X159845585Y-104386599D01*
X159845585Y-104386600D01*
X111256015Y-104386600D01*
X111249973Y-104321404D01*
X111252980Y-104306033D01*
X111245020Y-104264732D01*
X111244168Y-104258748D01*
X111237197Y-104183517D01*
X111218748Y-104118676D01*
X111218891Y-104101586D01*
X111213039Y-104086969D01*
X111206397Y-104064346D01*
X111205952Y-104062040D01*
X111198399Y-104047158D01*
X111181382Y-103987350D01*
X111181381Y-103987347D01*
X111181380Y-103987344D01*
X111150408Y-103925146D01*
X111147165Y-103906959D01*
X111137142Y-103891362D01*
X111126691Y-103871090D01*
X111117624Y-103859305D01*
X111090473Y-103804779D01*
X111090470Y-103804775D01*
X111090469Y-103804773D01*
X111047256Y-103747549D01*
X111040256Y-103729020D01*
X111025597Y-103713647D01*
X111018944Y-103705188D01*
X111013116Y-103700557D01*
X111009099Y-103696344D01*
X111004492Y-103690922D01*
X110993843Y-103676820D01*
X110967566Y-103642022D01*
X110967564Y-103642020D01*
X110912855Y-103592147D01*
X110901901Y-103574119D01*
X110882423Y-103560249D01*
X110877169Y-103555696D01*
X110872865Y-103553442D01*
X110864632Y-103547578D01*
X110858824Y-103542891D01*
X110844566Y-103529893D01*
X110816841Y-103504619D01*
X110816834Y-103504615D01*
X110816832Y-103504613D01*
X110751829Y-103464365D01*
X110736913Y-103447724D01*
X110712829Y-103436726D01*
X110710333Y-103435285D01*
X110708386Y-103434697D01*
X110694904Y-103428540D01*
X110688014Y-103424853D01*
X110643437Y-103397252D01*
X110597082Y-103379294D01*
X110569793Y-103368722D01*
X110551120Y-103354372D01*
X110511064Y-103344655D01*
X110509016Y-103344158D01*
X110505955Y-103343415D01*
X110498170Y-103340975D01*
X110467445Y-103329073D01*
X110453256Y-103323576D01*
X110453247Y-103323574D01*
X110453246Y-103323574D01*
X110373084Y-103308588D01*
X110351047Y-103297383D01*
X110304441Y-103295163D01*
X110295991Y-103294177D01*
X110252780Y-103286100D01*
X110252776Y-103286100D01*
X110115634Y-103286100D01*
X110112684Y-103286030D01*
X110098340Y-103285346D01*
X110092449Y-103285628D01*
X110092443Y-103285513D01*
X110084237Y-103286100D01*
X110048824Y-103286100D01*
X110005616Y-103294177D01*
X109901291Y-103313678D01*
X109890872Y-103315176D01*
X109884393Y-103316748D01*
X109881173Y-103317439D01*
X109848348Y-103323575D01*
X109848338Y-103323577D01*
X109695296Y-103382866D01*
X109692715Y-103383759D01*
X109689611Y-103385068D01*
X109658163Y-103397251D01*
X109658161Y-103397252D01*
X109484757Y-103504620D01*
X109334037Y-103642018D01*
X109211127Y-103804778D01*
X109120222Y-103987339D01*
X109120217Y-103987352D01*
X109064402Y-104183517D01*
X109045585Y-104386599D01*
X109045585Y-104386600D01*
X106000500Y-104386600D01*
X106000500Y-90035040D01*
X106020185Y-89968001D01*
X106072989Y-89922246D01*
X106142147Y-89912302D01*
X106205703Y-89941327D01*
X106231231Y-89971917D01*
X106236830Y-89981384D01*
X106236831Y-89981385D01*
X106236833Y-89981388D01*
X106250990Y-89995544D01*
X106263628Y-90010340D01*
X106275405Y-90026550D01*
X106275406Y-90026551D01*
X106311309Y-90056252D01*
X106315620Y-90060174D01*
X110291985Y-94036540D01*
X110544635Y-94289190D01*
X110578120Y-94350513D01*
X110573136Y-94420205D01*
X110531264Y-94476138D01*
X110477364Y-94499180D01*
X110230382Y-94540393D01*
X109995197Y-94621133D01*
X109995188Y-94621136D01*
X109776493Y-94739488D01*
X109580257Y-94892225D01*
X109411837Y-95075177D01*
X109411829Y-95075188D01*
X109411455Y-95075761D01*
X109411242Y-95075942D01*
X109408690Y-95079222D01*
X109408014Y-95078696D01*
X109358304Y-95121111D01*
X109294865Y-95131266D01*
X109283434Y-95130080D01*
X108543076Y-95870439D01*
X108519493Y-95790120D01*
X108441761Y-95669166D01*
X108333100Y-95575012D01*
X108202315Y-95515284D01*
X108192531Y-95513877D01*
X108930056Y-94776353D01*
X108883229Y-94739907D01*
X108664614Y-94621599D01*
X108664603Y-94621594D01*
X108429493Y-94540880D01*
X108184293Y-94499964D01*
X107935707Y-94499964D01*
X107690506Y-94540880D01*
X107455396Y-94621594D01*
X107455390Y-94621596D01*
X107236761Y-94739913D01*
X107189942Y-94776352D01*
X107189941Y-94776353D01*
X107927466Y-95513877D01*
X107917685Y-95515284D01*
X107786900Y-95575012D01*
X107678239Y-95669166D01*
X107600507Y-95790120D01*
X107576923Y-95870439D01*
X106836564Y-95130080D01*
X106736267Y-95283596D01*
X106636412Y-95511246D01*
X106575387Y-95752225D01*
X106575385Y-95752234D01*
X106554858Y-95999958D01*
X106554858Y-95999969D01*
X106575385Y-96247693D01*
X106575387Y-96247702D01*
X106636412Y-96488681D01*
X106736266Y-96716328D01*
X106836564Y-96869846D01*
X107576923Y-96129487D01*
X107600507Y-96209808D01*
X107678239Y-96330762D01*
X107786900Y-96424916D01*
X107917685Y-96484644D01*
X107927466Y-96486050D01*
X107189942Y-97223573D01*
X107236768Y-97260019D01*
X107236770Y-97260020D01*
X107455385Y-97378328D01*
X107455396Y-97378333D01*
X107690506Y-97459047D01*
X107935707Y-97499964D01*
X108184293Y-97499964D01*
X108429493Y-97459047D01*
X108664603Y-97378333D01*
X108664614Y-97378328D01*
X108883228Y-97260021D01*
X108883231Y-97260019D01*
X108930056Y-97223573D01*
X108192533Y-96486050D01*
X108202315Y-96484644D01*
X108333100Y-96424916D01*
X108441761Y-96330762D01*
X108519493Y-96209808D01*
X108543076Y-96129488D01*
X109283434Y-96869846D01*
X109294861Y-96868661D01*
X109363573Y-96881324D01*
X109408092Y-96921158D01*
X109408683Y-96920699D01*
X109411218Y-96923956D01*
X109411456Y-96924169D01*
X109411831Y-96924744D01*
X109421229Y-96934953D01*
X109580256Y-97107702D01*
X109776491Y-97260438D01*
X109776493Y-97260439D01*
X109994332Y-97378328D01*
X109995190Y-97378792D01*
X110150739Y-97432192D01*
X110228964Y-97459047D01*
X110230386Y-97459535D01*
X110475665Y-97500464D01*
X110724335Y-97500464D01*
X110969614Y-97459535D01*
X111204810Y-97378792D01*
X111423509Y-97260438D01*
X111619744Y-97107702D01*
X111778771Y-96934952D01*
X111838657Y-96898963D01*
X111908495Y-96901063D01*
X111961228Y-96934952D01*
X112120256Y-97107702D01*
X112316491Y-97260438D01*
X112316493Y-97260439D01*
X112534332Y-97378328D01*
X112535190Y-97378792D01*
X112690739Y-97432192D01*
X112768964Y-97459047D01*
X112770386Y-97459535D01*
X113015665Y-97500464D01*
X113264335Y-97500464D01*
X113509614Y-97459535D01*
X113744810Y-97378792D01*
X113963509Y-97260438D01*
X114159744Y-97107702D01*
X114318772Y-96934950D01*
X114378656Y-96898963D01*
X114448494Y-96901063D01*
X114501228Y-96934953D01*
X114660252Y-97107698D01*
X114660256Y-97107702D01*
X114856491Y-97260438D01*
X114856493Y-97260439D01*
X115074332Y-97378328D01*
X115075190Y-97378792D01*
X115230739Y-97432192D01*
X115308964Y-97459047D01*
X115310386Y-97459535D01*
X115555665Y-97500464D01*
X115804335Y-97500464D01*
X116049614Y-97459535D01*
X116129260Y-97432191D01*
X116199055Y-97429041D01*
X116257202Y-97461792D01*
X120982597Y-102187188D01*
X120992422Y-102199451D01*
X120992643Y-102199269D01*
X120997614Y-102205278D01*
X121018443Y-102224837D01*
X121048035Y-102252626D01*
X121068929Y-102273520D01*
X121074411Y-102277773D01*
X121078843Y-102281557D01*
X121112818Y-102313462D01*
X121130376Y-102323114D01*
X121146633Y-102333793D01*
X121162464Y-102346073D01*
X121182137Y-102354586D01*
X121205233Y-102364582D01*
X121210477Y-102367150D01*
X121251308Y-102389597D01*
X121263923Y-102392835D01*
X121270705Y-102394577D01*
X121289119Y-102400881D01*
X121307504Y-102408838D01*
X121353557Y-102416132D01*
X121359226Y-102417306D01*
X121404381Y-102428900D01*
X121424416Y-102428900D01*
X121443813Y-102430426D01*
X121463596Y-102433560D01*
X121509983Y-102429175D01*
X121515822Y-102428900D01*
X174627357Y-102428900D01*
X174642977Y-102430624D01*
X174643004Y-102430339D01*
X174650760Y-102431071D01*
X174650767Y-102431073D01*
X174719914Y-102428900D01*
X174749450Y-102428900D01*
X174756328Y-102428030D01*
X174762141Y-102427572D01*
X174808727Y-102426109D01*
X174827969Y-102420517D01*
X174847012Y-102416574D01*
X174866892Y-102414064D01*
X174910222Y-102396907D01*
X174915746Y-102395017D01*
X174919496Y-102393927D01*
X174960490Y-102382018D01*
X174977729Y-102371822D01*
X174995203Y-102363262D01*
X175013827Y-102355888D01*
X175013827Y-102355887D01*
X175013832Y-102355886D01*
X175051549Y-102328482D01*
X175056405Y-102325292D01*
X175096520Y-102301570D01*
X175110689Y-102287399D01*
X175125479Y-102274768D01*
X175141687Y-102262994D01*
X175171399Y-102227076D01*
X175175312Y-102222776D01*
X175421204Y-101976884D01*
X175482525Y-101943401D01*
X175540976Y-101944792D01*
X175584932Y-101956570D01*
X175742123Y-101970322D01*
X175804998Y-101975823D01*
X175805000Y-101975823D01*
X175805002Y-101975823D01*
X175860016Y-101971009D01*
X176025068Y-101956570D01*
X176238450Y-101899394D01*
X176438662Y-101806034D01*
X176619620Y-101679326D01*
X176775826Y-101523120D01*
X176902534Y-101342162D01*
X176995894Y-101141950D01*
X177053070Y-100928568D01*
X177072323Y-100708500D01*
X177053070Y-100488432D01*
X176995894Y-100275050D01*
X176902534Y-100074839D01*
X176775826Y-99893880D01*
X176619620Y-99737674D01*
X176619616Y-99737671D01*
X176619615Y-99737670D01*
X176438666Y-99610968D01*
X176438658Y-99610964D01*
X176309811Y-99550882D01*
X176257371Y-99504710D01*
X176238219Y-99437517D01*
X176258435Y-99370635D01*
X176309811Y-99326118D01*
X176315802Y-99323324D01*
X176438662Y-99266034D01*
X176619620Y-99139326D01*
X176775826Y-98983120D01*
X176902534Y-98802162D01*
X176995894Y-98601950D01*
X177053070Y-98388568D01*
X177072323Y-98168500D01*
X177053070Y-97948432D01*
X176995894Y-97735050D01*
X176902534Y-97534839D01*
X176793271Y-97378794D01*
X176775827Y-97353881D01*
X176775823Y-97353877D01*
X176619620Y-97197674D01*
X176619616Y-97197671D01*
X176619615Y-97197670D01*
X176438666Y-97070968D01*
X176438662Y-97070966D01*
X176296656Y-97004748D01*
X176238450Y-96977606D01*
X176238447Y-96977605D01*
X176238445Y-96977604D01*
X176025070Y-96920430D01*
X176025062Y-96920429D01*
X175805002Y-96901177D01*
X175804998Y-96901177D01*
X175658287Y-96914012D01*
X175584932Y-96920430D01*
X175584930Y-96920430D01*
X175584926Y-96920431D01*
X175540976Y-96932207D01*
X175471126Y-96930543D01*
X175421203Y-96900113D01*
X172804003Y-94282912D01*
X172794180Y-94270650D01*
X172793959Y-94270834D01*
X172788986Y-94264823D01*
X172770359Y-94247331D01*
X172738564Y-94217473D01*
X172728119Y-94207028D01*
X172717675Y-94196583D01*
X172712186Y-94192325D01*
X172707761Y-94188547D01*
X172673782Y-94156638D01*
X172673780Y-94156636D01*
X172673777Y-94156635D01*
X172656229Y-94146988D01*
X172639963Y-94136304D01*
X172624133Y-94124025D01*
X172581368Y-94105518D01*
X172576122Y-94102948D01*
X172535293Y-94080503D01*
X172535292Y-94080502D01*
X172515893Y-94075522D01*
X172497481Y-94069218D01*
X172479098Y-94061262D01*
X172479092Y-94061260D01*
X172433074Y-94053972D01*
X172427352Y-94052787D01*
X172382221Y-94041200D01*
X172382219Y-94041200D01*
X172362184Y-94041200D01*
X172342786Y-94039673D01*
X172335362Y-94038497D01*
X172323005Y-94036540D01*
X172323004Y-94036540D01*
X172276616Y-94040925D01*
X172270778Y-94041200D01*
X142496043Y-94041200D01*
X142480422Y-94039475D01*
X142480396Y-94039761D01*
X142472634Y-94039027D01*
X142472633Y-94039027D01*
X142403486Y-94041200D01*
X142373949Y-94041200D01*
X142367066Y-94042069D01*
X142361249Y-94042526D01*
X142314673Y-94043990D01*
X142295429Y-94049581D01*
X142276379Y-94053525D01*
X142256511Y-94056034D01*
X142213184Y-94073188D01*
X142207658Y-94075079D01*
X142162914Y-94088079D01*
X142162910Y-94088081D01*
X142145666Y-94098279D01*
X142128205Y-94106833D01*
X142109574Y-94114210D01*
X142109562Y-94114217D01*
X142071870Y-94141602D01*
X142066987Y-94144809D01*
X142026880Y-94168529D01*
X142012714Y-94182695D01*
X141997924Y-94195327D01*
X141981714Y-94207104D01*
X141981711Y-94207107D01*
X141952010Y-94243009D01*
X141948077Y-94247331D01*
X141657255Y-94538152D01*
X141595932Y-94571637D01*
X141529312Y-94567752D01*
X141449618Y-94540393D01*
X141204335Y-94499464D01*
X140955665Y-94499464D01*
X140710383Y-94540393D01*
X140475197Y-94621133D01*
X140475188Y-94621136D01*
X140256493Y-94739488D01*
X140060257Y-94892225D01*
X139901230Y-95064974D01*
X139841342Y-95100965D01*
X139771504Y-95098864D01*
X139718770Y-95064974D01*
X139679108Y-95021890D01*
X139559744Y-94892226D01*
X139363509Y-94739490D01*
X139363507Y-94739489D01*
X139363506Y-94739488D01*
X139144811Y-94621136D01*
X139144802Y-94621133D01*
X138909616Y-94540393D01*
X138664335Y-94499464D01*
X138415665Y-94499464D01*
X138170383Y-94540393D01*
X137935197Y-94621133D01*
X137935188Y-94621136D01*
X137716493Y-94739488D01*
X137520257Y-94892225D01*
X137361230Y-95064974D01*
X137301342Y-95100965D01*
X137231504Y-95098864D01*
X137178770Y-95064974D01*
X137139108Y-95021890D01*
X137019744Y-94892226D01*
X136823509Y-94739490D01*
X136823507Y-94739489D01*
X136823506Y-94739488D01*
X136604811Y-94621136D01*
X136604802Y-94621133D01*
X136369616Y-94540393D01*
X136124335Y-94499464D01*
X135875665Y-94499464D01*
X135630383Y-94540393D01*
X135395197Y-94621133D01*
X135395188Y-94621136D01*
X135176493Y-94739488D01*
X134980257Y-94892225D01*
X134821230Y-95064974D01*
X134761342Y-95100965D01*
X134691504Y-95098864D01*
X134638770Y-95064974D01*
X134599108Y-95021890D01*
X134479744Y-94892226D01*
X134283509Y-94739490D01*
X134283507Y-94739489D01*
X134283506Y-94739488D01*
X134064811Y-94621136D01*
X134064802Y-94621133D01*
X133829616Y-94540393D01*
X133584335Y-94499464D01*
X133335665Y-94499464D01*
X133090383Y-94540393D01*
X132855197Y-94621133D01*
X132855188Y-94621136D01*
X132636493Y-94739488D01*
X132440257Y-94892225D01*
X132281230Y-95064974D01*
X132221342Y-95100965D01*
X132151504Y-95098864D01*
X132098770Y-95064974D01*
X132059108Y-95021890D01*
X131939744Y-94892226D01*
X131743509Y-94739490D01*
X131743507Y-94739489D01*
X131743506Y-94739488D01*
X131524811Y-94621136D01*
X131524802Y-94621133D01*
X131289616Y-94540393D01*
X131044335Y-94499464D01*
X130795665Y-94499464D01*
X130550383Y-94540393D01*
X130315197Y-94621133D01*
X130315188Y-94621136D01*
X130096493Y-94739488D01*
X129900257Y-94892225D01*
X129741230Y-95064974D01*
X129681342Y-95100965D01*
X129611504Y-95098864D01*
X129558770Y-95064974D01*
X129519108Y-95021890D01*
X129399744Y-94892226D01*
X129203509Y-94739490D01*
X129203507Y-94739489D01*
X129203506Y-94739488D01*
X128984811Y-94621136D01*
X128984802Y-94621133D01*
X128749616Y-94540393D01*
X128504335Y-94499464D01*
X128255665Y-94499464D01*
X128010383Y-94540393D01*
X127775197Y-94621133D01*
X127775188Y-94621136D01*
X127556493Y-94739488D01*
X127360257Y-94892225D01*
X127201230Y-95064974D01*
X127141342Y-95100965D01*
X127071504Y-95098864D01*
X127018770Y-95064974D01*
X126979108Y-95021890D01*
X126859744Y-94892226D01*
X126663509Y-94739490D01*
X126663507Y-94739489D01*
X126663506Y-94739488D01*
X126444811Y-94621136D01*
X126444802Y-94621133D01*
X126209616Y-94540393D01*
X125964335Y-94499464D01*
X125715665Y-94499464D01*
X125470383Y-94540393D01*
X125235197Y-94621133D01*
X125235188Y-94621136D01*
X125016493Y-94739488D01*
X124820257Y-94892225D01*
X124661230Y-95064974D01*
X124601342Y-95100965D01*
X124531504Y-95098864D01*
X124478770Y-95064974D01*
X124439108Y-95021890D01*
X124319744Y-94892226D01*
X124123509Y-94739490D01*
X124123507Y-94739489D01*
X124123506Y-94739488D01*
X123904811Y-94621136D01*
X123904802Y-94621133D01*
X123669616Y-94540393D01*
X123424335Y-94499464D01*
X123175665Y-94499464D01*
X122930383Y-94540393D01*
X122695197Y-94621133D01*
X122695188Y-94621136D01*
X122476493Y-94739488D01*
X122280257Y-94892225D01*
X122121230Y-95064974D01*
X122061342Y-95100965D01*
X121991504Y-95098864D01*
X121938770Y-95064974D01*
X121899108Y-95021890D01*
X121779744Y-94892226D01*
X121583509Y-94739490D01*
X121583507Y-94739489D01*
X121583506Y-94739488D01*
X121364811Y-94621136D01*
X121364802Y-94621133D01*
X121129616Y-94540393D01*
X120884335Y-94499464D01*
X120635665Y-94499464D01*
X120390383Y-94540393D01*
X120155197Y-94621133D01*
X120155188Y-94621136D01*
X119936493Y-94739488D01*
X119740257Y-94892225D01*
X119581230Y-95064974D01*
X119521342Y-95100965D01*
X119451504Y-95098864D01*
X119398770Y-95064974D01*
X119359108Y-95021890D01*
X119239744Y-94892226D01*
X119043509Y-94739490D01*
X119043507Y-94739489D01*
X119043506Y-94739488D01*
X118824811Y-94621136D01*
X118824802Y-94621133D01*
X118589616Y-94540393D01*
X118344335Y-94499464D01*
X118095665Y-94499464D01*
X117850383Y-94540393D01*
X117615197Y-94621133D01*
X117615188Y-94621136D01*
X117396493Y-94739488D01*
X117200257Y-94892225D01*
X117041230Y-95064974D01*
X116981342Y-95100965D01*
X116911504Y-95098864D01*
X116858770Y-95064974D01*
X116819108Y-95021890D01*
X116699744Y-94892226D01*
X116503509Y-94739490D01*
X116503507Y-94739489D01*
X116503506Y-94739488D01*
X116284811Y-94621136D01*
X116284802Y-94621133D01*
X116049616Y-94540393D01*
X115804335Y-94499464D01*
X115555665Y-94499464D01*
X115310383Y-94540393D01*
X115075197Y-94621133D01*
X115075188Y-94621136D01*
X114856493Y-94739488D01*
X114660257Y-94892225D01*
X114501230Y-95064974D01*
X114441342Y-95100965D01*
X114371504Y-95098864D01*
X114318770Y-95064974D01*
X114279108Y-95021890D01*
X114159744Y-94892226D01*
X113963509Y-94739490D01*
X113963507Y-94739489D01*
X113963506Y-94739488D01*
X113744811Y-94621136D01*
X113744802Y-94621133D01*
X113509616Y-94540393D01*
X113264335Y-94499464D01*
X113015665Y-94499464D01*
X112770386Y-94540392D01*
X112690711Y-94567744D01*
X112620912Y-94570893D01*
X112562769Y-94538143D01*
X107396818Y-89372192D01*
X107363333Y-89310869D01*
X107360499Y-89284511D01*
X107360499Y-79835647D01*
X107360499Y-72117559D01*
X107380184Y-72050524D01*
X107432988Y-72004769D01*
X107502146Y-71994825D01*
X107524763Y-72000282D01*
X107690508Y-72057183D01*
X107935707Y-72098100D01*
X108184293Y-72098100D01*
X108429493Y-72057183D01*
X108664603Y-71976469D01*
X108664614Y-71976464D01*
X108883228Y-71858157D01*
X108883231Y-71858155D01*
X108930056Y-71821709D01*
X108192533Y-71084186D01*
X108202315Y-71082780D01*
X108333100Y-71023052D01*
X108441761Y-70928898D01*
X108519493Y-70807944D01*
X108543076Y-70727624D01*
X109283433Y-71467981D01*
G37*
%TD.AperFunction*%
%TA.AperFunction,Conductor*%
G36*
X118797202Y-97461792D02*
G01*
X121207394Y-99871984D01*
X121217219Y-99884248D01*
X121217440Y-99884066D01*
X121222410Y-99890073D01*
X121222413Y-99890076D01*
X121222414Y-99890077D01*
X121272851Y-99937441D01*
X121293730Y-99958320D01*
X121299204Y-99962566D01*
X121303642Y-99966356D01*
X121337618Y-99998262D01*
X121337622Y-99998264D01*
X121355173Y-100007913D01*
X121371431Y-100018592D01*
X121387264Y-100030874D01*
X121409215Y-100040372D01*
X121430037Y-100049383D01*
X121435281Y-100051952D01*
X121476108Y-100074397D01*
X121495512Y-100079379D01*
X121513910Y-100085678D01*
X121532305Y-100093638D01*
X121578329Y-100100926D01*
X121584032Y-100102107D01*
X121629181Y-100113700D01*
X121649216Y-100113700D01*
X121668613Y-100115226D01*
X121688396Y-100118360D01*
X121734783Y-100113975D01*
X121740622Y-100113700D01*
X166876276Y-100113700D01*
X166943315Y-100133385D01*
X166989070Y-100186189D01*
X166999014Y-100255347D01*
X166995392Y-100269834D01*
X166995979Y-100269992D01*
X166937426Y-100488513D01*
X166937424Y-100488523D01*
X166918179Y-100708499D01*
X166918179Y-100708500D01*
X166937424Y-100928476D01*
X166937425Y-100928482D01*
X166962432Y-101021806D01*
X166960769Y-101091656D01*
X166921607Y-101149519D01*
X166857378Y-101177023D01*
X166842657Y-101177900D01*
X121793852Y-101177900D01*
X121726813Y-101158215D01*
X121706171Y-101141581D01*
X118275332Y-97710742D01*
X118241847Y-97649419D01*
X118246831Y-97579727D01*
X118288703Y-97523794D01*
X118342604Y-97500752D01*
X118344330Y-97500464D01*
X118344335Y-97500464D01*
X118589614Y-97459535D01*
X118669260Y-97432191D01*
X118739055Y-97429041D01*
X118797202Y-97461792D01*
G37*
%TD.AperFunction*%
%TA.AperFunction,Conductor*%
G36*
X122068495Y-96901063D02*
G01*
X122121228Y-96934952D01*
X122280256Y-97107702D01*
X122476491Y-97260438D01*
X122476493Y-97260439D01*
X122694332Y-97378328D01*
X122695190Y-97378792D01*
X122850739Y-97432192D01*
X122928964Y-97459047D01*
X122930386Y-97459535D01*
X123175665Y-97500464D01*
X123424335Y-97500464D01*
X123669614Y-97459535D01*
X123749260Y-97432191D01*
X123819055Y-97429041D01*
X123877202Y-97461792D01*
X124125294Y-97709884D01*
X124135119Y-97722148D01*
X124135340Y-97721966D01*
X124140310Y-97727973D01*
X124140313Y-97727976D01*
X124140314Y-97727977D01*
X124190751Y-97775341D01*
X124211630Y-97796220D01*
X124217104Y-97800466D01*
X124221542Y-97804256D01*
X124255518Y-97836162D01*
X124255522Y-97836164D01*
X124273073Y-97845813D01*
X124289331Y-97856492D01*
X124305164Y-97868774D01*
X124327115Y-97878272D01*
X124347937Y-97887283D01*
X124353181Y-97889852D01*
X124394008Y-97912297D01*
X124413412Y-97917279D01*
X124431810Y-97923578D01*
X124450205Y-97931538D01*
X124496229Y-97938826D01*
X124501932Y-97940007D01*
X124547081Y-97951600D01*
X124567116Y-97951600D01*
X124586513Y-97953126D01*
X124606296Y-97956260D01*
X124652683Y-97951875D01*
X124658522Y-97951600D01*
X166801331Y-97951600D01*
X166868370Y-97971285D01*
X166914125Y-98024089D01*
X166924859Y-98086407D01*
X166917677Y-98168497D01*
X166917677Y-98168502D01*
X166936929Y-98388562D01*
X166936930Y-98388570D01*
X166994104Y-98601945D01*
X166994105Y-98601947D01*
X166994106Y-98601950D01*
X167033437Y-98686295D01*
X167043929Y-98755373D01*
X167015409Y-98819157D01*
X166956933Y-98857396D01*
X166921055Y-98862700D01*
X122018652Y-98862700D01*
X121951613Y-98843015D01*
X121930971Y-98826381D01*
X120815332Y-97710742D01*
X120781847Y-97649419D01*
X120786831Y-97579727D01*
X120828703Y-97523794D01*
X120882604Y-97500752D01*
X120884330Y-97500464D01*
X120884335Y-97500464D01*
X121129614Y-97459535D01*
X121364810Y-97378792D01*
X121583509Y-97260438D01*
X121779744Y-97107702D01*
X121938771Y-96934952D01*
X121998657Y-96898963D01*
X122068495Y-96901063D01*
G37*
%TD.AperFunction*%
%TA.AperFunction,Conductor*%
G36*
X172059787Y-95311885D02*
G01*
X172080429Y-95328519D01*
X173449393Y-96697483D01*
X173482878Y-96758806D01*
X173477894Y-96828498D01*
X173436022Y-96884431D01*
X173370558Y-96908848D01*
X173350905Y-96908692D01*
X173265002Y-96901177D01*
X173264998Y-96901177D01*
X173044937Y-96920429D01*
X173044929Y-96920430D01*
X172831554Y-96977604D01*
X172831548Y-96977607D01*
X172631340Y-97070965D01*
X172631338Y-97070966D01*
X172450377Y-97197675D01*
X172294175Y-97353877D01*
X172167466Y-97534838D01*
X172167465Y-97534840D01*
X172107382Y-97663689D01*
X172061209Y-97716128D01*
X171994016Y-97735280D01*
X171927135Y-97715064D01*
X171882618Y-97663689D01*
X171864059Y-97623890D01*
X171822534Y-97534839D01*
X171713271Y-97378794D01*
X171695827Y-97353881D01*
X171695823Y-97353877D01*
X171539620Y-97197674D01*
X171539616Y-97197671D01*
X171539615Y-97197670D01*
X171358666Y-97070968D01*
X171358662Y-97070966D01*
X171216656Y-97004748D01*
X171158450Y-96977606D01*
X171158447Y-96977605D01*
X171158445Y-96977604D01*
X170945070Y-96920430D01*
X170945062Y-96920429D01*
X170725002Y-96901177D01*
X170724998Y-96901177D01*
X170578287Y-96914012D01*
X170504932Y-96920430D01*
X170504930Y-96920430D01*
X170504926Y-96920431D01*
X170460977Y-96932207D01*
X170391127Y-96930544D01*
X170341204Y-96900113D01*
X170122903Y-96681812D01*
X170113080Y-96669550D01*
X170112859Y-96669734D01*
X170107886Y-96663723D01*
X170089257Y-96646229D01*
X170057464Y-96616373D01*
X170047019Y-96605928D01*
X170036575Y-96595483D01*
X170031086Y-96591225D01*
X170026661Y-96587447D01*
X169992682Y-96555538D01*
X169992680Y-96555536D01*
X169992677Y-96555535D01*
X169975129Y-96545888D01*
X169958863Y-96535204D01*
X169943033Y-96522925D01*
X169900268Y-96504418D01*
X169895022Y-96501848D01*
X169854193Y-96479403D01*
X169854192Y-96479402D01*
X169834793Y-96474422D01*
X169816381Y-96468118D01*
X169797998Y-96460162D01*
X169797992Y-96460160D01*
X169751974Y-96452872D01*
X169746252Y-96451687D01*
X169701121Y-96440100D01*
X169701119Y-96440100D01*
X169681084Y-96440100D01*
X169661686Y-96438573D01*
X169654262Y-96437397D01*
X169641905Y-96435440D01*
X169641904Y-96435440D01*
X169595516Y-96439825D01*
X169589678Y-96440100D01*
X167440143Y-96440100D01*
X167424522Y-96438375D01*
X167424495Y-96438661D01*
X167416733Y-96437926D01*
X167347572Y-96440100D01*
X167318049Y-96440100D01*
X167311178Y-96440967D01*
X167305359Y-96441425D01*
X167258774Y-96442889D01*
X167258768Y-96442890D01*
X167239526Y-96448480D01*
X167220487Y-96452423D01*
X167200617Y-96454934D01*
X167200603Y-96454937D01*
X167157283Y-96472088D01*
X167151758Y-96473980D01*
X167107013Y-96486980D01*
X167107010Y-96486981D01*
X167089766Y-96497179D01*
X167072305Y-96505733D01*
X167053674Y-96513110D01*
X167053662Y-96513117D01*
X167015970Y-96540502D01*
X167011087Y-96543709D01*
X166970980Y-96567429D01*
X166956814Y-96581595D01*
X166942024Y-96594227D01*
X166925814Y-96606004D01*
X166925811Y-96606007D01*
X166896111Y-96641908D01*
X166892179Y-96646229D01*
X166874131Y-96664278D01*
X166812809Y-96697765D01*
X166786447Y-96700600D01*
X162920975Y-96700600D01*
X162853936Y-96680915D01*
X162808181Y-96628111D01*
X162798237Y-96558953D01*
X162807419Y-96526791D01*
X162817232Y-96504418D01*
X162824063Y-96488845D01*
X162885108Y-96247785D01*
X162905643Y-95999964D01*
X162899686Y-95928075D01*
X162885109Y-95752151D01*
X162885107Y-95752139D01*
X162864095Y-95669166D01*
X162824063Y-95511083D01*
X162804291Y-95466009D01*
X162795389Y-95396711D01*
X162825366Y-95333598D01*
X162884705Y-95296711D01*
X162917848Y-95292200D01*
X171992748Y-95292200D01*
X172059787Y-95311885D01*
G37*
%TD.AperFunction*%
%TA.AperFunction,Conductor*%
G36*
X164231551Y-69920149D02*
G01*
X164252193Y-69936783D01*
X171539194Y-77223784D01*
X171549019Y-77236048D01*
X171549240Y-77235866D01*
X171554210Y-77241873D01*
X171554213Y-77241876D01*
X171554214Y-77241877D01*
X171604651Y-77289241D01*
X171625530Y-77310120D01*
X171631004Y-77314366D01*
X171635442Y-77318156D01*
X171669418Y-77350062D01*
X171669422Y-77350064D01*
X171686973Y-77359713D01*
X171703231Y-77370392D01*
X171719064Y-77382674D01*
X171741015Y-77392172D01*
X171761837Y-77401183D01*
X171767081Y-77403752D01*
X171807908Y-77426197D01*
X171827312Y-77431179D01*
X171845710Y-77437478D01*
X171864105Y-77445438D01*
X171910129Y-77452726D01*
X171915832Y-77453907D01*
X171960981Y-77465500D01*
X171981016Y-77465500D01*
X172000413Y-77467026D01*
X172020196Y-77470160D01*
X172066583Y-77465775D01*
X172072422Y-77465500D01*
X176424773Y-77465500D01*
X176491812Y-77485185D01*
X176526348Y-77518377D01*
X176661501Y-77711396D01*
X176661506Y-77711402D01*
X176828597Y-77878493D01*
X176828603Y-77878498D01*
X177014158Y-78008425D01*
X177057783Y-78063002D01*
X177064977Y-78132500D01*
X177033454Y-78194855D01*
X177014158Y-78211575D01*
X176828597Y-78341505D01*
X176661505Y-78508597D01*
X176525965Y-78702169D01*
X176525964Y-78702171D01*
X176426098Y-78916335D01*
X176426094Y-78916344D01*
X176364938Y-79144586D01*
X176364936Y-79144596D01*
X176344341Y-79379999D01*
X176344341Y-79380000D01*
X176364936Y-79615403D01*
X176364938Y-79615413D01*
X176426094Y-79843655D01*
X176426096Y-79843659D01*
X176426097Y-79843663D01*
X176459784Y-79915905D01*
X176525965Y-80057830D01*
X176525967Y-80057834D01*
X176661501Y-80251395D01*
X176661506Y-80251402D01*
X176828597Y-80418493D01*
X176828603Y-80418498D01*
X177014158Y-80548425D01*
X177057783Y-80603002D01*
X177064977Y-80672500D01*
X177033454Y-80734855D01*
X177014158Y-80751575D01*
X176828597Y-80881505D01*
X176661505Y-81048597D01*
X176525965Y-81242169D01*
X176525964Y-81242171D01*
X176426098Y-81456335D01*
X176426094Y-81456344D01*
X176364938Y-81684586D01*
X176364936Y-81684596D01*
X176344341Y-81919999D01*
X176344341Y-81920000D01*
X176364936Y-82155403D01*
X176364938Y-82155413D01*
X176426094Y-82383655D01*
X176426096Y-82383659D01*
X176426097Y-82383663D01*
X176463017Y-82462837D01*
X176525965Y-82597830D01*
X176525967Y-82597834D01*
X176661501Y-82791395D01*
X176661506Y-82791402D01*
X176828597Y-82958493D01*
X176828603Y-82958498D01*
X177014158Y-83088425D01*
X177057783Y-83143002D01*
X177064977Y-83212500D01*
X177033454Y-83274855D01*
X177014158Y-83291575D01*
X176828597Y-83421505D01*
X176661505Y-83588597D01*
X176525965Y-83782169D01*
X176525964Y-83782171D01*
X176426098Y-83996335D01*
X176426094Y-83996344D01*
X176364938Y-84224586D01*
X176364936Y-84224596D01*
X176344341Y-84459999D01*
X176344341Y-84460000D01*
X176364936Y-84695403D01*
X176364938Y-84695413D01*
X176426094Y-84923655D01*
X176426096Y-84923659D01*
X176426097Y-84923663D01*
X176525965Y-85137830D01*
X176525967Y-85137834D01*
X176661501Y-85331395D01*
X176661506Y-85331402D01*
X176783430Y-85453326D01*
X176816915Y-85514649D01*
X176811931Y-85584341D01*
X176770059Y-85640274D01*
X176739083Y-85657189D01*
X176607669Y-85706203D01*
X176607664Y-85706206D01*
X176492455Y-85792452D01*
X176492452Y-85792455D01*
X176406206Y-85907664D01*
X176406202Y-85907671D01*
X176355908Y-86042517D01*
X176349501Y-86102116D01*
X176349500Y-86102135D01*
X176349500Y-86250500D01*
X176329815Y-86317539D01*
X176277011Y-86363294D01*
X176225500Y-86374500D01*
X153010453Y-86374500D01*
X152943414Y-86354815D01*
X152922772Y-86338181D01*
X149361819Y-82777228D01*
X149328334Y-82715905D01*
X149325500Y-82689547D01*
X149325500Y-72041483D01*
X149345185Y-71974444D01*
X149390483Y-71932428D01*
X149391369Y-71931948D01*
X149523509Y-71860438D01*
X149719744Y-71707702D01*
X149878771Y-71534952D01*
X149938657Y-71498963D01*
X150008495Y-71501063D01*
X150061228Y-71534952D01*
X150220256Y-71707702D01*
X150416491Y-71860438D01*
X150416493Y-71860439D01*
X150634332Y-71978328D01*
X150635190Y-71978792D01*
X150844138Y-72050524D01*
X150868964Y-72059047D01*
X150870386Y-72059535D01*
X151115665Y-72100464D01*
X151364335Y-72100464D01*
X151609614Y-72059535D01*
X151844810Y-71978792D01*
X152063509Y-71860438D01*
X152259744Y-71707702D01*
X152418771Y-71534952D01*
X152478657Y-71498963D01*
X152548495Y-71501063D01*
X152601228Y-71534952D01*
X152760256Y-71707702D01*
X152956491Y-71860438D01*
X152956493Y-71860439D01*
X153174332Y-71978328D01*
X153175190Y-71978792D01*
X153384138Y-72050524D01*
X153408964Y-72059047D01*
X153410386Y-72059535D01*
X153655665Y-72100464D01*
X153904335Y-72100464D01*
X154149614Y-72059535D01*
X154384810Y-71978792D01*
X154603509Y-71860438D01*
X154799744Y-71707702D01*
X154958771Y-71534952D01*
X155018657Y-71498963D01*
X155088495Y-71501063D01*
X155141228Y-71534952D01*
X155300256Y-71707702D01*
X155496491Y-71860438D01*
X155496493Y-71860439D01*
X155714332Y-71978328D01*
X155715190Y-71978792D01*
X155924138Y-72050524D01*
X155948964Y-72059047D01*
X155950386Y-72059535D01*
X156195665Y-72100464D01*
X156444335Y-72100464D01*
X156689614Y-72059535D01*
X156924810Y-71978792D01*
X157143509Y-71860438D01*
X157339744Y-71707702D01*
X157498772Y-71534950D01*
X157558656Y-71498963D01*
X157628494Y-71501063D01*
X157681228Y-71534953D01*
X157840252Y-71707698D01*
X157840256Y-71707702D01*
X158036491Y-71860438D01*
X158036493Y-71860439D01*
X158254332Y-71978328D01*
X158255190Y-71978792D01*
X158464138Y-72050524D01*
X158488964Y-72059047D01*
X158490386Y-72059535D01*
X158735665Y-72100464D01*
X158984335Y-72100464D01*
X159229614Y-72059535D01*
X159464810Y-71978792D01*
X159683509Y-71860438D01*
X159879744Y-71707702D01*
X160048164Y-71524749D01*
X160048533Y-71524183D01*
X160048745Y-71524002D01*
X160051322Y-71520693D01*
X160052002Y-71521222D01*
X160101676Y-71478824D01*
X160165138Y-71468661D01*
X160176564Y-71469846D01*
X160916922Y-70729487D01*
X160940507Y-70809808D01*
X161018239Y-70930762D01*
X161126900Y-71024916D01*
X161257685Y-71084644D01*
X161267466Y-71086050D01*
X160529942Y-71823573D01*
X160576768Y-71860019D01*
X160576770Y-71860020D01*
X160795385Y-71978328D01*
X160795396Y-71978333D01*
X161030506Y-72059047D01*
X161275707Y-72099964D01*
X161524293Y-72099964D01*
X161769493Y-72059047D01*
X162004603Y-71978333D01*
X162004614Y-71978328D01*
X162223228Y-71860021D01*
X162223231Y-71860019D01*
X162270056Y-71823573D01*
X161532533Y-71086050D01*
X161542315Y-71084644D01*
X161673100Y-71024916D01*
X161781761Y-70930762D01*
X161859493Y-70809808D01*
X161883076Y-70729488D01*
X162623434Y-71469846D01*
X162723731Y-71316333D01*
X162823587Y-71088681D01*
X162884612Y-70847702D01*
X162884614Y-70847693D01*
X162905141Y-70599969D01*
X162905141Y-70599958D01*
X162884614Y-70352234D01*
X162884612Y-70352225D01*
X162823588Y-70111249D01*
X162807370Y-70074275D01*
X162798467Y-70004975D01*
X162828444Y-69941862D01*
X162887783Y-69904975D01*
X162920926Y-69900464D01*
X164164512Y-69900464D01*
X164231551Y-69920149D01*
G37*
%TD.AperFunction*%
%TA.AperFunction,Conductor*%
G36*
X147468495Y-71501063D02*
G01*
X147521228Y-71534952D01*
X147680256Y-71707702D01*
X147802764Y-71803054D01*
X147876488Y-71860436D01*
X147876493Y-71860439D01*
X148009517Y-71932428D01*
X148059108Y-71981647D01*
X148074500Y-72041483D01*
X148074500Y-82917255D01*
X148072775Y-82932872D01*
X148073061Y-82932899D01*
X148072326Y-82940666D01*
X148073750Y-82985964D01*
X148056180Y-83053589D01*
X148004839Y-83100979D01*
X147936027Y-83113089D01*
X147871591Y-83086075D01*
X147862130Y-83077539D01*
X146821819Y-82037228D01*
X146788334Y-81975905D01*
X146785500Y-81949547D01*
X146785500Y-72041483D01*
X146805185Y-71974444D01*
X146850483Y-71932428D01*
X146851369Y-71931948D01*
X146983509Y-71860438D01*
X147179744Y-71707702D01*
X147338771Y-71534952D01*
X147398657Y-71498963D01*
X147468495Y-71501063D01*
G37*
%TD.AperFunction*%
%TA.AperFunction,Conductor*%
G36*
X142388495Y-71501063D02*
G01*
X142441228Y-71534952D01*
X142600256Y-71707702D01*
X142796491Y-71860438D01*
X142796493Y-71860439D01*
X143014332Y-71978328D01*
X143015190Y-71978792D01*
X143224138Y-72050524D01*
X143248964Y-72059047D01*
X143250386Y-72059535D01*
X143495665Y-72100464D01*
X143744335Y-72100464D01*
X143989614Y-72059535D01*
X144069286Y-72032182D01*
X144139080Y-72029032D01*
X144197228Y-72061783D01*
X144238181Y-72102736D01*
X144271666Y-72164059D01*
X144274500Y-72190417D01*
X144274500Y-82090547D01*
X144254815Y-82157586D01*
X144202011Y-82203341D01*
X144132853Y-82213285D01*
X144069297Y-82184260D01*
X144062819Y-82178228D01*
X141861819Y-79977228D01*
X141828334Y-79915905D01*
X141825500Y-79889547D01*
X141825500Y-78582742D01*
X141827224Y-78567122D01*
X141826939Y-78567095D01*
X141827673Y-78559333D01*
X141826036Y-78507233D01*
X141825500Y-78490171D01*
X141825500Y-78460650D01*
X141824631Y-78453779D01*
X141824173Y-78447952D01*
X141822710Y-78401373D01*
X141817119Y-78382130D01*
X141813173Y-78363078D01*
X141810664Y-78343208D01*
X141793504Y-78299867D01*
X141791624Y-78294379D01*
X141778618Y-78249610D01*
X141768422Y-78232370D01*
X141759861Y-78214894D01*
X141752487Y-78196270D01*
X141729181Y-78164191D01*
X141705702Y-78098384D01*
X141705500Y-78091307D01*
X141705500Y-72041483D01*
X141725185Y-71974444D01*
X141770483Y-71932428D01*
X141771369Y-71931948D01*
X141903509Y-71860438D01*
X142099744Y-71707702D01*
X142258771Y-71534952D01*
X142318657Y-71498963D01*
X142388495Y-71501063D01*
G37*
%TD.AperFunction*%
%TA.AperFunction,Conductor*%
G36*
X180002695Y-61000735D02*
G01*
X180045519Y-61004482D01*
X180171771Y-61016918D01*
X180191685Y-61020541D01*
X180258349Y-61038403D01*
X180351570Y-61066682D01*
X180367971Y-61072958D01*
X180435411Y-61104406D01*
X180438375Y-61105888D01*
X180475969Y-61125982D01*
X180522327Y-61150762D01*
X180528667Y-61154657D01*
X180594828Y-61200983D01*
X180598600Y-61203844D01*
X180670808Y-61263103D01*
X180675309Y-61267182D01*
X180732815Y-61324688D01*
X180736895Y-61329190D01*
X180796154Y-61401398D01*
X180799015Y-61405170D01*
X180845341Y-61471331D01*
X180849236Y-61477671D01*
X180894101Y-61561605D01*
X180895614Y-61564631D01*
X180927040Y-61632027D01*
X180933319Y-61648435D01*
X180961601Y-61741669D01*
X180979454Y-61808299D01*
X180983082Y-61828238D01*
X180995523Y-61954554D01*
X180999264Y-61997302D01*
X180999500Y-62002710D01*
X180999500Y-81549833D01*
X180979815Y-81616872D01*
X180927011Y-81662627D01*
X180857853Y-81672571D01*
X180794297Y-81643546D01*
X180768803Y-81613014D01*
X180768452Y-81612420D01*
X180759861Y-81594894D01*
X180752487Y-81576270D01*
X180752486Y-81576268D01*
X180725079Y-81538545D01*
X180721888Y-81533686D01*
X180698172Y-81493583D01*
X180698165Y-81493574D01*
X180684006Y-81479415D01*
X180671368Y-81464619D01*
X180665351Y-81456337D01*
X180659594Y-81448413D01*
X180623688Y-81418709D01*
X180619376Y-81414786D01*
X179040237Y-79835647D01*
X179006752Y-79774324D01*
X179008143Y-79715872D01*
X179035063Y-79615408D01*
X179055659Y-79380000D01*
X179035063Y-79144592D01*
X178973903Y-78916337D01*
X178874035Y-78702171D01*
X178841729Y-78656032D01*
X178738494Y-78508597D01*
X178571402Y-78341506D01*
X178571396Y-78341501D01*
X178385842Y-78211575D01*
X178342217Y-78156998D01*
X178335023Y-78087500D01*
X178366546Y-78025145D01*
X178385842Y-78008425D01*
X178408026Y-77992891D01*
X178571401Y-77878495D01*
X178738495Y-77711401D01*
X178874035Y-77517830D01*
X178973903Y-77303663D01*
X179035063Y-77075408D01*
X179055659Y-76840000D01*
X179035063Y-76604592D01*
X178973903Y-76376337D01*
X178874035Y-76162171D01*
X178873652Y-76161623D01*
X178738494Y-75968597D01*
X178571402Y-75801506D01*
X178571396Y-75801501D01*
X178385842Y-75671575D01*
X178342217Y-75616998D01*
X178335023Y-75547500D01*
X178366546Y-75485145D01*
X178385842Y-75468425D01*
X178408026Y-75452891D01*
X178571401Y-75338495D01*
X178738495Y-75171401D01*
X178874035Y-74977830D01*
X178973903Y-74763663D01*
X179035063Y-74535408D01*
X179055659Y-74300000D01*
X179035063Y-74064592D01*
X178973903Y-73836337D01*
X178874035Y-73622171D01*
X178873652Y-73621623D01*
X178738494Y-73428597D01*
X178571402Y-73261506D01*
X178571396Y-73261501D01*
X178385842Y-73131575D01*
X178342217Y-73076998D01*
X178335023Y-73007500D01*
X178366546Y-72945145D01*
X178385842Y-72928425D01*
X178408026Y-72912891D01*
X178571401Y-72798495D01*
X178738495Y-72631401D01*
X178874035Y-72437830D01*
X178973903Y-72223663D01*
X179035063Y-71995408D01*
X179055659Y-71760000D01*
X179035063Y-71524592D01*
X178973903Y-71296337D01*
X178874035Y-71082171D01*
X178873652Y-71081623D01*
X178738494Y-70888597D01*
X178571402Y-70721506D01*
X178571396Y-70721501D01*
X178385842Y-70591575D01*
X178342217Y-70536998D01*
X178335023Y-70467500D01*
X178366546Y-70405145D01*
X178385842Y-70388425D01*
X178463437Y-70334092D01*
X178571401Y-70258495D01*
X178738495Y-70091401D01*
X178874035Y-69897830D01*
X178973903Y-69683663D01*
X179035063Y-69455408D01*
X179055659Y-69220000D01*
X179035063Y-68984592D01*
X178976127Y-68764636D01*
X178973905Y-68756344D01*
X178973904Y-68756343D01*
X178973903Y-68756337D01*
X178874035Y-68542171D01*
X178873652Y-68541623D01*
X178738494Y-68348597D01*
X178571402Y-68181506D01*
X178571396Y-68181501D01*
X178385842Y-68051575D01*
X178342217Y-67996998D01*
X178335023Y-67927500D01*
X178366546Y-67865145D01*
X178385842Y-67848425D01*
X178416290Y-67827105D01*
X178571401Y-67718495D01*
X178738495Y-67551401D01*
X178874035Y-67357830D01*
X178973903Y-67143663D01*
X179035063Y-66915408D01*
X179055659Y-66680000D01*
X179035063Y-66444592D01*
X178973903Y-66216337D01*
X178874035Y-66002171D01*
X178873652Y-66001623D01*
X178738494Y-65808597D01*
X178571402Y-65641506D01*
X178571396Y-65641501D01*
X178385842Y-65511575D01*
X178342217Y-65456998D01*
X178335023Y-65387500D01*
X178366546Y-65325145D01*
X178385842Y-65308425D01*
X178447672Y-65265131D01*
X178571401Y-65178495D01*
X178738495Y-65011401D01*
X178874035Y-64817830D01*
X178973903Y-64603663D01*
X179035063Y-64375408D01*
X179055659Y-64140000D01*
X179035063Y-63904592D01*
X178973903Y-63676337D01*
X178874035Y-63462171D01*
X178873944Y-63462040D01*
X178738494Y-63268597D01*
X178571402Y-63101506D01*
X178571395Y-63101501D01*
X178377834Y-62965967D01*
X178377830Y-62965965D01*
X178328348Y-62942891D01*
X178163663Y-62866097D01*
X178163659Y-62866096D01*
X178163655Y-62866094D01*
X177935413Y-62804938D01*
X177935403Y-62804936D01*
X177700001Y-62784341D01*
X177699999Y-62784341D01*
X177464596Y-62804936D01*
X177464586Y-62804938D01*
X177236344Y-62866094D01*
X177236335Y-62866098D01*
X177022171Y-62965964D01*
X177022169Y-62965965D01*
X176828597Y-63101505D01*
X176661505Y-63268597D01*
X176526348Y-63461623D01*
X176471771Y-63505248D01*
X176424773Y-63514500D01*
X175242743Y-63514500D01*
X175227122Y-63512775D01*
X175227095Y-63513061D01*
X175219333Y-63512326D01*
X175150172Y-63514500D01*
X175120649Y-63514500D01*
X175113778Y-63515367D01*
X175107959Y-63515825D01*
X175061374Y-63517289D01*
X175061368Y-63517290D01*
X175042126Y-63522880D01*
X175023087Y-63526823D01*
X175003217Y-63529334D01*
X175003203Y-63529337D01*
X174959883Y-63546488D01*
X174954358Y-63548380D01*
X174909613Y-63561380D01*
X174909610Y-63561381D01*
X174892366Y-63571579D01*
X174874905Y-63580133D01*
X174856274Y-63587510D01*
X174856262Y-63587517D01*
X174818570Y-63614902D01*
X174813687Y-63618109D01*
X174773580Y-63641829D01*
X174759414Y-63655995D01*
X174744624Y-63668627D01*
X174728414Y-63680404D01*
X174728411Y-63680407D01*
X174698710Y-63716309D01*
X174694777Y-63720631D01*
X172977228Y-65438181D01*
X172915905Y-65471666D01*
X172889547Y-65474500D01*
X171582743Y-65474500D01*
X171567122Y-65472775D01*
X171567096Y-65473061D01*
X171559334Y-65472327D01*
X171559333Y-65472327D01*
X171490186Y-65474500D01*
X171460649Y-65474500D01*
X171453766Y-65475369D01*
X171447949Y-65475826D01*
X171401373Y-65477290D01*
X171382129Y-65482881D01*
X171363079Y-65486825D01*
X171343211Y-65489334D01*
X171299884Y-65506488D01*
X171294358Y-65508379D01*
X171249614Y-65521379D01*
X171249610Y-65521381D01*
X171232366Y-65531579D01*
X171214905Y-65540133D01*
X171196274Y-65547510D01*
X171196262Y-65547517D01*
X171158570Y-65574902D01*
X171153687Y-65578109D01*
X171113580Y-65601829D01*
X171099414Y-65615995D01*
X171084624Y-65628627D01*
X171068414Y-65640404D01*
X171068411Y-65640407D01*
X171038710Y-65676309D01*
X171034777Y-65680631D01*
X170477228Y-66238181D01*
X170415905Y-66271666D01*
X170389547Y-66274500D01*
X125682737Y-66274500D01*
X125667120Y-66272776D01*
X125667093Y-66273062D01*
X125659331Y-66272327D01*
X125590203Y-66274500D01*
X125560650Y-66274500D01*
X125559929Y-66274590D01*
X125553757Y-66275369D01*
X125547945Y-66275826D01*
X125501373Y-66277290D01*
X125501372Y-66277290D01*
X125482129Y-66282881D01*
X125463079Y-66286825D01*
X125443211Y-66289334D01*
X125443209Y-66289335D01*
X125399884Y-66306488D01*
X125394357Y-66308380D01*
X125349610Y-66321381D01*
X125349609Y-66321382D01*
X125332367Y-66331579D01*
X125314899Y-66340137D01*
X125296269Y-66347513D01*
X125296267Y-66347514D01*
X125258576Y-66374898D01*
X125253694Y-66378105D01*
X125213579Y-66401830D01*
X125199408Y-66416000D01*
X125184623Y-66428628D01*
X125168412Y-66440407D01*
X125138709Y-66476310D01*
X125134777Y-66480631D01*
X122916208Y-68699199D01*
X122903951Y-68709020D01*
X122904134Y-68709241D01*
X122898123Y-68714213D01*
X122850772Y-68764636D01*
X122829889Y-68785519D01*
X122829877Y-68785532D01*
X122825621Y-68791017D01*
X122821837Y-68795447D01*
X122789937Y-68829418D01*
X122789936Y-68829420D01*
X122780284Y-68846976D01*
X122769610Y-68863226D01*
X122757329Y-68879061D01*
X122757324Y-68879068D01*
X122738815Y-68921838D01*
X122736245Y-68927084D01*
X122713803Y-68967906D01*
X122708822Y-68987307D01*
X122702521Y-69005710D01*
X122694562Y-69024102D01*
X122694561Y-69024105D01*
X122687271Y-69070127D01*
X122686087Y-69075846D01*
X122674501Y-69120972D01*
X122674500Y-69120982D01*
X122674500Y-69141016D01*
X122672972Y-69160420D01*
X122669952Y-69179481D01*
X122640019Y-69242615D01*
X122606499Y-69269131D01*
X122476496Y-69339486D01*
X122476494Y-69339487D01*
X122280257Y-69492225D01*
X122121230Y-69664974D01*
X122061342Y-69700965D01*
X121991504Y-69698864D01*
X121938770Y-69664974D01*
X121899108Y-69621890D01*
X121779744Y-69492226D01*
X121583509Y-69339490D01*
X121583507Y-69339489D01*
X121583506Y-69339488D01*
X121364811Y-69221136D01*
X121364802Y-69221133D01*
X121129616Y-69140393D01*
X120884335Y-69099464D01*
X120635665Y-69099464D01*
X120390383Y-69140393D01*
X120155197Y-69221133D01*
X120155188Y-69221136D01*
X119936493Y-69339488D01*
X119740257Y-69492225D01*
X119581230Y-69664974D01*
X119521342Y-69700965D01*
X119451504Y-69698864D01*
X119398770Y-69664974D01*
X119359108Y-69621890D01*
X119239744Y-69492226D01*
X119043509Y-69339490D01*
X119043507Y-69339489D01*
X119043506Y-69339488D01*
X118824811Y-69221136D01*
X118824802Y-69221133D01*
X118589616Y-69140393D01*
X118344335Y-69099464D01*
X118095665Y-69099464D01*
X117850383Y-69140393D01*
X117615197Y-69221133D01*
X117615188Y-69221136D01*
X117396493Y-69339488D01*
X117200257Y-69492225D01*
X117041230Y-69664974D01*
X116981342Y-69700965D01*
X116911504Y-69698864D01*
X116858770Y-69664974D01*
X116819108Y-69621890D01*
X116699744Y-69492226D01*
X116503509Y-69339490D01*
X116503507Y-69339489D01*
X116503506Y-69339488D01*
X116284811Y-69221136D01*
X116284802Y-69221133D01*
X116049616Y-69140393D01*
X115804335Y-69099464D01*
X115555665Y-69099464D01*
X115310383Y-69140393D01*
X115075197Y-69221133D01*
X115075188Y-69221136D01*
X114856493Y-69339488D01*
X114660255Y-69492226D01*
X114660252Y-69492229D01*
X114501228Y-69664974D01*
X114441341Y-69700965D01*
X114371503Y-69698864D01*
X114318770Y-69664975D01*
X114159744Y-69492226D01*
X113963509Y-69339490D01*
X113963507Y-69339489D01*
X113963506Y-69339488D01*
X113744811Y-69221136D01*
X113744802Y-69221133D01*
X113509616Y-69140393D01*
X113264335Y-69099464D01*
X113015665Y-69099464D01*
X112770383Y-69140393D01*
X112535197Y-69221133D01*
X112535188Y-69221136D01*
X112316493Y-69339488D01*
X112120257Y-69492225D01*
X111951837Y-69675177D01*
X111951829Y-69675188D01*
X111951455Y-69675761D01*
X111951242Y-69675942D01*
X111948690Y-69679222D01*
X111948014Y-69678696D01*
X111898304Y-69721111D01*
X111834865Y-69731266D01*
X111823434Y-69730080D01*
X111083076Y-70470439D01*
X111059493Y-70390120D01*
X110981761Y-70269166D01*
X110873100Y-70175012D01*
X110742315Y-70115284D01*
X110732534Y-70113877D01*
X111470057Y-69376354D01*
X111470056Y-69376353D01*
X111423229Y-69339907D01*
X111204614Y-69221599D01*
X111204603Y-69221594D01*
X110969493Y-69140880D01*
X110724293Y-69099964D01*
X110475707Y-69099964D01*
X110230506Y-69140880D01*
X109995396Y-69221594D01*
X109995390Y-69221596D01*
X109776761Y-69339913D01*
X109729942Y-69376352D01*
X109729942Y-69376354D01*
X110467466Y-70113877D01*
X110457685Y-70115284D01*
X110326900Y-70175012D01*
X110218239Y-70269166D01*
X110140507Y-70390120D01*
X110116923Y-70470440D01*
X109376562Y-69730079D01*
X109351771Y-69732651D01*
X109326189Y-69732651D01*
X109283434Y-69728217D01*
X108543076Y-70468575D01*
X108519493Y-70388256D01*
X108441761Y-70267302D01*
X108333100Y-70173148D01*
X108202315Y-70113420D01*
X108192533Y-70112013D01*
X108930057Y-69374489D01*
X108883231Y-69338045D01*
X108671041Y-69223213D01*
X108621451Y-69173993D01*
X108606343Y-69105777D01*
X108630513Y-69040221D01*
X108642363Y-69026493D01*
X112839438Y-64829419D01*
X112900762Y-64795934D01*
X112927120Y-64793100D01*
X130573000Y-64793100D01*
X130640039Y-64812785D01*
X130674575Y-64845976D01*
X130769974Y-64982220D01*
X130769975Y-64982221D01*
X130926178Y-65138424D01*
X130926184Y-65138429D01*
X131107133Y-65265131D01*
X131107135Y-65265132D01*
X131107138Y-65265134D01*
X131307350Y-65358494D01*
X131520732Y-65415670D01*
X131677923Y-65429422D01*
X131740798Y-65434923D01*
X131740800Y-65434923D01*
X131740802Y-65434923D01*
X131795817Y-65430109D01*
X131960868Y-65415670D01*
X132174250Y-65358494D01*
X132374462Y-65265134D01*
X132555420Y-65138426D01*
X132711626Y-64982220D01*
X132838334Y-64801262D01*
X132898417Y-64672411D01*
X132944590Y-64619971D01*
X133011783Y-64600819D01*
X133078665Y-64621035D01*
X133123182Y-64672411D01*
X133183264Y-64801258D01*
X133183268Y-64801266D01*
X133309970Y-64982215D01*
X133309975Y-64982221D01*
X133466178Y-65138424D01*
X133466184Y-65138429D01*
X133647133Y-65265131D01*
X133647135Y-65265132D01*
X133647138Y-65265134D01*
X133847350Y-65358494D01*
X134060732Y-65415670D01*
X134217923Y-65429422D01*
X134280798Y-65434923D01*
X134280800Y-65434923D01*
X134280802Y-65434923D01*
X134335816Y-65430109D01*
X134500868Y-65415670D01*
X134714250Y-65358494D01*
X134914462Y-65265134D01*
X135095420Y-65138426D01*
X135251626Y-64982220D01*
X135378334Y-64801262D01*
X135438694Y-64671818D01*
X135484866Y-64619379D01*
X135552059Y-64600227D01*
X135618941Y-64620443D01*
X135663458Y-64671819D01*
X135723699Y-64801007D01*
X135723700Y-64801009D01*
X135769058Y-64865787D01*
X136435896Y-64198949D01*
X136435851Y-64199498D01*
X136467066Y-64322762D01*
X136536613Y-64429212D01*
X136636957Y-64507313D01*
X136757222Y-64548600D01*
X136793353Y-64548600D01*
X136122611Y-65219341D01*
X136187382Y-65264694D01*
X136187392Y-65264700D01*
X136387515Y-65358019D01*
X136387529Y-65358024D01*
X136600813Y-65415173D01*
X136600823Y-65415175D01*
X136820799Y-65434421D01*
X136820801Y-65434421D01*
X137040776Y-65415175D01*
X137040786Y-65415173D01*
X137254070Y-65358024D01*
X137254084Y-65358019D01*
X137454208Y-65264700D01*
X137454220Y-65264693D01*
X137518986Y-65219342D01*
X137518987Y-65219340D01*
X136848248Y-64548600D01*
X136852369Y-64548600D01*
X136946221Y-64532939D01*
X137058051Y-64472420D01*
X137144171Y-64378869D01*
X137195248Y-64262423D01*
X137200905Y-64194152D01*
X137872540Y-64865787D01*
X137872542Y-64865786D01*
X137917893Y-64801020D01*
X137917900Y-64801008D01*
X137978142Y-64671819D01*
X138024314Y-64619379D01*
X138091507Y-64600227D01*
X138158388Y-64620442D01*
X138202906Y-64671819D01*
X138263264Y-64801258D01*
X138263268Y-64801266D01*
X138389970Y-64982215D01*
X138389975Y-64982221D01*
X138546178Y-65138424D01*
X138546184Y-65138429D01*
X138727133Y-65265131D01*
X138727135Y-65265132D01*
X138727138Y-65265134D01*
X138927350Y-65358494D01*
X139140732Y-65415670D01*
X139297923Y-65429422D01*
X139360798Y-65434923D01*
X139360800Y-65434923D01*
X139360802Y-65434923D01*
X139415817Y-65430109D01*
X139580868Y-65415670D01*
X139794250Y-65358494D01*
X139994462Y-65265134D01*
X140175420Y-65138426D01*
X140331626Y-64982220D01*
X140458334Y-64801262D01*
X140551694Y-64601050D01*
X140608870Y-64387668D01*
X140625332Y-64199498D01*
X140628123Y-64167602D01*
X140628123Y-64167597D01*
X140614548Y-64012438D01*
X140608870Y-63947532D01*
X140565748Y-63786600D01*
X159845585Y-63786600D01*
X159864402Y-63989682D01*
X159920217Y-64185847D01*
X159920222Y-64185860D01*
X160011127Y-64368421D01*
X160134037Y-64531181D01*
X160284758Y-64668580D01*
X160284760Y-64668582D01*
X160410948Y-64746713D01*
X160458163Y-64775948D01*
X160489663Y-64788151D01*
X160492727Y-64789444D01*
X160492802Y-64789470D01*
X160492804Y-64789471D01*
X160493821Y-64789823D01*
X160495299Y-64790335D01*
X160573685Y-64820701D01*
X160648344Y-64849624D01*
X160681195Y-64855765D01*
X160684408Y-64856454D01*
X160690870Y-64858022D01*
X160690875Y-64858024D01*
X160690879Y-64858024D01*
X160690881Y-64858025D01*
X160701293Y-64859522D01*
X160734809Y-64865787D01*
X160848824Y-64887100D01*
X160848826Y-64887100D01*
X160884237Y-64887100D01*
X160892443Y-64887686D01*
X160892449Y-64887572D01*
X160898337Y-64887852D01*
X160898341Y-64887853D01*
X160898344Y-64887852D01*
X160898348Y-64887853D01*
X160906754Y-64887453D01*
X160906764Y-64887455D01*
X160912738Y-64887170D01*
X160915691Y-64887100D01*
X161052775Y-64887100D01*
X161052776Y-64887100D01*
X161095998Y-64879020D01*
X161104446Y-64878035D01*
X161107702Y-64877880D01*
X161107704Y-64877879D01*
X161109581Y-64877790D01*
X161109627Y-64877785D01*
X161142714Y-64876208D01*
X161173094Y-64864608D01*
X161253256Y-64849624D01*
X161298181Y-64832219D01*
X161305945Y-64829786D01*
X161311393Y-64828465D01*
X161311396Y-64828463D01*
X161314140Y-64827798D01*
X161314170Y-64827790D01*
X161343386Y-64820701D01*
X161369799Y-64804475D01*
X161426695Y-64782433D01*
X161443435Y-64775949D01*
X161443440Y-64775946D01*
X161488044Y-64748328D01*
X161494892Y-64744664D01*
X161502051Y-64741395D01*
X161502054Y-64741392D01*
X161506375Y-64739420D01*
X161508328Y-64738528D01*
X161509582Y-64738347D01*
X161512829Y-64736472D01*
X161530045Y-64728610D01*
X161551828Y-64708834D01*
X161616841Y-64668581D01*
X161658853Y-64630281D01*
X161664609Y-64625636D01*
X161672785Y-64619815D01*
X161672789Y-64619810D01*
X161672877Y-64619748D01*
X161675706Y-64618768D01*
X161682422Y-64612950D01*
X161696096Y-64603212D01*
X161712853Y-64581053D01*
X161767564Y-64531179D01*
X161804491Y-64482278D01*
X161809078Y-64476878D01*
X161812007Y-64473803D01*
X161813084Y-64472674D01*
X161817102Y-64470352D01*
X161825599Y-64459549D01*
X161835639Y-64449019D01*
X161847255Y-64425650D01*
X161890473Y-64368421D01*
X161917622Y-64313897D01*
X161925139Y-64305789D01*
X161926341Y-64302787D01*
X161937142Y-64281835D01*
X161943793Y-64271484D01*
X161950407Y-64248055D01*
X161981382Y-64185850D01*
X161998398Y-64126043D01*
X162005143Y-64115350D01*
X162006396Y-64108853D01*
X162013040Y-64086226D01*
X162016747Y-64076965D01*
X162018748Y-64054521D01*
X162037197Y-63989683D01*
X162044168Y-63914445D01*
X162045017Y-63908480D01*
X162048310Y-63891399D01*
X162048310Y-63891394D01*
X162051979Y-63872358D01*
X162049973Y-63851795D01*
X162056015Y-63786600D01*
X162049973Y-63721404D01*
X162052980Y-63706033D01*
X162048040Y-63680404D01*
X162045019Y-63664727D01*
X162044168Y-63658748D01*
X162037197Y-63583517D01*
X162018748Y-63518676D01*
X162018891Y-63501586D01*
X162013039Y-63486969D01*
X162006397Y-63464346D01*
X162005952Y-63462040D01*
X161998399Y-63447158D01*
X161981382Y-63387350D01*
X161981381Y-63387347D01*
X161981380Y-63387344D01*
X161950408Y-63325146D01*
X161947165Y-63306959D01*
X161937142Y-63291362D01*
X161926691Y-63271090D01*
X161917624Y-63259305D01*
X161890473Y-63204779D01*
X161890470Y-63204775D01*
X161890469Y-63204773D01*
X161847256Y-63147549D01*
X161840256Y-63129020D01*
X161825597Y-63113647D01*
X161818944Y-63105188D01*
X161813116Y-63100557D01*
X161809099Y-63096344D01*
X161804492Y-63090922D01*
X161789073Y-63070503D01*
X161767566Y-63042022D01*
X161767564Y-63042020D01*
X161712855Y-62992147D01*
X161701901Y-62974119D01*
X161682423Y-62960249D01*
X161677169Y-62955696D01*
X161672865Y-62953442D01*
X161664632Y-62947578D01*
X161658824Y-62942891D01*
X161644566Y-62929893D01*
X161616841Y-62904619D01*
X161616834Y-62904615D01*
X161616832Y-62904613D01*
X161551829Y-62864365D01*
X161536913Y-62847724D01*
X161512829Y-62836726D01*
X161510333Y-62835285D01*
X161508386Y-62834697D01*
X161494904Y-62828540D01*
X161488014Y-62824853D01*
X161455850Y-62804938D01*
X161443437Y-62797252D01*
X161397082Y-62779294D01*
X161369793Y-62768722D01*
X161351120Y-62754372D01*
X161311064Y-62744655D01*
X161309016Y-62744158D01*
X161305955Y-62743415D01*
X161298170Y-62740975D01*
X161267445Y-62729073D01*
X161253256Y-62723576D01*
X161253247Y-62723574D01*
X161253246Y-62723574D01*
X161173084Y-62708588D01*
X161151047Y-62697383D01*
X161104441Y-62695163D01*
X161095991Y-62694177D01*
X161052780Y-62686100D01*
X161052776Y-62686100D01*
X160915634Y-62686100D01*
X160912684Y-62686030D01*
X160898340Y-62685346D01*
X160892449Y-62685628D01*
X160892443Y-62685513D01*
X160884237Y-62686100D01*
X160848824Y-62686100D01*
X160805616Y-62694177D01*
X160701291Y-62713678D01*
X160690872Y-62715176D01*
X160684393Y-62716748D01*
X160681173Y-62717439D01*
X160648348Y-62723575D01*
X160648338Y-62723577D01*
X160495296Y-62782866D01*
X160492715Y-62783759D01*
X160489611Y-62785068D01*
X160458163Y-62797251D01*
X160458161Y-62797252D01*
X160284757Y-62904620D01*
X160134037Y-63042018D01*
X160011127Y-63204778D01*
X159920222Y-63387339D01*
X159920217Y-63387352D01*
X159864402Y-63583517D01*
X159845585Y-63786599D01*
X159845585Y-63786600D01*
X140565748Y-63786600D01*
X140551694Y-63734150D01*
X140458334Y-63533939D01*
X140357138Y-63389415D01*
X140331627Y-63352981D01*
X140270008Y-63291362D01*
X140175420Y-63196774D01*
X140175416Y-63196771D01*
X140175415Y-63196770D01*
X139994466Y-63070068D01*
X139994462Y-63070066D01*
X139994460Y-63070065D01*
X139794250Y-62976706D01*
X139794247Y-62976705D01*
X139794245Y-62976704D01*
X139580870Y-62919530D01*
X139580862Y-62919529D01*
X139360802Y-62900277D01*
X139360798Y-62900277D01*
X139140737Y-62919529D01*
X139140729Y-62919530D01*
X138927354Y-62976704D01*
X138927348Y-62976707D01*
X138727140Y-63070065D01*
X138727138Y-63070066D01*
X138546177Y-63196775D01*
X138389975Y-63352977D01*
X138266490Y-63529334D01*
X138263266Y-63533939D01*
X138263148Y-63534193D01*
X138202905Y-63663382D01*
X138156732Y-63715821D01*
X138089538Y-63734972D01*
X138022657Y-63714756D01*
X137978141Y-63663380D01*
X137917900Y-63534193D01*
X137917899Y-63534191D01*
X137872540Y-63469411D01*
X137205703Y-64136248D01*
X137205749Y-64135702D01*
X137174534Y-64012438D01*
X137104987Y-63905988D01*
X137004643Y-63827887D01*
X136884378Y-63786600D01*
X136848247Y-63786600D01*
X137518987Y-63115858D01*
X137454209Y-63070500D01*
X137454207Y-63070499D01*
X137254084Y-62977180D01*
X137254070Y-62977175D01*
X137040786Y-62920026D01*
X137040776Y-62920024D01*
X136820801Y-62900779D01*
X136820799Y-62900779D01*
X136600823Y-62920024D01*
X136600813Y-62920026D01*
X136387529Y-62977175D01*
X136387520Y-62977179D01*
X136187386Y-63070503D01*
X136122612Y-63115857D01*
X136122611Y-63115858D01*
X136793354Y-63786600D01*
X136789231Y-63786600D01*
X136695379Y-63802261D01*
X136583549Y-63862780D01*
X136497429Y-63956331D01*
X136446352Y-64072777D01*
X136440694Y-64141047D01*
X135769058Y-63469411D01*
X135769057Y-63469412D01*
X135723703Y-63534186D01*
X135663458Y-63663381D01*
X135617285Y-63715820D01*
X135550092Y-63734972D01*
X135483211Y-63714756D01*
X135438694Y-63663381D01*
X135416890Y-63616622D01*
X135378334Y-63533939D01*
X135277138Y-63389415D01*
X135251627Y-63352981D01*
X135190008Y-63291362D01*
X135095420Y-63196774D01*
X135095416Y-63196771D01*
X135095415Y-63196770D01*
X134914466Y-63070068D01*
X134914462Y-63070066D01*
X134914460Y-63070065D01*
X134714250Y-62976706D01*
X134714247Y-62976705D01*
X134714245Y-62976704D01*
X134500870Y-62919530D01*
X134500862Y-62919529D01*
X134280802Y-62900277D01*
X134280798Y-62900277D01*
X134060737Y-62919529D01*
X134060729Y-62919530D01*
X133847354Y-62976704D01*
X133847348Y-62976707D01*
X133647140Y-63070065D01*
X133647138Y-63070066D01*
X133466177Y-63196775D01*
X133309975Y-63352977D01*
X133183266Y-63533938D01*
X133183265Y-63533940D01*
X133123182Y-63662789D01*
X133077009Y-63715228D01*
X133009816Y-63734380D01*
X132942935Y-63714164D01*
X132898418Y-63662789D01*
X132872747Y-63607737D01*
X132838334Y-63533939D01*
X132737138Y-63389415D01*
X132711627Y-63352981D01*
X132650008Y-63291362D01*
X132555420Y-63196774D01*
X132555416Y-63196771D01*
X132555415Y-63196770D01*
X132374466Y-63070068D01*
X132374462Y-63070066D01*
X132374460Y-63070065D01*
X132174250Y-62976706D01*
X132174247Y-62976705D01*
X132174245Y-62976704D01*
X131960870Y-62919530D01*
X131960862Y-62919529D01*
X131740802Y-62900277D01*
X131740798Y-62900277D01*
X131520737Y-62919529D01*
X131520729Y-62919530D01*
X131307354Y-62976704D01*
X131307348Y-62976707D01*
X131107140Y-63070065D01*
X131107138Y-63070066D01*
X130926177Y-63196775D01*
X130769975Y-63352977D01*
X130674576Y-63489223D01*
X130619999Y-63532848D01*
X130573001Y-63542100D01*
X112699404Y-63542100D01*
X112683787Y-63540376D01*
X112683760Y-63540662D01*
X112675998Y-63539927D01*
X112606870Y-63542100D01*
X112577317Y-63542100D01*
X112576596Y-63542190D01*
X112570424Y-63542969D01*
X112564612Y-63543426D01*
X112518040Y-63544890D01*
X112518039Y-63544890D01*
X112498796Y-63550481D01*
X112479746Y-63554425D01*
X112459878Y-63556934D01*
X112459876Y-63556935D01*
X112416551Y-63574088D01*
X112411024Y-63575980D01*
X112366277Y-63588981D01*
X112366276Y-63588982D01*
X112349034Y-63599179D01*
X112331566Y-63607737D01*
X112312936Y-63615113D01*
X112312934Y-63615114D01*
X112275243Y-63642498D01*
X112270361Y-63645705D01*
X112230246Y-63669430D01*
X112216075Y-63683600D01*
X112201290Y-63696228D01*
X112187796Y-63706033D01*
X112185079Y-63708007D01*
X112155376Y-63743910D01*
X112151444Y-63748231D01*
X106351208Y-69548466D01*
X106338951Y-69558287D01*
X106339134Y-69558508D01*
X106333123Y-69563480D01*
X106285772Y-69613903D01*
X106264889Y-69634786D01*
X106264877Y-69634799D01*
X106260621Y-69640284D01*
X106256837Y-69644714D01*
X106224933Y-69678689D01*
X106224813Y-69678856D01*
X106224688Y-69678952D01*
X106219601Y-69684369D01*
X106218727Y-69683548D01*
X106169481Y-69721518D01*
X106099867Y-69727493D01*
X106038074Y-69694883D01*
X106003721Y-69634042D01*
X106000500Y-69605964D01*
X106000500Y-63786600D01*
X109045585Y-63786600D01*
X109064402Y-63989682D01*
X109120217Y-64185847D01*
X109120222Y-64185860D01*
X109211127Y-64368421D01*
X109334037Y-64531181D01*
X109484758Y-64668580D01*
X109484760Y-64668582D01*
X109610948Y-64746713D01*
X109658163Y-64775948D01*
X109689663Y-64788151D01*
X109692727Y-64789444D01*
X109692802Y-64789470D01*
X109692804Y-64789471D01*
X109693821Y-64789823D01*
X109695299Y-64790335D01*
X109773685Y-64820701D01*
X109848344Y-64849624D01*
X109881195Y-64855765D01*
X109884408Y-64856454D01*
X109890870Y-64858022D01*
X109890875Y-64858024D01*
X109890879Y-64858024D01*
X109890881Y-64858025D01*
X109901293Y-64859522D01*
X109934809Y-64865787D01*
X110048824Y-64887100D01*
X110048826Y-64887100D01*
X110084237Y-64887100D01*
X110092443Y-64887686D01*
X110092449Y-64887572D01*
X110098337Y-64887852D01*
X110098341Y-64887853D01*
X110098344Y-64887852D01*
X110098348Y-64887853D01*
X110106754Y-64887453D01*
X110106764Y-64887455D01*
X110112738Y-64887170D01*
X110115691Y-64887100D01*
X110252775Y-64887100D01*
X110252776Y-64887100D01*
X110295998Y-64879020D01*
X110304446Y-64878035D01*
X110307702Y-64877880D01*
X110307704Y-64877879D01*
X110309581Y-64877790D01*
X110309627Y-64877785D01*
X110342714Y-64876208D01*
X110373094Y-64864608D01*
X110453256Y-64849624D01*
X110498181Y-64832219D01*
X110505945Y-64829786D01*
X110511393Y-64828465D01*
X110511396Y-64828463D01*
X110514140Y-64827798D01*
X110514170Y-64827790D01*
X110543386Y-64820701D01*
X110569799Y-64804475D01*
X110626695Y-64782433D01*
X110643435Y-64775949D01*
X110643440Y-64775946D01*
X110688044Y-64748328D01*
X110694892Y-64744664D01*
X110702051Y-64741395D01*
X110702054Y-64741392D01*
X110706375Y-64739420D01*
X110708328Y-64738528D01*
X110709582Y-64738347D01*
X110712829Y-64736472D01*
X110730045Y-64728610D01*
X110751828Y-64708834D01*
X110816841Y-64668581D01*
X110858853Y-64630281D01*
X110864609Y-64625636D01*
X110872785Y-64619815D01*
X110872789Y-64619810D01*
X110872877Y-64619748D01*
X110875706Y-64618768D01*
X110882422Y-64612950D01*
X110896096Y-64603212D01*
X110912853Y-64581053D01*
X110967564Y-64531179D01*
X111004491Y-64482278D01*
X111009078Y-64476878D01*
X111012007Y-64473803D01*
X111013084Y-64472674D01*
X111017102Y-64470352D01*
X111025599Y-64459549D01*
X111035639Y-64449019D01*
X111047255Y-64425650D01*
X111090473Y-64368421D01*
X111117622Y-64313897D01*
X111125139Y-64305789D01*
X111126341Y-64302787D01*
X111137142Y-64281835D01*
X111143793Y-64271484D01*
X111150407Y-64248055D01*
X111181382Y-64185850D01*
X111198398Y-64126043D01*
X111205143Y-64115350D01*
X111206396Y-64108853D01*
X111213040Y-64086226D01*
X111216747Y-64076965D01*
X111218748Y-64054521D01*
X111237197Y-63989683D01*
X111244168Y-63914445D01*
X111245017Y-63908480D01*
X111248310Y-63891399D01*
X111248310Y-63891394D01*
X111251979Y-63872358D01*
X111249973Y-63851795D01*
X111256015Y-63786600D01*
X111249973Y-63721404D01*
X111252980Y-63706033D01*
X111248040Y-63680404D01*
X111245019Y-63664727D01*
X111244168Y-63658748D01*
X111237197Y-63583517D01*
X111218748Y-63518676D01*
X111218891Y-63501586D01*
X111213039Y-63486969D01*
X111206397Y-63464346D01*
X111205952Y-63462040D01*
X111198399Y-63447158D01*
X111181382Y-63387350D01*
X111181381Y-63387347D01*
X111181380Y-63387344D01*
X111150408Y-63325146D01*
X111147165Y-63306959D01*
X111137142Y-63291362D01*
X111126691Y-63271090D01*
X111117624Y-63259305D01*
X111090473Y-63204779D01*
X111090470Y-63204775D01*
X111090469Y-63204773D01*
X111047256Y-63147549D01*
X111040256Y-63129020D01*
X111025597Y-63113647D01*
X111018944Y-63105188D01*
X111013116Y-63100557D01*
X111009099Y-63096344D01*
X111004492Y-63090922D01*
X110989073Y-63070503D01*
X110967566Y-63042022D01*
X110967564Y-63042020D01*
X110912855Y-62992147D01*
X110901901Y-62974119D01*
X110882423Y-62960249D01*
X110877169Y-62955696D01*
X110872865Y-62953442D01*
X110864632Y-62947578D01*
X110858824Y-62942891D01*
X110844566Y-62929893D01*
X110816841Y-62904619D01*
X110816834Y-62904615D01*
X110816832Y-62904613D01*
X110751829Y-62864365D01*
X110736913Y-62847724D01*
X110712829Y-62836726D01*
X110710333Y-62835285D01*
X110708386Y-62834697D01*
X110694904Y-62828540D01*
X110688014Y-62824853D01*
X110655850Y-62804938D01*
X110643437Y-62797252D01*
X110597082Y-62779294D01*
X110569793Y-62768722D01*
X110551120Y-62754372D01*
X110511064Y-62744655D01*
X110509016Y-62744158D01*
X110505955Y-62743415D01*
X110498170Y-62740975D01*
X110467445Y-62729073D01*
X110453256Y-62723576D01*
X110453247Y-62723574D01*
X110453246Y-62723574D01*
X110373084Y-62708588D01*
X110351047Y-62697383D01*
X110304441Y-62695163D01*
X110295991Y-62694177D01*
X110252780Y-62686100D01*
X110252776Y-62686100D01*
X110115634Y-62686100D01*
X110112684Y-62686030D01*
X110098340Y-62685346D01*
X110092449Y-62685628D01*
X110092443Y-62685513D01*
X110084237Y-62686100D01*
X110048824Y-62686100D01*
X110005616Y-62694177D01*
X109901291Y-62713678D01*
X109890872Y-62715176D01*
X109884393Y-62716748D01*
X109881173Y-62717439D01*
X109848348Y-62723575D01*
X109848338Y-62723577D01*
X109695296Y-62782866D01*
X109692715Y-62783759D01*
X109689611Y-62785068D01*
X109658163Y-62797251D01*
X109658161Y-62797252D01*
X109484757Y-62904620D01*
X109334037Y-63042018D01*
X109211127Y-63204778D01*
X109120222Y-63387339D01*
X109120217Y-63387352D01*
X109064402Y-63583517D01*
X109045585Y-63786599D01*
X109045585Y-63786600D01*
X106000500Y-63786600D01*
X106000500Y-62002705D01*
X106000736Y-61997299D01*
X106004476Y-61954554D01*
X106016918Y-61828223D01*
X106020542Y-61808309D01*
X106038402Y-61741653D01*
X106066683Y-61648424D01*
X106072953Y-61632037D01*
X106104420Y-61564558D01*
X106105872Y-61561653D01*
X106150764Y-61477666D01*
X106154657Y-61471331D01*
X106187837Y-61423945D01*
X106200994Y-61405155D01*
X106203827Y-61401420D01*
X106263122Y-61329168D01*
X106267162Y-61324710D01*
X106324710Y-61267162D01*
X106329168Y-61263122D01*
X106401420Y-61203827D01*
X106405155Y-61200994D01*
X106471334Y-61154654D01*
X106477666Y-61150764D01*
X106561653Y-61105872D01*
X106564558Y-61104420D01*
X106632037Y-61072953D01*
X106648424Y-61066683D01*
X106741653Y-61038402D01*
X106808309Y-61020542D01*
X106828223Y-61016918D01*
X106954542Y-61004477D01*
X106997305Y-61000735D01*
X107002706Y-61000500D01*
X179997293Y-61000500D01*
X180002695Y-61000735D01*
G37*
%TD.AperFunction*%
%TA.AperFunction,Conductor*%
G36*
X176491812Y-74945185D02*
G01*
X176526348Y-74978377D01*
X176661501Y-75171396D01*
X176661506Y-75171402D01*
X176828597Y-75338493D01*
X176828603Y-75338498D01*
X177014158Y-75468425D01*
X177057783Y-75523002D01*
X177064977Y-75592500D01*
X177033454Y-75654855D01*
X177014158Y-75671575D01*
X176828597Y-75801505D01*
X176661505Y-75968597D01*
X176526348Y-76161623D01*
X176471771Y-76205248D01*
X176424773Y-76214500D01*
X172350453Y-76214500D01*
X172283414Y-76194815D01*
X172262772Y-76178181D01*
X171221772Y-75137181D01*
X171188287Y-75075858D01*
X171193271Y-75006166D01*
X171235143Y-74950233D01*
X171300607Y-74925816D01*
X171309453Y-74925500D01*
X176424773Y-74925500D01*
X176491812Y-74945185D01*
G37*
%TD.AperFunction*%
%TA.AperFunction,Conductor*%
G36*
X176491812Y-72405185D02*
G01*
X176526348Y-72438377D01*
X176661501Y-72631396D01*
X176661506Y-72631402D01*
X176828597Y-72798493D01*
X176828603Y-72798498D01*
X177014158Y-72928425D01*
X177057783Y-72983002D01*
X177064977Y-73052500D01*
X177033454Y-73114855D01*
X177014158Y-73131575D01*
X176828597Y-73261505D01*
X176661505Y-73428597D01*
X176526348Y-73621623D01*
X176471771Y-73665248D01*
X176424773Y-73674500D01*
X171510453Y-73674500D01*
X171443414Y-73654815D01*
X171422772Y-73638181D01*
X170381772Y-72597181D01*
X170348287Y-72535858D01*
X170353271Y-72466166D01*
X170395143Y-72410233D01*
X170460607Y-72385816D01*
X170469453Y-72385500D01*
X176424773Y-72385500D01*
X176491812Y-72405185D01*
G37*
%TD.AperFunction*%
%TA.AperFunction,Conductor*%
G36*
X176491812Y-69865185D02*
G01*
X176526348Y-69898377D01*
X176661501Y-70091396D01*
X176661506Y-70091402D01*
X176828597Y-70258493D01*
X176828603Y-70258498D01*
X177014158Y-70388425D01*
X177057783Y-70443002D01*
X177064977Y-70512500D01*
X177033454Y-70574855D01*
X177014158Y-70591575D01*
X176828597Y-70721505D01*
X176661505Y-70888597D01*
X176526348Y-71081623D01*
X176471771Y-71125248D01*
X176424773Y-71134500D01*
X170070452Y-71134500D01*
X170003413Y-71114815D01*
X169982771Y-71098181D01*
X168941771Y-70057181D01*
X168908286Y-69995858D01*
X168913270Y-69926166D01*
X168955142Y-69870233D01*
X169020606Y-69845816D01*
X169029452Y-69845500D01*
X176424773Y-69845500D01*
X176491812Y-69865185D01*
G37*
%TD.AperFunction*%
%TA.AperFunction,Conductor*%
G36*
X127797550Y-67545185D02*
G01*
X127843305Y-67597989D01*
X127853249Y-67667147D01*
X127824224Y-67730703D01*
X127818192Y-67737181D01*
X126417228Y-69138143D01*
X126355905Y-69171628D01*
X126289284Y-69167743D01*
X126209616Y-69140393D01*
X125964335Y-69099464D01*
X125715665Y-69099464D01*
X125470383Y-69140393D01*
X125235197Y-69221133D01*
X125235188Y-69221136D01*
X125016493Y-69339488D01*
X124820257Y-69492225D01*
X124661230Y-69664974D01*
X124601342Y-69700965D01*
X124531504Y-69698864D01*
X124478770Y-69664974D01*
X124441184Y-69624145D01*
X124319744Y-69492226D01*
X124262739Y-69447857D01*
X124190224Y-69391416D01*
X124149411Y-69334706D01*
X124145737Y-69264933D01*
X124178704Y-69205884D01*
X125822771Y-67561819D01*
X125884095Y-67528334D01*
X125910453Y-67525500D01*
X127730511Y-67525500D01*
X127797550Y-67545185D01*
G37*
%TD.AperFunction*%
%TA.AperFunction,Conductor*%
G36*
X176491812Y-67325185D02*
G01*
X176526348Y-67358377D01*
X176661501Y-67551396D01*
X176661506Y-67551402D01*
X176828597Y-67718493D01*
X176828603Y-67718498D01*
X177014158Y-67848425D01*
X177057783Y-67903002D01*
X177064977Y-67972500D01*
X177033454Y-68034855D01*
X177014158Y-68051575D01*
X176828597Y-68181505D01*
X176661505Y-68348597D01*
X176526348Y-68541623D01*
X176471771Y-68585248D01*
X176424773Y-68594500D01*
X168630453Y-68594500D01*
X168563414Y-68574815D01*
X168542772Y-68558181D01*
X168171772Y-68187181D01*
X168138287Y-68125858D01*
X168143271Y-68056166D01*
X168185143Y-68000233D01*
X168250607Y-67975816D01*
X168259453Y-67975500D01*
X171067257Y-67975500D01*
X171082877Y-67977224D01*
X171082904Y-67976939D01*
X171090660Y-67977671D01*
X171090667Y-67977673D01*
X171159814Y-67975500D01*
X171189350Y-67975500D01*
X171196228Y-67974630D01*
X171202041Y-67974172D01*
X171248627Y-67972709D01*
X171267869Y-67967117D01*
X171286912Y-67963174D01*
X171306792Y-67960664D01*
X171350122Y-67943507D01*
X171355646Y-67941617D01*
X171359396Y-67940527D01*
X171400390Y-67928618D01*
X171417629Y-67918422D01*
X171435103Y-67909862D01*
X171453727Y-67902488D01*
X171453727Y-67902487D01*
X171453732Y-67902486D01*
X171491449Y-67875082D01*
X171496305Y-67871892D01*
X171536420Y-67848170D01*
X171550589Y-67833999D01*
X171565379Y-67821368D01*
X171581587Y-67809594D01*
X171611299Y-67773676D01*
X171615212Y-67769376D01*
X172042773Y-67341816D01*
X172104095Y-67308334D01*
X172130453Y-67305500D01*
X176424773Y-67305500D01*
X176491812Y-67325185D01*
G37*
%TD.AperFunction*%
%TD*%
M02*
