%TF.GenerationSoftware,KiCad,Pcbnew,7.0.6*%
%TF.CreationDate,2024-02-09T00:40:26+01:00*%
%TF.ProjectId,openDTU,6f70656e-4454-4552-9e6b-696361645f70,rev?*%
%TF.SameCoordinates,Original*%
%TF.FileFunction,Legend,Bot*%
%TF.FilePolarity,Positive*%
%FSLAX46Y46*%
G04 Gerber Fmt 4.6, Leading zero omitted, Abs format (unit mm)*
G04 Created by KiCad (PCBNEW 7.0.6) date 2024-02-09 00:40:26*
%MOMM*%
%LPD*%
G01*
G04 APERTURE LIST*
%ADD10C,0.100000*%
%ADD11C,0.300000*%
%ADD12C,0.150000*%
%ADD13C,0.120000*%
G04 APERTURE END LIST*
D10*
X120577068Y-104496228D02*
X120624687Y-104448609D01*
X120624687Y-104448609D02*
X120719925Y-104400990D01*
X120719925Y-104400990D02*
X120815163Y-104400990D01*
X120815163Y-104400990D02*
X120910401Y-104448609D01*
X120910401Y-104448609D02*
X120958020Y-104496228D01*
X120958020Y-104496228D02*
X121005639Y-104591466D01*
X121005639Y-104591466D02*
X121005639Y-104686704D01*
X121005639Y-104686704D02*
X120958020Y-104781942D01*
X120958020Y-104781942D02*
X120910401Y-104829561D01*
X120910401Y-104829561D02*
X120815163Y-104877180D01*
X120815163Y-104877180D02*
X120719925Y-104877180D01*
X120719925Y-104877180D02*
X120624687Y-104829561D01*
X120624687Y-104829561D02*
X120577068Y-104781942D01*
X120577068Y-104400990D02*
X120577068Y-104781942D01*
X120577068Y-104781942D02*
X120529449Y-104829561D01*
X120529449Y-104829561D02*
X120481830Y-104829561D01*
X120481830Y-104829561D02*
X120386591Y-104781942D01*
X120386591Y-104781942D02*
X120338972Y-104686704D01*
X120338972Y-104686704D02*
X120338972Y-104448609D01*
X120338972Y-104448609D02*
X120434211Y-104305752D01*
X120434211Y-104305752D02*
X120577068Y-104210514D01*
X120577068Y-104210514D02*
X120767544Y-104162895D01*
X120767544Y-104162895D02*
X120958020Y-104210514D01*
X120958020Y-104210514D02*
X121100877Y-104305752D01*
X121100877Y-104305752D02*
X121196115Y-104448609D01*
X121196115Y-104448609D02*
X121243734Y-104639085D01*
X121243734Y-104639085D02*
X121196115Y-104829561D01*
X121196115Y-104829561D02*
X121100877Y-104972419D01*
X121100877Y-104972419D02*
X120958020Y-105067657D01*
X120958020Y-105067657D02*
X120767544Y-105115276D01*
X120767544Y-105115276D02*
X120577068Y-105067657D01*
X120577068Y-105067657D02*
X120434211Y-104972419D01*
X119958020Y-104924800D02*
X119862782Y-104972419D01*
X119862782Y-104972419D02*
X119672306Y-104972419D01*
X119672306Y-104972419D02*
X119577068Y-104924800D01*
X119577068Y-104924800D02*
X119529449Y-104829561D01*
X119529449Y-104829561D02*
X119529449Y-104781942D01*
X119529449Y-104781942D02*
X119577068Y-104686704D01*
X119577068Y-104686704D02*
X119672306Y-104639085D01*
X119672306Y-104639085D02*
X119815163Y-104639085D01*
X119815163Y-104639085D02*
X119910401Y-104591466D01*
X119910401Y-104591466D02*
X119958020Y-104496228D01*
X119958020Y-104496228D02*
X119958020Y-104448609D01*
X119958020Y-104448609D02*
X119910401Y-104353371D01*
X119910401Y-104353371D02*
X119815163Y-104305752D01*
X119815163Y-104305752D02*
X119672306Y-104305752D01*
X119672306Y-104305752D02*
X119577068Y-104353371D01*
X118672306Y-104305752D02*
X118672306Y-104972419D01*
X119100877Y-104305752D02*
X119100877Y-104829561D01*
X119100877Y-104829561D02*
X119053258Y-104924800D01*
X119053258Y-104924800D02*
X118958020Y-104972419D01*
X118958020Y-104972419D02*
X118815163Y-104972419D01*
X118815163Y-104972419D02*
X118719925Y-104924800D01*
X118719925Y-104924800D02*
X118672306Y-104877180D01*
X118053258Y-104972419D02*
X118148496Y-104924800D01*
X118148496Y-104924800D02*
X118196115Y-104829561D01*
X118196115Y-104829561D02*
X118196115Y-103972419D01*
X117815162Y-104305752D02*
X117434210Y-104305752D01*
X117672305Y-104972419D02*
X117672305Y-104115276D01*
X117672305Y-104115276D02*
X117624686Y-104020038D01*
X117624686Y-104020038D02*
X117529448Y-103972419D01*
X117529448Y-103972419D02*
X117434210Y-103972419D01*
X116672305Y-104305752D02*
X116672305Y-104972419D01*
X117100876Y-104305752D02*
X117100876Y-104829561D01*
X117100876Y-104829561D02*
X117053257Y-104924800D01*
X117053257Y-104924800D02*
X116958019Y-104972419D01*
X116958019Y-104972419D02*
X116815162Y-104972419D01*
X116815162Y-104972419D02*
X116719924Y-104924800D01*
X116719924Y-104924800D02*
X116672305Y-104877180D01*
X116196114Y-104972419D02*
X116196114Y-104305752D01*
X116196114Y-104496228D02*
X116148495Y-104400990D01*
X116148495Y-104400990D02*
X116100876Y-104353371D01*
X116100876Y-104353371D02*
X116005638Y-104305752D01*
X116005638Y-104305752D02*
X115910400Y-104305752D01*
X115434209Y-104972419D02*
X115529447Y-104924800D01*
X115529447Y-104924800D02*
X115577066Y-104877180D01*
X115577066Y-104877180D02*
X115624685Y-104781942D01*
X115624685Y-104781942D02*
X115624685Y-104496228D01*
X115624685Y-104496228D02*
X115577066Y-104400990D01*
X115577066Y-104400990D02*
X115529447Y-104353371D01*
X115529447Y-104353371D02*
X115434209Y-104305752D01*
X115434209Y-104305752D02*
X115291352Y-104305752D01*
X115291352Y-104305752D02*
X115196114Y-104353371D01*
X115196114Y-104353371D02*
X115148495Y-104400990D01*
X115148495Y-104400990D02*
X115100876Y-104496228D01*
X115100876Y-104496228D02*
X115100876Y-104781942D01*
X115100876Y-104781942D02*
X115148495Y-104877180D01*
X115148495Y-104877180D02*
X115196114Y-104924800D01*
X115196114Y-104924800D02*
X115291352Y-104972419D01*
X115291352Y-104972419D02*
X115434209Y-104972419D01*
X114672304Y-104972419D02*
X114672304Y-104305752D01*
X114672304Y-103972419D02*
X114719923Y-104020038D01*
X114719923Y-104020038D02*
X114672304Y-104067657D01*
X114672304Y-104067657D02*
X114624685Y-104020038D01*
X114624685Y-104020038D02*
X114672304Y-103972419D01*
X114672304Y-103972419D02*
X114672304Y-104067657D01*
X113767543Y-104972419D02*
X113767543Y-103972419D01*
X113767543Y-104924800D02*
X113862781Y-104972419D01*
X113862781Y-104972419D02*
X114053257Y-104972419D01*
X114053257Y-104972419D02*
X114148495Y-104924800D01*
X114148495Y-104924800D02*
X114196114Y-104877180D01*
X114196114Y-104877180D02*
X114243733Y-104781942D01*
X114243733Y-104781942D02*
X114243733Y-104496228D01*
X114243733Y-104496228D02*
X114196114Y-104400990D01*
X114196114Y-104400990D02*
X114148495Y-104353371D01*
X114148495Y-104353371D02*
X114053257Y-104305752D01*
X114053257Y-104305752D02*
X113862781Y-104305752D01*
X113862781Y-104305752D02*
X113767543Y-104353371D01*
D11*
G36*
X144438348Y-103764961D02*
G01*
X144438348Y-104436694D01*
X144410081Y-104450828D01*
X144195186Y-104450828D01*
X144105773Y-104406122D01*
X144068769Y-104369118D01*
X144024062Y-104279703D01*
X144024062Y-103921952D01*
X144068769Y-103832538D01*
X144105773Y-103795534D01*
X144195186Y-103750828D01*
X144410081Y-103750828D01*
X144438348Y-103764961D01*
G37*
G36*
X128547972Y-103784060D02*
G01*
X128581204Y-103850523D01*
X128581203Y-103917857D01*
X128173974Y-103836411D01*
X128200150Y-103784060D01*
X128266614Y-103750828D01*
X128481509Y-103750828D01*
X128547972Y-103784060D01*
G37*
G36*
X131999494Y-103795535D02*
G01*
X132036498Y-103832539D01*
X132081204Y-103921951D01*
X132081204Y-104279704D01*
X132036497Y-104369117D01*
X131999492Y-104406122D01*
X131910080Y-104450828D01*
X131695186Y-104450828D01*
X131666919Y-104436694D01*
X131666919Y-103764961D01*
X131695186Y-103750828D01*
X131910080Y-103750828D01*
X131999494Y-103795535D01*
G37*
G36*
X133356637Y-103795535D02*
G01*
X133393641Y-103832539D01*
X133438347Y-103921951D01*
X133438347Y-104279704D01*
X133393640Y-104369117D01*
X133356635Y-104406122D01*
X133267223Y-104450828D01*
X133123757Y-104450828D01*
X133034344Y-104406122D01*
X132997340Y-104369118D01*
X132952633Y-104279703D01*
X132952633Y-103921952D01*
X132997340Y-103832538D01*
X133034344Y-103795534D01*
X133123757Y-103750828D01*
X133267223Y-103750828D01*
X133356637Y-103795535D01*
G37*
G36*
X140438348Y-104450828D02*
G01*
X140255548Y-104450828D01*
X140097945Y-104398294D01*
X139997340Y-104297688D01*
X139944159Y-104191328D01*
X139881205Y-103939507D01*
X139881205Y-103762148D01*
X139944159Y-103510327D01*
X139997340Y-103403967D01*
X140097946Y-103303361D01*
X140255548Y-103250828D01*
X140438348Y-103250828D01*
X140438348Y-104450828D01*
G37*
G36*
X143119401Y-103784060D02*
G01*
X143152633Y-103850523D01*
X143152633Y-103917857D01*
X142745403Y-103836411D01*
X142771579Y-103784060D01*
X142838043Y-103750828D01*
X143052938Y-103750828D01*
X143119401Y-103784060D01*
G37*
G36*
X145928066Y-103295535D02*
G01*
X146024332Y-103391801D01*
X146081205Y-103619291D01*
X146081205Y-104082364D01*
X146024332Y-104309854D01*
X145928066Y-104406121D01*
X145838653Y-104450828D01*
X145623758Y-104450828D01*
X145534345Y-104406121D01*
X145438078Y-104309854D01*
X145381205Y-104082362D01*
X145381205Y-103619293D01*
X145438078Y-103391801D01*
X145534345Y-103295534D01*
X145623758Y-103250828D01*
X145838652Y-103250828D01*
X145928066Y-103295535D01*
G37*
G36*
X155509775Y-103736542D02*
G01*
X155123756Y-103736542D01*
X155034342Y-103691835D01*
X154997337Y-103654830D01*
X154952632Y-103565418D01*
X154952632Y-103421951D01*
X154997337Y-103332540D01*
X155034342Y-103295535D01*
X155123756Y-103250828D01*
X155509775Y-103250828D01*
X155509775Y-103736542D01*
G37*
G36*
X158809775Y-105465114D02*
G01*
X127652633Y-105465114D01*
X127652633Y-103957971D01*
X127866919Y-103957971D01*
X127873253Y-103981613D01*
X127874829Y-104006038D01*
X127883137Y-104018501D01*
X127887015Y-104032971D01*
X127904321Y-104050277D01*
X127917899Y-104070644D01*
X127931327Y-104077283D01*
X127941919Y-104087875D01*
X127965561Y-104094209D01*
X127987502Y-104105058D01*
X128581204Y-104223798D01*
X128581204Y-104351132D01*
X128547972Y-104417596D01*
X128481509Y-104450828D01*
X128266614Y-104450828D01*
X128155429Y-104395236D01*
X128079359Y-104379669D01*
X128005698Y-104404223D01*
X127954183Y-104462318D01*
X127938616Y-104538388D01*
X127963170Y-104612049D01*
X128021265Y-104663564D01*
X128164123Y-104734992D01*
X128197898Y-104741903D01*
X128231204Y-104750828D01*
X128516919Y-104750828D01*
X128550222Y-104741904D01*
X128584001Y-104734992D01*
X128726858Y-104663564D01*
X128733722Y-104657476D01*
X128742425Y-104654576D01*
X128762408Y-104632040D01*
X128784953Y-104612049D01*
X128787854Y-104603343D01*
X128793940Y-104596481D01*
X128796261Y-104591840D01*
X129081473Y-104591840D01*
X129097040Y-104667910D01*
X129148555Y-104726005D01*
X129222216Y-104750559D01*
X129298286Y-104734992D01*
X129441143Y-104663564D01*
X129448005Y-104657478D01*
X129456710Y-104654577D01*
X129476697Y-104632036D01*
X129499238Y-104612049D01*
X129502139Y-104603344D01*
X129504370Y-104600828D01*
X130009776Y-104600828D01*
X130029872Y-104675828D01*
X130084776Y-104730732D01*
X130159776Y-104750828D01*
X130234776Y-104730732D01*
X130256003Y-104709504D01*
X130306980Y-104734992D01*
X130340755Y-104741903D01*
X130374061Y-104750828D01*
X130588347Y-104750828D01*
X130621650Y-104741904D01*
X130655429Y-104734992D01*
X130798286Y-104663564D01*
X130805148Y-104657478D01*
X130813853Y-104654577D01*
X130833840Y-104632036D01*
X130856381Y-104612049D01*
X130859282Y-104603344D01*
X130861513Y-104600828D01*
X131366919Y-104600828D01*
X131387015Y-104675828D01*
X131441919Y-104730732D01*
X131516919Y-104750828D01*
X131586876Y-104732083D01*
X131592695Y-104734992D01*
X131626470Y-104741903D01*
X131659776Y-104750828D01*
X131945490Y-104750828D01*
X131978793Y-104741904D01*
X132012572Y-104734992D01*
X132155429Y-104663564D01*
X132173498Y-104647540D01*
X132194413Y-104635466D01*
X132265842Y-104564037D01*
X132277916Y-104543122D01*
X132293940Y-104525053D01*
X132365368Y-104382195D01*
X132372279Y-104348419D01*
X132381204Y-104315114D01*
X132652633Y-104315114D01*
X132661556Y-104348415D01*
X132668469Y-104382196D01*
X132739898Y-104525053D01*
X132755920Y-104543121D01*
X132767995Y-104564036D01*
X132839423Y-104635465D01*
X132860338Y-104647540D01*
X132878408Y-104663564D01*
X133021266Y-104734992D01*
X133055041Y-104741903D01*
X133088347Y-104750828D01*
X133302633Y-104750828D01*
X133335936Y-104741904D01*
X133369715Y-104734992D01*
X133512572Y-104663564D01*
X133530641Y-104647540D01*
X133551556Y-104635466D01*
X133586194Y-104600828D01*
X134081205Y-104600828D01*
X134101301Y-104675828D01*
X134156205Y-104730732D01*
X134231205Y-104750828D01*
X134306205Y-104730732D01*
X134361109Y-104675828D01*
X134381205Y-104600828D01*
X134381205Y-103776961D01*
X134595278Y-104235690D01*
X134603785Y-104245822D01*
X134608307Y-104258257D01*
X134628362Y-104275095D01*
X134645205Y-104295156D01*
X134657641Y-104299678D01*
X134667772Y-104308184D01*
X134693556Y-104312738D01*
X134718176Y-104321691D01*
X134731207Y-104319389D01*
X134744234Y-104321690D01*
X134768842Y-104312741D01*
X134794638Y-104308185D01*
X134804772Y-104299675D01*
X134817205Y-104295155D01*
X134834042Y-104275100D01*
X134854103Y-104258258D01*
X134858625Y-104245821D01*
X134867132Y-104235690D01*
X135081205Y-103776962D01*
X135081205Y-104600828D01*
X135101301Y-104675828D01*
X135156205Y-104730732D01*
X135231205Y-104750828D01*
X135306205Y-104730732D01*
X135361109Y-104675828D01*
X135381205Y-104600828D01*
X135381205Y-104315114D01*
X136938348Y-104315114D01*
X136947271Y-104348417D01*
X136954184Y-104382196D01*
X137025612Y-104525053D01*
X137041635Y-104543122D01*
X137053710Y-104564037D01*
X137125139Y-104635466D01*
X137146053Y-104647540D01*
X137164123Y-104663564D01*
X137306981Y-104734992D01*
X137340756Y-104741903D01*
X137374062Y-104750828D01*
X137659776Y-104750828D01*
X137693081Y-104741903D01*
X137726857Y-104734992D01*
X137869716Y-104663564D01*
X137887785Y-104647540D01*
X137908701Y-104635465D01*
X137980129Y-104564036D01*
X137992203Y-104543121D01*
X138008226Y-104525053D01*
X138079655Y-104382197D01*
X138086568Y-104348414D01*
X138095491Y-104315114D01*
X138095491Y-103100828D01*
X138295491Y-103100828D01*
X138315587Y-103175828D01*
X138370491Y-103230732D01*
X138445491Y-103250828D01*
X138724062Y-103250828D01*
X138724062Y-104600828D01*
X138744158Y-104675828D01*
X138799062Y-104730732D01*
X138874062Y-104750828D01*
X138949062Y-104730732D01*
X139003966Y-104675828D01*
X139024062Y-104600828D01*
X139024062Y-103957971D01*
X139581205Y-103957971D01*
X139585995Y-103975848D01*
X139585684Y-103994351D01*
X139657112Y-104280065D01*
X139665148Y-104294542D01*
X139668469Y-104310767D01*
X139739898Y-104453624D01*
X139755920Y-104471693D01*
X139767996Y-104492608D01*
X139910853Y-104635466D01*
X139940712Y-104652705D01*
X139969485Y-104671703D01*
X140183771Y-104743131D01*
X140207879Y-104744578D01*
X140231205Y-104750828D01*
X140588348Y-104750828D01*
X140663348Y-104730732D01*
X140718252Y-104675828D01*
X140738348Y-104600828D01*
X141152634Y-104600828D01*
X141172730Y-104675828D01*
X141227634Y-104730732D01*
X141302634Y-104750828D01*
X141377634Y-104730732D01*
X141432538Y-104675828D01*
X141452634Y-104600828D01*
X141452634Y-103850523D01*
X141485865Y-103784060D01*
X141552329Y-103750828D01*
X141695795Y-103750828D01*
X141785209Y-103795535D01*
X141795491Y-103805817D01*
X141795491Y-104600828D01*
X141815587Y-104675828D01*
X141870491Y-104730732D01*
X141945491Y-104750828D01*
X142020491Y-104730732D01*
X142075395Y-104675828D01*
X142095491Y-104600828D01*
X142095491Y-103957971D01*
X142438348Y-103957971D01*
X142444682Y-103981613D01*
X142446258Y-104006038D01*
X142454566Y-104018501D01*
X142458444Y-104032971D01*
X142475750Y-104050277D01*
X142489328Y-104070644D01*
X142502756Y-104077283D01*
X142513348Y-104087875D01*
X142536990Y-104094209D01*
X142558931Y-104105058D01*
X143152633Y-104223798D01*
X143152633Y-104351132D01*
X143119401Y-104417596D01*
X143052938Y-104450828D01*
X142838043Y-104450828D01*
X142726858Y-104395236D01*
X142650788Y-104379669D01*
X142577127Y-104404223D01*
X142525612Y-104462318D01*
X142510045Y-104538388D01*
X142534599Y-104612049D01*
X142592694Y-104663564D01*
X142735552Y-104734992D01*
X142769327Y-104741903D01*
X142802633Y-104750828D01*
X143088348Y-104750828D01*
X143121651Y-104741904D01*
X143155430Y-104734992D01*
X143298287Y-104663564D01*
X143305151Y-104657476D01*
X143313854Y-104654576D01*
X143333837Y-104632040D01*
X143356382Y-104612049D01*
X143359283Y-104603343D01*
X143365369Y-104596481D01*
X143436798Y-104453623D01*
X143443711Y-104419838D01*
X143452633Y-104386542D01*
X143452633Y-104315114D01*
X143724062Y-104315114D01*
X143732985Y-104348415D01*
X143739898Y-104382196D01*
X143811327Y-104525053D01*
X143827349Y-104543121D01*
X143839424Y-104564036D01*
X143910852Y-104635465D01*
X143931767Y-104647540D01*
X143949837Y-104663564D01*
X144092695Y-104734992D01*
X144126470Y-104741903D01*
X144159776Y-104750828D01*
X144438348Y-104750828D01*
X144438348Y-105100828D01*
X144458444Y-105175828D01*
X144513348Y-105230732D01*
X144588348Y-105250828D01*
X144663348Y-105230732D01*
X144718252Y-105175828D01*
X144738348Y-105100828D01*
X144738348Y-104100828D01*
X145081205Y-104100828D01*
X145085995Y-104118704D01*
X145085684Y-104137209D01*
X145157113Y-104422922D01*
X145157745Y-104424060D01*
X145157745Y-104425364D01*
X145176549Y-104457934D01*
X145194799Y-104490809D01*
X145195916Y-104491479D01*
X145196568Y-104492608D01*
X145339425Y-104635466D01*
X145360339Y-104647541D01*
X145378409Y-104663564D01*
X145521267Y-104734992D01*
X145555042Y-104741903D01*
X145588348Y-104750828D01*
X145874062Y-104750828D01*
X145907367Y-104741903D01*
X145941143Y-104734992D01*
X146084002Y-104663564D01*
X146102071Y-104647540D01*
X146122986Y-104635466D01*
X146265843Y-104492608D01*
X146266494Y-104491479D01*
X146267612Y-104490809D01*
X146285861Y-104457934D01*
X146304666Y-104425364D01*
X146304666Y-104424060D01*
X146305298Y-104422922D01*
X146332250Y-104315114D01*
X147795490Y-104315114D01*
X147804413Y-104348415D01*
X147811326Y-104382196D01*
X147882755Y-104525053D01*
X147898777Y-104543121D01*
X147910853Y-104564037D01*
X147982282Y-104635466D01*
X148003196Y-104647540D01*
X148021266Y-104663564D01*
X148164124Y-104734992D01*
X148197899Y-104741903D01*
X148231205Y-104750828D01*
X148659776Y-104750828D01*
X148693079Y-104741904D01*
X148726858Y-104734992D01*
X148869715Y-104663564D01*
X148887784Y-104647540D01*
X148908699Y-104635466D01*
X148980128Y-104564037D01*
X149018951Y-104496794D01*
X149018951Y-104419148D01*
X148980128Y-104351905D01*
X148916405Y-104315114D01*
X149224061Y-104315114D01*
X149232984Y-104348415D01*
X149239897Y-104382196D01*
X149311326Y-104525053D01*
X149327348Y-104543121D01*
X149339424Y-104564037D01*
X149410853Y-104635466D01*
X149431767Y-104647540D01*
X149449837Y-104663564D01*
X149592695Y-104734992D01*
X149626470Y-104741903D01*
X149659776Y-104750828D01*
X150016919Y-104750828D01*
X150040244Y-104744578D01*
X150064353Y-104743131D01*
X150278638Y-104671703D01*
X150343434Y-104628921D01*
X150357481Y-104600828D01*
X151795489Y-104600828D01*
X151815585Y-104675828D01*
X151870489Y-104730732D01*
X151945489Y-104750828D01*
X152874061Y-104750828D01*
X152893136Y-104745717D01*
X152912884Y-104745717D01*
X152929986Y-104735843D01*
X152949061Y-104730732D01*
X152963025Y-104716767D01*
X152980127Y-104706894D01*
X152990000Y-104689792D01*
X153003965Y-104675828D01*
X153009076Y-104656753D01*
X153018950Y-104639651D01*
X153018950Y-104619902D01*
X153024061Y-104600828D01*
X153018950Y-104581753D01*
X153018950Y-104562005D01*
X153009076Y-104544902D01*
X153003965Y-104525828D01*
X152990000Y-104511863D01*
X152980127Y-104494762D01*
X152800479Y-104315114D01*
X153224060Y-104315114D01*
X153232983Y-104348415D01*
X153239896Y-104382196D01*
X153311325Y-104525053D01*
X153327347Y-104543121D01*
X153339423Y-104564037D01*
X153410852Y-104635466D01*
X153431766Y-104647540D01*
X153449836Y-104663564D01*
X153592694Y-104734992D01*
X153626469Y-104741903D01*
X153659775Y-104750828D01*
X154088346Y-104750828D01*
X154121649Y-104741904D01*
X154155428Y-104734992D01*
X154298285Y-104663564D01*
X154316354Y-104647540D01*
X154337269Y-104635466D01*
X154408698Y-104564037D01*
X154447521Y-104496794D01*
X154447521Y-104419148D01*
X154408698Y-104351905D01*
X154341455Y-104313082D01*
X154263809Y-104313082D01*
X154196566Y-104351905D01*
X154142348Y-104406122D01*
X154052936Y-104450828D01*
X153695185Y-104450828D01*
X153605771Y-104406121D01*
X153568767Y-104369117D01*
X153524060Y-104279703D01*
X153524060Y-103993381D01*
X153568767Y-103903967D01*
X153605771Y-103866963D01*
X153695185Y-103822257D01*
X153874060Y-103822257D01*
X153888374Y-103818421D01*
X153903159Y-103819407D01*
X153925261Y-103808537D01*
X153949060Y-103802161D01*
X153959540Y-103791680D01*
X153972835Y-103785143D01*
X153986541Y-103764679D01*
X154003964Y-103747257D01*
X154007799Y-103732942D01*
X154016045Y-103720632D01*
X154017683Y-103696054D01*
X154024060Y-103672257D01*
X154020224Y-103657942D01*
X154021210Y-103643158D01*
X154010340Y-103621054D01*
X154004921Y-103600828D01*
X154652632Y-103600828D01*
X154661555Y-103634131D01*
X154668468Y-103667910D01*
X154739896Y-103810767D01*
X154755919Y-103828836D01*
X154767994Y-103849751D01*
X154839423Y-103921180D01*
X154860337Y-103933254D01*
X154878407Y-103949278D01*
X155021265Y-104020706D01*
X155055040Y-104027617D01*
X155088346Y-104036542D01*
X155509775Y-104036542D01*
X155509775Y-104600828D01*
X155529871Y-104675828D01*
X155584775Y-104730732D01*
X155659775Y-104750828D01*
X155734775Y-104730732D01*
X155789679Y-104675828D01*
X155809775Y-104600828D01*
X155809775Y-104315114D01*
X156152631Y-104315114D01*
X156161554Y-104348415D01*
X156168467Y-104382196D01*
X156239896Y-104525053D01*
X156255918Y-104543121D01*
X156267994Y-104564037D01*
X156339423Y-104635466D01*
X156360337Y-104647540D01*
X156378407Y-104663564D01*
X156521265Y-104734992D01*
X156555040Y-104741903D01*
X156588346Y-104750828D01*
X156945489Y-104750828D01*
X156968814Y-104744578D01*
X156992923Y-104743131D01*
X157207208Y-104671703D01*
X157272004Y-104628921D01*
X157286051Y-104600828D01*
X157581203Y-104600828D01*
X157601299Y-104675828D01*
X157656203Y-104730732D01*
X157731203Y-104750828D01*
X158445489Y-104750828D01*
X158520489Y-104730732D01*
X158575393Y-104675828D01*
X158595489Y-104600828D01*
X158595489Y-103100828D01*
X158575393Y-103025828D01*
X158520489Y-102970924D01*
X158445489Y-102950828D01*
X157731203Y-102950828D01*
X157656203Y-102970924D01*
X157601299Y-103025828D01*
X157581203Y-103100828D01*
X157601299Y-103175828D01*
X157656203Y-103230732D01*
X157731203Y-103250828D01*
X158295489Y-103250828D01*
X158295489Y-103665114D01*
X157945489Y-103665114D01*
X157870489Y-103685210D01*
X157815585Y-103740114D01*
X157795489Y-103815114D01*
X157815585Y-103890114D01*
X157870489Y-103945018D01*
X157945489Y-103965114D01*
X158295489Y-103965114D01*
X158295489Y-104450828D01*
X157731203Y-104450828D01*
X157656203Y-104470924D01*
X157601299Y-104525828D01*
X157581203Y-104600828D01*
X157286051Y-104600828D01*
X157306729Y-104559472D01*
X157302076Y-104481966D01*
X157259295Y-104417170D01*
X157189846Y-104382445D01*
X157112340Y-104387097D01*
X156921146Y-104450828D01*
X156623756Y-104450828D01*
X156534342Y-104406121D01*
X156497338Y-104369117D01*
X156452631Y-104279703D01*
X156452631Y-104207667D01*
X156497338Y-104118253D01*
X156534343Y-104081248D01*
X156640702Y-104028069D01*
X156910440Y-103960635D01*
X156924917Y-103952598D01*
X156941142Y-103949278D01*
X157083999Y-103877849D01*
X157102067Y-103861826D01*
X157122982Y-103849752D01*
X157194411Y-103778324D01*
X157206486Y-103757408D01*
X157222510Y-103739339D01*
X157293938Y-103596481D01*
X157300849Y-103562705D01*
X157309774Y-103529400D01*
X157309774Y-103386542D01*
X157300849Y-103353236D01*
X157293938Y-103319461D01*
X157222510Y-103176603D01*
X157206486Y-103158533D01*
X157194411Y-103137618D01*
X157122982Y-103066190D01*
X157102067Y-103054115D01*
X157083999Y-103038093D01*
X156941142Y-102966664D01*
X156907361Y-102959751D01*
X156874060Y-102950828D01*
X156516917Y-102950828D01*
X156493588Y-102957078D01*
X156469482Y-102958526D01*
X156255197Y-103029955D01*
X156190400Y-103072736D01*
X156155676Y-103142185D01*
X156160329Y-103219691D01*
X156203110Y-103284488D01*
X156272559Y-103319212D01*
X156350065Y-103314559D01*
X156541260Y-103250828D01*
X156838650Y-103250828D01*
X156928064Y-103295535D01*
X156965068Y-103332539D01*
X157009774Y-103421951D01*
X157009774Y-103493990D01*
X156965068Y-103583402D01*
X156928064Y-103620406D01*
X156821703Y-103673587D01*
X156551966Y-103741021D01*
X156537489Y-103749057D01*
X156521263Y-103752378D01*
X156378407Y-103823807D01*
X156360338Y-103839829D01*
X156339423Y-103851905D01*
X156267994Y-103923334D01*
X156255918Y-103944249D01*
X156239896Y-103962318D01*
X156168467Y-104105175D01*
X156161554Y-104138955D01*
X156152631Y-104172257D01*
X156152631Y-104315114D01*
X155809775Y-104315114D01*
X155809775Y-103100828D01*
X155789679Y-103025828D01*
X155734775Y-102970924D01*
X155659775Y-102950828D01*
X155088346Y-102950828D01*
X155055045Y-102959750D01*
X155021263Y-102966664D01*
X154878407Y-103038093D01*
X154860338Y-103054115D01*
X154839424Y-103066190D01*
X154767995Y-103137618D01*
X154755919Y-103158533D01*
X154739896Y-103176603D01*
X154668468Y-103319460D01*
X154661555Y-103353238D01*
X154652632Y-103386542D01*
X154652632Y-103600828D01*
X154004921Y-103600828D01*
X154003964Y-103597257D01*
X153993484Y-103586777D01*
X153986946Y-103573481D01*
X153704625Y-103250828D01*
X154302632Y-103250828D01*
X154377632Y-103230732D01*
X154432536Y-103175828D01*
X154452632Y-103100828D01*
X154432536Y-103025828D01*
X154377632Y-102970924D01*
X154302632Y-102950828D01*
X153374060Y-102950828D01*
X153359748Y-102954662D01*
X153344961Y-102953677D01*
X153322852Y-102964548D01*
X153299060Y-102970924D01*
X153288582Y-102981401D01*
X153275284Y-102987941D01*
X153261573Y-103008410D01*
X153244156Y-103025828D01*
X153240321Y-103040140D01*
X153232074Y-103052453D01*
X153230435Y-103077035D01*
X153224060Y-103100828D01*
X153227894Y-103115139D01*
X153226909Y-103129927D01*
X153237780Y-103152035D01*
X153244156Y-103175828D01*
X153254633Y-103186305D01*
X153261173Y-103199604D01*
X153568107Y-103550386D01*
X153449836Y-103609521D01*
X153431766Y-103625544D01*
X153410852Y-103637619D01*
X153339423Y-103709048D01*
X153327347Y-103729963D01*
X153311325Y-103748032D01*
X153239896Y-103890889D01*
X153232983Y-103924669D01*
X153224060Y-103957971D01*
X153224060Y-104315114D01*
X152800479Y-104315114D01*
X152148022Y-103662657D01*
X152095489Y-103505058D01*
X152095489Y-103421952D01*
X152140196Y-103332538D01*
X152177200Y-103295535D01*
X152266614Y-103250828D01*
X152552937Y-103250828D01*
X152642350Y-103295535D01*
X152696566Y-103349751D01*
X152763809Y-103388574D01*
X152841455Y-103388574D01*
X152908698Y-103349751D01*
X152947521Y-103282508D01*
X152947521Y-103204862D01*
X152908698Y-103137619D01*
X152837270Y-103066191D01*
X152816354Y-103054115D01*
X152798286Y-103038093D01*
X152655429Y-102966664D01*
X152621648Y-102959751D01*
X152588347Y-102950828D01*
X152231204Y-102950828D01*
X152197903Y-102959750D01*
X152164121Y-102966664D01*
X152021265Y-103038093D01*
X152003196Y-103054115D01*
X151982282Y-103066190D01*
X151910853Y-103137618D01*
X151898776Y-103158534D01*
X151882754Y-103176603D01*
X151811325Y-103319460D01*
X151804412Y-103353240D01*
X151795489Y-103386542D01*
X151795489Y-103529400D01*
X151801739Y-103552728D01*
X151803187Y-103576835D01*
X151874616Y-103791119D01*
X151893607Y-103819882D01*
X151910852Y-103849751D01*
X152511929Y-104450828D01*
X151945489Y-104450828D01*
X151870489Y-104470924D01*
X151815585Y-104525828D01*
X151795489Y-104600828D01*
X150357481Y-104600828D01*
X150378159Y-104559472D01*
X150373506Y-104481966D01*
X150330725Y-104417170D01*
X150261276Y-104382445D01*
X150183770Y-104387097D01*
X149992576Y-104450828D01*
X149695186Y-104450828D01*
X149605772Y-104406121D01*
X149568768Y-104369117D01*
X149524061Y-104279703D01*
X149524061Y-104207667D01*
X149568768Y-104118253D01*
X149605773Y-104081248D01*
X149712132Y-104028069D01*
X149981870Y-103960635D01*
X149996347Y-103952598D01*
X150012572Y-103949278D01*
X150155429Y-103877849D01*
X150173497Y-103861826D01*
X150194412Y-103849752D01*
X150265841Y-103778324D01*
X150277916Y-103757408D01*
X150293940Y-103739339D01*
X150365368Y-103596481D01*
X150372279Y-103562705D01*
X150381204Y-103529400D01*
X150381204Y-103386542D01*
X150372279Y-103353236D01*
X150365368Y-103319461D01*
X150293940Y-103176603D01*
X150277916Y-103158533D01*
X150265841Y-103137618D01*
X150194412Y-103066190D01*
X150173497Y-103054115D01*
X150155429Y-103038093D01*
X150012572Y-102966664D01*
X149978791Y-102959751D01*
X149945490Y-102950828D01*
X149588347Y-102950828D01*
X149565018Y-102957078D01*
X149540912Y-102958526D01*
X149326627Y-103029955D01*
X149261830Y-103072736D01*
X149227106Y-103142185D01*
X149231759Y-103219691D01*
X149274540Y-103284488D01*
X149343989Y-103319212D01*
X149421495Y-103314559D01*
X149612690Y-103250828D01*
X149910080Y-103250828D01*
X149999494Y-103295535D01*
X150036498Y-103332539D01*
X150081204Y-103421951D01*
X150081204Y-103493990D01*
X150036498Y-103583402D01*
X149999494Y-103620406D01*
X149893133Y-103673587D01*
X149623396Y-103741021D01*
X149608919Y-103749057D01*
X149592693Y-103752378D01*
X149449837Y-103823807D01*
X149431768Y-103839829D01*
X149410853Y-103851905D01*
X149339424Y-103923334D01*
X149327348Y-103944249D01*
X149311326Y-103962318D01*
X149239897Y-104105175D01*
X149232984Y-104138955D01*
X149224061Y-104172257D01*
X149224061Y-104315114D01*
X148916405Y-104315114D01*
X148912885Y-104313082D01*
X148835239Y-104313082D01*
X148767996Y-104351905D01*
X148713778Y-104406122D01*
X148624366Y-104450828D01*
X148266615Y-104450828D01*
X148177201Y-104406121D01*
X148140197Y-104369117D01*
X148095490Y-104279703D01*
X148095490Y-103993381D01*
X148140197Y-103903967D01*
X148177201Y-103866963D01*
X148266615Y-103822257D01*
X148445490Y-103822257D01*
X148459804Y-103818421D01*
X148474589Y-103819407D01*
X148496691Y-103808537D01*
X148520490Y-103802161D01*
X148530970Y-103791680D01*
X148544265Y-103785143D01*
X148557971Y-103764679D01*
X148575394Y-103747257D01*
X148579229Y-103732942D01*
X148587475Y-103720632D01*
X148589113Y-103696054D01*
X148595490Y-103672257D01*
X148591654Y-103657942D01*
X148592640Y-103643158D01*
X148581770Y-103621054D01*
X148575394Y-103597257D01*
X148564914Y-103586777D01*
X148558376Y-103573481D01*
X148276055Y-103250828D01*
X148874062Y-103250828D01*
X148949062Y-103230732D01*
X149003966Y-103175828D01*
X149024062Y-103100828D01*
X149003966Y-103025828D01*
X148949062Y-102970924D01*
X148874062Y-102950828D01*
X147945490Y-102950828D01*
X147931178Y-102954662D01*
X147916391Y-102953677D01*
X147894282Y-102964548D01*
X147870490Y-102970924D01*
X147860012Y-102981401D01*
X147846714Y-102987941D01*
X147833003Y-103008410D01*
X147815586Y-103025828D01*
X147811751Y-103040140D01*
X147803504Y-103052453D01*
X147801865Y-103077035D01*
X147795490Y-103100828D01*
X147799324Y-103115139D01*
X147798339Y-103129927D01*
X147809210Y-103152035D01*
X147815586Y-103175828D01*
X147826063Y-103186305D01*
X147832603Y-103199604D01*
X148139537Y-103550386D01*
X148021266Y-103609521D01*
X148003196Y-103625544D01*
X147982282Y-103637619D01*
X147910853Y-103709048D01*
X147898777Y-103729963D01*
X147882755Y-103748032D01*
X147811326Y-103890889D01*
X147804413Y-103924669D01*
X147795490Y-103957971D01*
X147795490Y-104315114D01*
X146332250Y-104315114D01*
X146376726Y-104137208D01*
X146376414Y-104118705D01*
X146381205Y-104100828D01*
X146381205Y-103600828D01*
X146376414Y-103582950D01*
X146376726Y-103564448D01*
X146305298Y-103278734D01*
X146304666Y-103277595D01*
X146304666Y-103276291D01*
X146285853Y-103243707D01*
X146267612Y-103210847D01*
X146266494Y-103210176D01*
X146265843Y-103209048D01*
X146122986Y-103066191D01*
X146102071Y-103054116D01*
X146084002Y-103038093D01*
X145941144Y-102966664D01*
X145907363Y-102959751D01*
X145874062Y-102950828D01*
X145588348Y-102950828D01*
X145555047Y-102959750D01*
X145521265Y-102966664D01*
X145378409Y-103038093D01*
X145360340Y-103054115D01*
X145339425Y-103066191D01*
X145196568Y-103209048D01*
X145195916Y-103210176D01*
X145194799Y-103210847D01*
X145176557Y-103243707D01*
X145157745Y-103276291D01*
X145157745Y-103277595D01*
X145157113Y-103278734D01*
X145085684Y-103564447D01*
X145085995Y-103582951D01*
X145081205Y-103600828D01*
X145081205Y-104100828D01*
X144738348Y-104100828D01*
X144738348Y-103600828D01*
X144718252Y-103525828D01*
X144663348Y-103470924D01*
X144588348Y-103450828D01*
X144518390Y-103469572D01*
X144512573Y-103466664D01*
X144478792Y-103459751D01*
X144445491Y-103450828D01*
X144159776Y-103450828D01*
X144126475Y-103459750D01*
X144092693Y-103466664D01*
X143949837Y-103538093D01*
X143931768Y-103554115D01*
X143910853Y-103566191D01*
X143839425Y-103637619D01*
X143827349Y-103658534D01*
X143811327Y-103676603D01*
X143739898Y-103819460D01*
X143732985Y-103853240D01*
X143724062Y-103886542D01*
X143724062Y-104315114D01*
X143452633Y-104315114D01*
X143452633Y-103815114D01*
X143443708Y-103781808D01*
X143436797Y-103748033D01*
X143365369Y-103605175D01*
X143359282Y-103598311D01*
X143356382Y-103589609D01*
X143333844Y-103569623D01*
X143313854Y-103547080D01*
X143305149Y-103544178D01*
X143298287Y-103538093D01*
X143155430Y-103466664D01*
X143121649Y-103459751D01*
X143088348Y-103450828D01*
X142802633Y-103450828D01*
X142769332Y-103459750D01*
X142735550Y-103466664D01*
X142592694Y-103538093D01*
X142585831Y-103544178D01*
X142577127Y-103547080D01*
X142557136Y-103569623D01*
X142534599Y-103589609D01*
X142531698Y-103598311D01*
X142525612Y-103605175D01*
X142454184Y-103748032D01*
X142447271Y-103781810D01*
X142438348Y-103815114D01*
X142438348Y-103957971D01*
X142095491Y-103957971D01*
X142095491Y-103600828D01*
X142075395Y-103525828D01*
X142020491Y-103470924D01*
X141945491Y-103450828D01*
X141870491Y-103470924D01*
X141849262Y-103492152D01*
X141798287Y-103466664D01*
X141764506Y-103459751D01*
X141731205Y-103450828D01*
X141516919Y-103450828D01*
X141483618Y-103459750D01*
X141449836Y-103466664D01*
X141306980Y-103538093D01*
X141300117Y-103544178D01*
X141291413Y-103547080D01*
X141271422Y-103569623D01*
X141248885Y-103589609D01*
X141245984Y-103598311D01*
X141239898Y-103605175D01*
X141168470Y-103748032D01*
X141161557Y-103781810D01*
X141152634Y-103815114D01*
X141152634Y-104600828D01*
X140738348Y-104600828D01*
X140738348Y-103100828D01*
X140718252Y-103025828D01*
X140663348Y-102970924D01*
X140588348Y-102950828D01*
X140231205Y-102950828D01*
X140207876Y-102957078D01*
X140183770Y-102958526D01*
X139969485Y-103029955D01*
X139940712Y-103048951D01*
X139910853Y-103066191D01*
X139767996Y-103209048D01*
X139755920Y-103229963D01*
X139739898Y-103248032D01*
X139668469Y-103390889D01*
X139665148Y-103407113D01*
X139657112Y-103421591D01*
X139585684Y-103707305D01*
X139585995Y-103725807D01*
X139581205Y-103743685D01*
X139581205Y-103957971D01*
X139024062Y-103957971D01*
X139024062Y-103250828D01*
X139302633Y-103250828D01*
X139377633Y-103230732D01*
X139432537Y-103175828D01*
X139452633Y-103100828D01*
X139432537Y-103025828D01*
X139377633Y-102970924D01*
X139302633Y-102950828D01*
X138445491Y-102950828D01*
X138370491Y-102970924D01*
X138315587Y-103025828D01*
X138295491Y-103100828D01*
X138095491Y-103100828D01*
X138075395Y-103025828D01*
X138020491Y-102970924D01*
X137945491Y-102950828D01*
X137870491Y-102970924D01*
X137815587Y-103025828D01*
X137795491Y-103100828D01*
X137795491Y-104279703D01*
X137750783Y-104369117D01*
X137713780Y-104406121D01*
X137624367Y-104450828D01*
X137409472Y-104450828D01*
X137320058Y-104406121D01*
X137283053Y-104369116D01*
X137238348Y-104279704D01*
X137238348Y-103100828D01*
X137218252Y-103025828D01*
X137163348Y-102970924D01*
X137088348Y-102950828D01*
X137013348Y-102970924D01*
X136958444Y-103025828D01*
X136938348Y-103100828D01*
X136938348Y-104315114D01*
X135381205Y-104315114D01*
X135381205Y-103100828D01*
X135379476Y-103094375D01*
X135380638Y-103087798D01*
X135369525Y-103057237D01*
X135361109Y-103025828D01*
X135356385Y-103021104D01*
X135354103Y-103014827D01*
X135329196Y-102993915D01*
X135306205Y-102970924D01*
X135299754Y-102969195D01*
X135294638Y-102964900D01*
X135262607Y-102959242D01*
X135231205Y-102950828D01*
X135224755Y-102952556D01*
X135218176Y-102951394D01*
X135187608Y-102962509D01*
X135156205Y-102970924D01*
X135151482Y-102975646D01*
X135145205Y-102977929D01*
X135124295Y-103002833D01*
X135101301Y-103025828D01*
X135099572Y-103032280D01*
X135095278Y-103037395D01*
X134731205Y-103817551D01*
X134367132Y-103037395D01*
X134362837Y-103032280D01*
X134361109Y-103025828D01*
X134338111Y-103002830D01*
X134317205Y-102977930D01*
X134310928Y-102975647D01*
X134306205Y-102970924D01*
X134274791Y-102962506D01*
X134244234Y-102951395D01*
X134237656Y-102952556D01*
X134231205Y-102950828D01*
X134199791Y-102959245D01*
X134167772Y-102964901D01*
X134162657Y-102969195D01*
X134156205Y-102970924D01*
X134133207Y-102993921D01*
X134108307Y-103014828D01*
X134106024Y-103021104D01*
X134101301Y-103025828D01*
X134092883Y-103057241D01*
X134081772Y-103087799D01*
X134082933Y-103094376D01*
X134081205Y-103100828D01*
X134081205Y-104600828D01*
X133586194Y-104600828D01*
X133622985Y-104564037D01*
X133635059Y-104543122D01*
X133651083Y-104525053D01*
X133722511Y-104382195D01*
X133729422Y-104348419D01*
X133738347Y-104315114D01*
X133738347Y-103886542D01*
X133729422Y-103853236D01*
X133722511Y-103819461D01*
X133651083Y-103676603D01*
X133635059Y-103658533D01*
X133622984Y-103637618D01*
X133551555Y-103566190D01*
X133530640Y-103554115D01*
X133512572Y-103538093D01*
X133369715Y-103466664D01*
X133335934Y-103459751D01*
X133302633Y-103450828D01*
X133088347Y-103450828D01*
X133055046Y-103459750D01*
X133021264Y-103466664D01*
X132878408Y-103538093D01*
X132860339Y-103554115D01*
X132839424Y-103566191D01*
X132767996Y-103637619D01*
X132755920Y-103658534D01*
X132739898Y-103676603D01*
X132668469Y-103819460D01*
X132661556Y-103853240D01*
X132652633Y-103886542D01*
X132652633Y-104315114D01*
X132381204Y-104315114D01*
X132381204Y-103886542D01*
X132372279Y-103853236D01*
X132365368Y-103819461D01*
X132293940Y-103676603D01*
X132277916Y-103658533D01*
X132265841Y-103637618D01*
X132194412Y-103566190D01*
X132173497Y-103554115D01*
X132155429Y-103538093D01*
X132012572Y-103466664D01*
X131978791Y-103459751D01*
X131945490Y-103450828D01*
X131666919Y-103450828D01*
X131666919Y-103100828D01*
X131646823Y-103025828D01*
X131591919Y-102970924D01*
X131516919Y-102950828D01*
X131441919Y-102970924D01*
X131387015Y-103025828D01*
X131366919Y-103100828D01*
X131366919Y-104600828D01*
X130861513Y-104600828D01*
X130865368Y-104596482D01*
X130936797Y-104453624D01*
X130943709Y-104419843D01*
X130952633Y-104386542D01*
X130952633Y-103600828D01*
X130932537Y-103525828D01*
X130877633Y-103470924D01*
X130802633Y-103450828D01*
X130727633Y-103470924D01*
X130672729Y-103525828D01*
X130652633Y-103600828D01*
X130652633Y-104351132D01*
X130619400Y-104417596D01*
X130552937Y-104450828D01*
X130409471Y-104450828D01*
X130320058Y-104406122D01*
X130309776Y-104395839D01*
X130309776Y-103600828D01*
X130289680Y-103525828D01*
X130234776Y-103470924D01*
X130159776Y-103450828D01*
X130084776Y-103470924D01*
X130029872Y-103525828D01*
X130009776Y-103600828D01*
X130009776Y-104600828D01*
X129504370Y-104600828D01*
X129508225Y-104596482D01*
X129579654Y-104453624D01*
X129586566Y-104419843D01*
X129595490Y-104386542D01*
X129595490Y-103100828D01*
X129575394Y-103025828D01*
X129520490Y-102970924D01*
X129445490Y-102950828D01*
X129370490Y-102970924D01*
X129315586Y-103025828D01*
X129295490Y-103100828D01*
X129295490Y-104351132D01*
X129262257Y-104417596D01*
X129164122Y-104466664D01*
X129106027Y-104518179D01*
X129081473Y-104591840D01*
X128796261Y-104591840D01*
X128865369Y-104453623D01*
X128872282Y-104419838D01*
X128881204Y-104386542D01*
X128881204Y-103815114D01*
X128872279Y-103781808D01*
X128865368Y-103748033D01*
X128793940Y-103605175D01*
X128787853Y-103598311D01*
X128784953Y-103589609D01*
X128762415Y-103569623D01*
X128742425Y-103547080D01*
X128733720Y-103544178D01*
X128726858Y-103538093D01*
X128584001Y-103466664D01*
X128550220Y-103459751D01*
X128516919Y-103450828D01*
X128231204Y-103450828D01*
X128197903Y-103459750D01*
X128164121Y-103466664D01*
X128021265Y-103538093D01*
X128014402Y-103544178D01*
X128005698Y-103547080D01*
X127985707Y-103569623D01*
X127963170Y-103589609D01*
X127960269Y-103598311D01*
X127954183Y-103605175D01*
X127882755Y-103748032D01*
X127875842Y-103781810D01*
X127866919Y-103815114D01*
X127866919Y-103957971D01*
X127652633Y-103957971D01*
X127652633Y-102736542D01*
X158809775Y-102736542D01*
X158809775Y-105465114D01*
G37*
D10*
X176257533Y-92700877D02*
X176290866Y-92767544D01*
X176290866Y-92767544D02*
X176290866Y-92867544D01*
X176290866Y-92867544D02*
X176257533Y-92967544D01*
X176257533Y-92967544D02*
X176190866Y-93034211D01*
X176190866Y-93034211D02*
X176124200Y-93067544D01*
X176124200Y-93067544D02*
X175990866Y-93100877D01*
X175990866Y-93100877D02*
X175890866Y-93100877D01*
X175890866Y-93100877D02*
X175757533Y-93067544D01*
X175757533Y-93067544D02*
X175690866Y-93034211D01*
X175690866Y-93034211D02*
X175624200Y-92967544D01*
X175624200Y-92967544D02*
X175590866Y-92867544D01*
X175590866Y-92867544D02*
X175590866Y-92800877D01*
X175590866Y-92800877D02*
X175624200Y-92700877D01*
X175624200Y-92700877D02*
X175657533Y-92667544D01*
X175657533Y-92667544D02*
X175890866Y-92667544D01*
X175890866Y-92667544D02*
X175890866Y-92800877D01*
X175590866Y-92367544D02*
X176290866Y-92367544D01*
X176290866Y-92367544D02*
X175590866Y-91967544D01*
X175590866Y-91967544D02*
X176290866Y-91967544D01*
X175590866Y-91634211D02*
X176290866Y-91634211D01*
X176290866Y-91634211D02*
X176290866Y-91467544D01*
X176290866Y-91467544D02*
X176257533Y-91367544D01*
X176257533Y-91367544D02*
X176190866Y-91300878D01*
X176190866Y-91300878D02*
X176124200Y-91267544D01*
X176124200Y-91267544D02*
X175990866Y-91234211D01*
X175990866Y-91234211D02*
X175890866Y-91234211D01*
X175890866Y-91234211D02*
X175757533Y-91267544D01*
X175757533Y-91267544D02*
X175690866Y-91300878D01*
X175690866Y-91300878D02*
X175624200Y-91367544D01*
X175624200Y-91367544D02*
X175590866Y-91467544D01*
X175590866Y-91467544D02*
X175590866Y-91634211D01*
X176042466Y-94032455D02*
X176042466Y-94565789D01*
X176309133Y-94299122D02*
X175775800Y-94299122D01*
X175609133Y-94832456D02*
X175609133Y-95265789D01*
X175609133Y-95265789D02*
X175875800Y-95032456D01*
X175875800Y-95032456D02*
X175875800Y-95132456D01*
X175875800Y-95132456D02*
X175909133Y-95199122D01*
X175909133Y-95199122D02*
X175942466Y-95232456D01*
X175942466Y-95232456D02*
X176009133Y-95265789D01*
X176009133Y-95265789D02*
X176175800Y-95265789D01*
X176175800Y-95265789D02*
X176242466Y-95232456D01*
X176242466Y-95232456D02*
X176275800Y-95199122D01*
X176275800Y-95199122D02*
X176309133Y-95132456D01*
X176309133Y-95132456D02*
X176309133Y-94932456D01*
X176309133Y-94932456D02*
X176275800Y-94865789D01*
X176275800Y-94865789D02*
X176242466Y-94832456D01*
X175842466Y-95499123D02*
X176309133Y-95665789D01*
X176309133Y-95665789D02*
X175842466Y-95832456D01*
X175834211Y-78909133D02*
X175400877Y-78909133D01*
X175400877Y-78909133D02*
X175634211Y-79175800D01*
X175634211Y-79175800D02*
X175534211Y-79175800D01*
X175534211Y-79175800D02*
X175467544Y-79209133D01*
X175467544Y-79209133D02*
X175434211Y-79242466D01*
X175434211Y-79242466D02*
X175400877Y-79309133D01*
X175400877Y-79309133D02*
X175400877Y-79475800D01*
X175400877Y-79475800D02*
X175434211Y-79542466D01*
X175434211Y-79542466D02*
X175467544Y-79575800D01*
X175467544Y-79575800D02*
X175534211Y-79609133D01*
X175534211Y-79609133D02*
X175734211Y-79609133D01*
X175734211Y-79609133D02*
X175800877Y-79575800D01*
X175800877Y-79575800D02*
X175834211Y-79542466D01*
X175067544Y-79609133D02*
X174934210Y-79609133D01*
X174934210Y-79609133D02*
X174867544Y-79575800D01*
X174867544Y-79575800D02*
X174834210Y-79542466D01*
X174834210Y-79542466D02*
X174767544Y-79442466D01*
X174767544Y-79442466D02*
X174734210Y-79309133D01*
X174734210Y-79309133D02*
X174734210Y-79042466D01*
X174734210Y-79042466D02*
X174767544Y-78975800D01*
X174767544Y-78975800D02*
X174800877Y-78942466D01*
X174800877Y-78942466D02*
X174867544Y-78909133D01*
X174867544Y-78909133D02*
X175000877Y-78909133D01*
X175000877Y-78909133D02*
X175067544Y-78942466D01*
X175067544Y-78942466D02*
X175100877Y-78975800D01*
X175100877Y-78975800D02*
X175134210Y-79042466D01*
X175134210Y-79042466D02*
X175134210Y-79209133D01*
X175134210Y-79209133D02*
X175100877Y-79275800D01*
X175100877Y-79275800D02*
X175067544Y-79309133D01*
X175067544Y-79309133D02*
X175000877Y-79342466D01*
X175000877Y-79342466D02*
X174867544Y-79342466D01*
X174867544Y-79342466D02*
X174800877Y-79309133D01*
X174800877Y-79309133D02*
X174767544Y-79275800D01*
X174767544Y-79275800D02*
X174734210Y-79209133D01*
X175834211Y-76309133D02*
X175400877Y-76309133D01*
X175400877Y-76309133D02*
X175634211Y-76575800D01*
X175634211Y-76575800D02*
X175534211Y-76575800D01*
X175534211Y-76575800D02*
X175467544Y-76609133D01*
X175467544Y-76609133D02*
X175434211Y-76642466D01*
X175434211Y-76642466D02*
X175400877Y-76709133D01*
X175400877Y-76709133D02*
X175400877Y-76875800D01*
X175400877Y-76875800D02*
X175434211Y-76942466D01*
X175434211Y-76942466D02*
X175467544Y-76975800D01*
X175467544Y-76975800D02*
X175534211Y-77009133D01*
X175534211Y-77009133D02*
X175734211Y-77009133D01*
X175734211Y-77009133D02*
X175800877Y-76975800D01*
X175800877Y-76975800D02*
X175834211Y-76942466D01*
X175000877Y-76609133D02*
X175067544Y-76575800D01*
X175067544Y-76575800D02*
X175100877Y-76542466D01*
X175100877Y-76542466D02*
X175134210Y-76475800D01*
X175134210Y-76475800D02*
X175134210Y-76442466D01*
X175134210Y-76442466D02*
X175100877Y-76375800D01*
X175100877Y-76375800D02*
X175067544Y-76342466D01*
X175067544Y-76342466D02*
X175000877Y-76309133D01*
X175000877Y-76309133D02*
X174867544Y-76309133D01*
X174867544Y-76309133D02*
X174800877Y-76342466D01*
X174800877Y-76342466D02*
X174767544Y-76375800D01*
X174767544Y-76375800D02*
X174734210Y-76442466D01*
X174734210Y-76442466D02*
X174734210Y-76475800D01*
X174734210Y-76475800D02*
X174767544Y-76542466D01*
X174767544Y-76542466D02*
X174800877Y-76575800D01*
X174800877Y-76575800D02*
X174867544Y-76609133D01*
X174867544Y-76609133D02*
X175000877Y-76609133D01*
X175000877Y-76609133D02*
X175067544Y-76642466D01*
X175067544Y-76642466D02*
X175100877Y-76675800D01*
X175100877Y-76675800D02*
X175134210Y-76742466D01*
X175134210Y-76742466D02*
X175134210Y-76875800D01*
X175134210Y-76875800D02*
X175100877Y-76942466D01*
X175100877Y-76942466D02*
X175067544Y-76975800D01*
X175067544Y-76975800D02*
X175000877Y-77009133D01*
X175000877Y-77009133D02*
X174867544Y-77009133D01*
X174867544Y-77009133D02*
X174800877Y-76975800D01*
X174800877Y-76975800D02*
X174767544Y-76942466D01*
X174767544Y-76942466D02*
X174734210Y-76875800D01*
X174734210Y-76875800D02*
X174734210Y-76742466D01*
X174734210Y-76742466D02*
X174767544Y-76675800D01*
X174767544Y-76675800D02*
X174800877Y-76642466D01*
X174800877Y-76642466D02*
X174867544Y-76609133D01*
X175467544Y-84242466D02*
X175467544Y-84709133D01*
X175634211Y-83975800D02*
X175800877Y-84475800D01*
X175800877Y-84475800D02*
X175367544Y-84475800D01*
X174734210Y-84709133D02*
X175134210Y-84709133D01*
X174934210Y-84709133D02*
X174934210Y-84009133D01*
X174934210Y-84009133D02*
X175000877Y-84109133D01*
X175000877Y-84109133D02*
X175067544Y-84175800D01*
X175067544Y-84175800D02*
X175134210Y-84209133D01*
X175467544Y-81642466D02*
X175467544Y-82109133D01*
X175634211Y-81375800D02*
X175800877Y-81875800D01*
X175800877Y-81875800D02*
X175367544Y-81875800D01*
X174967544Y-81409133D02*
X174900877Y-81409133D01*
X174900877Y-81409133D02*
X174834210Y-81442466D01*
X174834210Y-81442466D02*
X174800877Y-81475800D01*
X174800877Y-81475800D02*
X174767544Y-81542466D01*
X174767544Y-81542466D02*
X174734210Y-81675800D01*
X174734210Y-81675800D02*
X174734210Y-81842466D01*
X174734210Y-81842466D02*
X174767544Y-81975800D01*
X174767544Y-81975800D02*
X174800877Y-82042466D01*
X174800877Y-82042466D02*
X174834210Y-82075800D01*
X174834210Y-82075800D02*
X174900877Y-82109133D01*
X174900877Y-82109133D02*
X174967544Y-82109133D01*
X174967544Y-82109133D02*
X175034210Y-82075800D01*
X175034210Y-82075800D02*
X175067544Y-82042466D01*
X175067544Y-82042466D02*
X175100877Y-81975800D01*
X175100877Y-81975800D02*
X175134210Y-81842466D01*
X175134210Y-81842466D02*
X175134210Y-81675800D01*
X175134210Y-81675800D02*
X175100877Y-81542466D01*
X175100877Y-81542466D02*
X175067544Y-81475800D01*
X175067544Y-81475800D02*
X175034210Y-81442466D01*
X175034210Y-81442466D02*
X174967544Y-81409133D01*
X175567544Y-66542466D02*
X175567544Y-67009133D01*
X175734211Y-66275800D02*
X175900877Y-66775800D01*
X175900877Y-66775800D02*
X175467544Y-66775800D01*
X174867544Y-66309133D02*
X175200877Y-66309133D01*
X175200877Y-66309133D02*
X175234210Y-66642466D01*
X175234210Y-66642466D02*
X175200877Y-66609133D01*
X175200877Y-66609133D02*
X175134210Y-66575800D01*
X175134210Y-66575800D02*
X174967544Y-66575800D01*
X174967544Y-66575800D02*
X174900877Y-66609133D01*
X174900877Y-66609133D02*
X174867544Y-66642466D01*
X174867544Y-66642466D02*
X174834210Y-66709133D01*
X174834210Y-66709133D02*
X174834210Y-66875800D01*
X174834210Y-66875800D02*
X174867544Y-66942466D01*
X174867544Y-66942466D02*
X174900877Y-66975800D01*
X174900877Y-66975800D02*
X174967544Y-67009133D01*
X174967544Y-67009133D02*
X175134210Y-67009133D01*
X175134210Y-67009133D02*
X175200877Y-66975800D01*
X175200877Y-66975800D02*
X175234210Y-66942466D01*
X175834211Y-71209133D02*
X175400877Y-71209133D01*
X175400877Y-71209133D02*
X175634211Y-71475800D01*
X175634211Y-71475800D02*
X175534211Y-71475800D01*
X175534211Y-71475800D02*
X175467544Y-71509133D01*
X175467544Y-71509133D02*
X175434211Y-71542466D01*
X175434211Y-71542466D02*
X175400877Y-71609133D01*
X175400877Y-71609133D02*
X175400877Y-71775800D01*
X175400877Y-71775800D02*
X175434211Y-71842466D01*
X175434211Y-71842466D02*
X175467544Y-71875800D01*
X175467544Y-71875800D02*
X175534211Y-71909133D01*
X175534211Y-71909133D02*
X175734211Y-71909133D01*
X175734211Y-71909133D02*
X175800877Y-71875800D01*
X175800877Y-71875800D02*
X175834211Y-71842466D01*
X174800877Y-71209133D02*
X174934210Y-71209133D01*
X174934210Y-71209133D02*
X175000877Y-71242466D01*
X175000877Y-71242466D02*
X175034210Y-71275800D01*
X175034210Y-71275800D02*
X175100877Y-71375800D01*
X175100877Y-71375800D02*
X175134210Y-71509133D01*
X175134210Y-71509133D02*
X175134210Y-71775800D01*
X175134210Y-71775800D02*
X175100877Y-71842466D01*
X175100877Y-71842466D02*
X175067544Y-71875800D01*
X175067544Y-71875800D02*
X175000877Y-71909133D01*
X175000877Y-71909133D02*
X174867544Y-71909133D01*
X174867544Y-71909133D02*
X174800877Y-71875800D01*
X174800877Y-71875800D02*
X174767544Y-71842466D01*
X174767544Y-71842466D02*
X174734210Y-71775800D01*
X174734210Y-71775800D02*
X174734210Y-71609133D01*
X174734210Y-71609133D02*
X174767544Y-71542466D01*
X174767544Y-71542466D02*
X174800877Y-71509133D01*
X174800877Y-71509133D02*
X174867544Y-71475800D01*
X174867544Y-71475800D02*
X175000877Y-71475800D01*
X175000877Y-71475800D02*
X175067544Y-71509133D01*
X175067544Y-71509133D02*
X175100877Y-71542466D01*
X175100877Y-71542466D02*
X175134210Y-71609133D01*
X175834211Y-73709133D02*
X175400877Y-73709133D01*
X175400877Y-73709133D02*
X175634211Y-73975800D01*
X175634211Y-73975800D02*
X175534211Y-73975800D01*
X175534211Y-73975800D02*
X175467544Y-74009133D01*
X175467544Y-74009133D02*
X175434211Y-74042466D01*
X175434211Y-74042466D02*
X175400877Y-74109133D01*
X175400877Y-74109133D02*
X175400877Y-74275800D01*
X175400877Y-74275800D02*
X175434211Y-74342466D01*
X175434211Y-74342466D02*
X175467544Y-74375800D01*
X175467544Y-74375800D02*
X175534211Y-74409133D01*
X175534211Y-74409133D02*
X175734211Y-74409133D01*
X175734211Y-74409133D02*
X175800877Y-74375800D01*
X175800877Y-74375800D02*
X175834211Y-74342466D01*
X175167544Y-73709133D02*
X174700877Y-73709133D01*
X174700877Y-73709133D02*
X175000877Y-74409133D01*
X175567544Y-63842466D02*
X175567544Y-64309133D01*
X175734211Y-63575800D02*
X175900877Y-64075800D01*
X175900877Y-64075800D02*
X175467544Y-64075800D01*
X175100877Y-63909133D02*
X175167544Y-63875800D01*
X175167544Y-63875800D02*
X175200877Y-63842466D01*
X175200877Y-63842466D02*
X175234210Y-63775800D01*
X175234210Y-63775800D02*
X175234210Y-63742466D01*
X175234210Y-63742466D02*
X175200877Y-63675800D01*
X175200877Y-63675800D02*
X175167544Y-63642466D01*
X175167544Y-63642466D02*
X175100877Y-63609133D01*
X175100877Y-63609133D02*
X174967544Y-63609133D01*
X174967544Y-63609133D02*
X174900877Y-63642466D01*
X174900877Y-63642466D02*
X174867544Y-63675800D01*
X174867544Y-63675800D02*
X174834210Y-63742466D01*
X174834210Y-63742466D02*
X174834210Y-63775800D01*
X174834210Y-63775800D02*
X174867544Y-63842466D01*
X174867544Y-63842466D02*
X174900877Y-63875800D01*
X174900877Y-63875800D02*
X174967544Y-63909133D01*
X174967544Y-63909133D02*
X175100877Y-63909133D01*
X175100877Y-63909133D02*
X175167544Y-63942466D01*
X175167544Y-63942466D02*
X175200877Y-63975800D01*
X175200877Y-63975800D02*
X175234210Y-64042466D01*
X175234210Y-64042466D02*
X175234210Y-64175800D01*
X175234210Y-64175800D02*
X175200877Y-64242466D01*
X175200877Y-64242466D02*
X175167544Y-64275800D01*
X175167544Y-64275800D02*
X175100877Y-64309133D01*
X175100877Y-64309133D02*
X174967544Y-64309133D01*
X174967544Y-64309133D02*
X174900877Y-64275800D01*
X174900877Y-64275800D02*
X174867544Y-64242466D01*
X174867544Y-64242466D02*
X174834210Y-64175800D01*
X174834210Y-64175800D02*
X174834210Y-64042466D01*
X174834210Y-64042466D02*
X174867544Y-63975800D01*
X174867544Y-63975800D02*
X174900877Y-63942466D01*
X174900877Y-63942466D02*
X174967544Y-63909133D01*
X175934211Y-68709133D02*
X175500877Y-68709133D01*
X175500877Y-68709133D02*
X175734211Y-68975800D01*
X175734211Y-68975800D02*
X175634211Y-68975800D01*
X175634211Y-68975800D02*
X175567544Y-69009133D01*
X175567544Y-69009133D02*
X175534211Y-69042466D01*
X175534211Y-69042466D02*
X175500877Y-69109133D01*
X175500877Y-69109133D02*
X175500877Y-69275800D01*
X175500877Y-69275800D02*
X175534211Y-69342466D01*
X175534211Y-69342466D02*
X175567544Y-69375800D01*
X175567544Y-69375800D02*
X175634211Y-69409133D01*
X175634211Y-69409133D02*
X175834211Y-69409133D01*
X175834211Y-69409133D02*
X175900877Y-69375800D01*
X175900877Y-69375800D02*
X175934211Y-69342466D01*
X174867544Y-68709133D02*
X175200877Y-68709133D01*
X175200877Y-68709133D02*
X175234210Y-69042466D01*
X175234210Y-69042466D02*
X175200877Y-69009133D01*
X175200877Y-69009133D02*
X175134210Y-68975800D01*
X175134210Y-68975800D02*
X174967544Y-68975800D01*
X174967544Y-68975800D02*
X174900877Y-69009133D01*
X174900877Y-69009133D02*
X174867544Y-69042466D01*
X174867544Y-69042466D02*
X174834210Y-69109133D01*
X174834210Y-69109133D02*
X174834210Y-69275800D01*
X174834210Y-69275800D02*
X174867544Y-69342466D01*
X174867544Y-69342466D02*
X174900877Y-69375800D01*
X174900877Y-69375800D02*
X174967544Y-69409133D01*
X174967544Y-69409133D02*
X175134210Y-69409133D01*
X175134210Y-69409133D02*
X175200877Y-69375800D01*
X175200877Y-69375800D02*
X175234210Y-69342466D01*
X175467544Y-86842466D02*
X175467544Y-87309133D01*
X175634211Y-86575800D02*
X175800877Y-87075800D01*
X175800877Y-87075800D02*
X175367544Y-87075800D01*
X175134210Y-86675800D02*
X175100877Y-86642466D01*
X175100877Y-86642466D02*
X175034210Y-86609133D01*
X175034210Y-86609133D02*
X174867544Y-86609133D01*
X174867544Y-86609133D02*
X174800877Y-86642466D01*
X174800877Y-86642466D02*
X174767544Y-86675800D01*
X174767544Y-86675800D02*
X174734210Y-86742466D01*
X174734210Y-86742466D02*
X174734210Y-86809133D01*
X174734210Y-86809133D02*
X174767544Y-86909133D01*
X174767544Y-86909133D02*
X175167544Y-87309133D01*
X175167544Y-87309133D02*
X174734210Y-87309133D01*
D12*
X172833332Y-101707200D02*
X172690475Y-101754819D01*
X172690475Y-101754819D02*
X172452380Y-101754819D01*
X172452380Y-101754819D02*
X172357142Y-101707200D01*
X172357142Y-101707200D02*
X172309523Y-101659580D01*
X172309523Y-101659580D02*
X172261904Y-101564342D01*
X172261904Y-101564342D02*
X172261904Y-101469104D01*
X172261904Y-101469104D02*
X172309523Y-101373866D01*
X172309523Y-101373866D02*
X172357142Y-101326247D01*
X172357142Y-101326247D02*
X172452380Y-101278628D01*
X172452380Y-101278628D02*
X172642856Y-101231009D01*
X172642856Y-101231009D02*
X172738094Y-101183390D01*
X172738094Y-101183390D02*
X172785713Y-101135771D01*
X172785713Y-101135771D02*
X172833332Y-101040533D01*
X172833332Y-101040533D02*
X172833332Y-100945295D01*
X172833332Y-100945295D02*
X172785713Y-100850057D01*
X172785713Y-100850057D02*
X172738094Y-100802438D01*
X172738094Y-100802438D02*
X172642856Y-100754819D01*
X172642856Y-100754819D02*
X172404761Y-100754819D01*
X172404761Y-100754819D02*
X172261904Y-100802438D01*
X171928570Y-100754819D02*
X171690475Y-101754819D01*
X171690475Y-101754819D02*
X171499999Y-101040533D01*
X171499999Y-101040533D02*
X171309523Y-101754819D01*
X171309523Y-101754819D02*
X171071428Y-100754819D01*
X170166666Y-101754819D02*
X170738094Y-101754819D01*
X170452380Y-101754819D02*
X170452380Y-100754819D01*
X170452380Y-100754819D02*
X170547618Y-100897676D01*
X170547618Y-100897676D02*
X170642856Y-100992914D01*
X170642856Y-100992914D02*
X170738094Y-101040533D01*
X109285180Y-89130004D02*
X108475657Y-89130004D01*
X108475657Y-89130004D02*
X108380419Y-89082385D01*
X108380419Y-89082385D02*
X108332800Y-89034766D01*
X108332800Y-89034766D02*
X108285180Y-88939528D01*
X108285180Y-88939528D02*
X108285180Y-88749052D01*
X108285180Y-88749052D02*
X108332800Y-88653814D01*
X108332800Y-88653814D02*
X108380419Y-88606195D01*
X108380419Y-88606195D02*
X108475657Y-88558576D01*
X108475657Y-88558576D02*
X109285180Y-88558576D01*
X109189942Y-88130004D02*
X109237561Y-88082385D01*
X109237561Y-88082385D02*
X109285180Y-87987147D01*
X109285180Y-87987147D02*
X109285180Y-87749052D01*
X109285180Y-87749052D02*
X109237561Y-87653814D01*
X109237561Y-87653814D02*
X109189942Y-87606195D01*
X109189942Y-87606195D02*
X109094704Y-87558576D01*
X109094704Y-87558576D02*
X108999466Y-87558576D01*
X108999466Y-87558576D02*
X108856609Y-87606195D01*
X108856609Y-87606195D02*
X108285180Y-88177623D01*
X108285180Y-88177623D02*
X108285180Y-87558576D01*
D10*
X128528033Y-93658100D02*
X128061366Y-93658100D01*
X128794700Y-93824767D02*
X128294700Y-93991433D01*
X128294700Y-93991433D02*
X128294700Y-93558100D01*
X128761366Y-92991433D02*
X128761366Y-93124766D01*
X128761366Y-93124766D02*
X128728033Y-93191433D01*
X128728033Y-93191433D02*
X128694700Y-93224766D01*
X128694700Y-93224766D02*
X128594700Y-93291433D01*
X128594700Y-93291433D02*
X128461366Y-93324766D01*
X128461366Y-93324766D02*
X128194700Y-93324766D01*
X128194700Y-93324766D02*
X128128033Y-93291433D01*
X128128033Y-93291433D02*
X128094700Y-93258100D01*
X128094700Y-93258100D02*
X128061366Y-93191433D01*
X128061366Y-93191433D02*
X128061366Y-93058100D01*
X128061366Y-93058100D02*
X128094700Y-92991433D01*
X128094700Y-92991433D02*
X128128033Y-92958100D01*
X128128033Y-92958100D02*
X128194700Y-92924766D01*
X128194700Y-92924766D02*
X128361366Y-92924766D01*
X128361366Y-92924766D02*
X128428033Y-92958100D01*
X128428033Y-92958100D02*
X128461366Y-92991433D01*
X128461366Y-92991433D02*
X128494700Y-93058100D01*
X128494700Y-93058100D02*
X128494700Y-93191433D01*
X128494700Y-93191433D02*
X128461366Y-93258100D01*
X128461366Y-93258100D02*
X128428033Y-93291433D01*
X128428033Y-93291433D02*
X128361366Y-93324766D01*
X110981366Y-93558100D02*
X110981366Y-93891433D01*
X110981366Y-93891433D02*
X110648033Y-93924766D01*
X110648033Y-93924766D02*
X110681366Y-93891433D01*
X110681366Y-93891433D02*
X110714700Y-93824766D01*
X110714700Y-93824766D02*
X110714700Y-93658100D01*
X110714700Y-93658100D02*
X110681366Y-93591433D01*
X110681366Y-93591433D02*
X110648033Y-93558100D01*
X110648033Y-93558100D02*
X110581366Y-93524766D01*
X110581366Y-93524766D02*
X110414700Y-93524766D01*
X110414700Y-93524766D02*
X110348033Y-93558100D01*
X110348033Y-93558100D02*
X110314700Y-93591433D01*
X110314700Y-93591433D02*
X110281366Y-93658100D01*
X110281366Y-93658100D02*
X110281366Y-93824766D01*
X110281366Y-93824766D02*
X110314700Y-93891433D01*
X110314700Y-93891433D02*
X110348033Y-93924766D01*
X110748033Y-93291433D02*
X110281366Y-93124766D01*
X110281366Y-93124766D02*
X110748033Y-92958099D01*
X156001366Y-73244766D02*
X156334700Y-73478099D01*
X156001366Y-73644766D02*
X156701366Y-73644766D01*
X156701366Y-73644766D02*
X156701366Y-73378099D01*
X156701366Y-73378099D02*
X156668033Y-73311433D01*
X156668033Y-73311433D02*
X156634700Y-73278099D01*
X156634700Y-73278099D02*
X156568033Y-73244766D01*
X156568033Y-73244766D02*
X156468033Y-73244766D01*
X156468033Y-73244766D02*
X156401366Y-73278099D01*
X156401366Y-73278099D02*
X156368033Y-73311433D01*
X156368033Y-73311433D02*
X156334700Y-73378099D01*
X156334700Y-73378099D02*
X156334700Y-73644766D01*
X156701366Y-73011433D02*
X156001366Y-72544766D01*
X156701366Y-72544766D02*
X156001366Y-73011433D01*
X131301366Y-73694767D02*
X131301366Y-73261433D01*
X131301366Y-73261433D02*
X131034700Y-73494767D01*
X131034700Y-73494767D02*
X131034700Y-73394767D01*
X131034700Y-73394767D02*
X131001366Y-73328100D01*
X131001366Y-73328100D02*
X130968033Y-73294767D01*
X130968033Y-73294767D02*
X130901366Y-73261433D01*
X130901366Y-73261433D02*
X130734700Y-73261433D01*
X130734700Y-73261433D02*
X130668033Y-73294767D01*
X130668033Y-73294767D02*
X130634700Y-73328100D01*
X130634700Y-73328100D02*
X130601366Y-73394767D01*
X130601366Y-73394767D02*
X130601366Y-73594767D01*
X130601366Y-73594767D02*
X130634700Y-73661433D01*
X130634700Y-73661433D02*
X130668033Y-73694767D01*
X131301366Y-72628100D02*
X131301366Y-72961433D01*
X131301366Y-72961433D02*
X130968033Y-72994766D01*
X130968033Y-72994766D02*
X131001366Y-72961433D01*
X131001366Y-72961433D02*
X131034700Y-72894766D01*
X131034700Y-72894766D02*
X131034700Y-72728100D01*
X131034700Y-72728100D02*
X131001366Y-72661433D01*
X131001366Y-72661433D02*
X130968033Y-72628100D01*
X130968033Y-72628100D02*
X130901366Y-72594766D01*
X130901366Y-72594766D02*
X130734700Y-72594766D01*
X130734700Y-72594766D02*
X130668033Y-72628100D01*
X130668033Y-72628100D02*
X130634700Y-72661433D01*
X130634700Y-72661433D02*
X130601366Y-72728100D01*
X130601366Y-72728100D02*
X130601366Y-72894766D01*
X130601366Y-72894766D02*
X130634700Y-72961433D01*
X130634700Y-72961433D02*
X130668033Y-72994766D01*
X161781366Y-94458100D02*
X161781366Y-94024766D01*
X161781366Y-94024766D02*
X161514700Y-94258100D01*
X161514700Y-94258100D02*
X161514700Y-94158100D01*
X161514700Y-94158100D02*
X161481366Y-94091433D01*
X161481366Y-94091433D02*
X161448033Y-94058100D01*
X161448033Y-94058100D02*
X161381366Y-94024766D01*
X161381366Y-94024766D02*
X161214700Y-94024766D01*
X161214700Y-94024766D02*
X161148033Y-94058100D01*
X161148033Y-94058100D02*
X161114700Y-94091433D01*
X161114700Y-94091433D02*
X161081366Y-94158100D01*
X161081366Y-94158100D02*
X161081366Y-94358100D01*
X161081366Y-94358100D02*
X161114700Y-94424766D01*
X161114700Y-94424766D02*
X161148033Y-94458100D01*
X161148033Y-93724766D02*
X161114700Y-93691433D01*
X161114700Y-93691433D02*
X161081366Y-93724766D01*
X161081366Y-93724766D02*
X161114700Y-93758099D01*
X161114700Y-93758099D02*
X161148033Y-93724766D01*
X161148033Y-93724766D02*
X161081366Y-93724766D01*
X161781366Y-93458100D02*
X161781366Y-93024766D01*
X161781366Y-93024766D02*
X161514700Y-93258100D01*
X161514700Y-93258100D02*
X161514700Y-93158100D01*
X161514700Y-93158100D02*
X161481366Y-93091433D01*
X161481366Y-93091433D02*
X161448033Y-93058100D01*
X161448033Y-93058100D02*
X161381366Y-93024766D01*
X161381366Y-93024766D02*
X161214700Y-93024766D01*
X161214700Y-93024766D02*
X161148033Y-93058100D01*
X161148033Y-93058100D02*
X161114700Y-93091433D01*
X161114700Y-93091433D02*
X161081366Y-93158100D01*
X161081366Y-93158100D02*
X161081366Y-93358100D01*
X161081366Y-93358100D02*
X161114700Y-93424766D01*
X161114700Y-93424766D02*
X161148033Y-93458100D01*
X161548033Y-92791433D02*
X161081366Y-92624766D01*
X161081366Y-92624766D02*
X161548033Y-92458099D01*
X159241366Y-94458100D02*
X159241366Y-94024766D01*
X159241366Y-94024766D02*
X158974700Y-94258100D01*
X158974700Y-94258100D02*
X158974700Y-94158100D01*
X158974700Y-94158100D02*
X158941366Y-94091433D01*
X158941366Y-94091433D02*
X158908033Y-94058100D01*
X158908033Y-94058100D02*
X158841366Y-94024766D01*
X158841366Y-94024766D02*
X158674700Y-94024766D01*
X158674700Y-94024766D02*
X158608033Y-94058100D01*
X158608033Y-94058100D02*
X158574700Y-94091433D01*
X158574700Y-94091433D02*
X158541366Y-94158100D01*
X158541366Y-94158100D02*
X158541366Y-94358100D01*
X158541366Y-94358100D02*
X158574700Y-94424766D01*
X158574700Y-94424766D02*
X158608033Y-94458100D01*
X158608033Y-93724766D02*
X158574700Y-93691433D01*
X158574700Y-93691433D02*
X158541366Y-93724766D01*
X158541366Y-93724766D02*
X158574700Y-93758099D01*
X158574700Y-93758099D02*
X158608033Y-93724766D01*
X158608033Y-93724766D02*
X158541366Y-93724766D01*
X159241366Y-93458100D02*
X159241366Y-93024766D01*
X159241366Y-93024766D02*
X158974700Y-93258100D01*
X158974700Y-93258100D02*
X158974700Y-93158100D01*
X158974700Y-93158100D02*
X158941366Y-93091433D01*
X158941366Y-93091433D02*
X158908033Y-93058100D01*
X158908033Y-93058100D02*
X158841366Y-93024766D01*
X158841366Y-93024766D02*
X158674700Y-93024766D01*
X158674700Y-93024766D02*
X158608033Y-93058100D01*
X158608033Y-93058100D02*
X158574700Y-93091433D01*
X158574700Y-93091433D02*
X158541366Y-93158100D01*
X158541366Y-93158100D02*
X158541366Y-93358100D01*
X158541366Y-93358100D02*
X158574700Y-93424766D01*
X158574700Y-93424766D02*
X158608033Y-93458100D01*
X159008033Y-92791433D02*
X158541366Y-92624766D01*
X158541366Y-92624766D02*
X159008033Y-92458099D01*
X141461366Y-73694767D02*
X141461366Y-73261433D01*
X141461366Y-73261433D02*
X141194700Y-73494767D01*
X141194700Y-73494767D02*
X141194700Y-73394767D01*
X141194700Y-73394767D02*
X141161366Y-73328100D01*
X141161366Y-73328100D02*
X141128033Y-73294767D01*
X141128033Y-73294767D02*
X141061366Y-73261433D01*
X141061366Y-73261433D02*
X140894700Y-73261433D01*
X140894700Y-73261433D02*
X140828033Y-73294767D01*
X140828033Y-73294767D02*
X140794700Y-73328100D01*
X140794700Y-73328100D02*
X140761366Y-73394767D01*
X140761366Y-73394767D02*
X140761366Y-73594767D01*
X140761366Y-73594767D02*
X140794700Y-73661433D01*
X140794700Y-73661433D02*
X140828033Y-73694767D01*
X140761366Y-72928100D02*
X140761366Y-72794766D01*
X140761366Y-72794766D02*
X140794700Y-72728100D01*
X140794700Y-72728100D02*
X140828033Y-72694766D01*
X140828033Y-72694766D02*
X140928033Y-72628100D01*
X140928033Y-72628100D02*
X141061366Y-72594766D01*
X141061366Y-72594766D02*
X141328033Y-72594766D01*
X141328033Y-72594766D02*
X141394700Y-72628100D01*
X141394700Y-72628100D02*
X141428033Y-72661433D01*
X141428033Y-72661433D02*
X141461366Y-72728100D01*
X141461366Y-72728100D02*
X141461366Y-72861433D01*
X141461366Y-72861433D02*
X141428033Y-72928100D01*
X141428033Y-72928100D02*
X141394700Y-72961433D01*
X141394700Y-72961433D02*
X141328033Y-72994766D01*
X141328033Y-72994766D02*
X141161366Y-72994766D01*
X141161366Y-72994766D02*
X141094700Y-72961433D01*
X141094700Y-72961433D02*
X141061366Y-72928100D01*
X141061366Y-72928100D02*
X141028033Y-72861433D01*
X141028033Y-72861433D02*
X141028033Y-72728100D01*
X141028033Y-72728100D02*
X141061366Y-72661433D01*
X141061366Y-72661433D02*
X141094700Y-72628100D01*
X141094700Y-72628100D02*
X141161366Y-72594766D01*
X148848033Y-73328100D02*
X148381366Y-73328100D01*
X149114700Y-73494767D02*
X148614700Y-73661433D01*
X148614700Y-73661433D02*
X148614700Y-73228100D01*
X149014700Y-72994766D02*
X149048033Y-72961433D01*
X149048033Y-72961433D02*
X149081366Y-72894766D01*
X149081366Y-72894766D02*
X149081366Y-72728100D01*
X149081366Y-72728100D02*
X149048033Y-72661433D01*
X149048033Y-72661433D02*
X149014700Y-72628100D01*
X149014700Y-72628100D02*
X148948033Y-72594766D01*
X148948033Y-72594766D02*
X148881366Y-72594766D01*
X148881366Y-72594766D02*
X148781366Y-72628100D01*
X148781366Y-72628100D02*
X148381366Y-73028100D01*
X148381366Y-73028100D02*
X148381366Y-72594766D01*
X159241366Y-73661433D02*
X159241366Y-73261433D01*
X158541366Y-73461433D02*
X159241366Y-73461433D01*
X159241366Y-73094767D02*
X158541366Y-72628100D01*
X159241366Y-72628100D02*
X158541366Y-73094767D01*
X146308033Y-73328100D02*
X145841366Y-73328100D01*
X146574700Y-73494767D02*
X146074700Y-73661433D01*
X146074700Y-73661433D02*
X146074700Y-73228100D01*
X145841366Y-72594766D02*
X145841366Y-72994766D01*
X145841366Y-72794766D02*
X146541366Y-72794766D01*
X146541366Y-72794766D02*
X146441366Y-72861433D01*
X146441366Y-72861433D02*
X146374700Y-72928100D01*
X146374700Y-72928100D02*
X146341366Y-72994766D01*
X151621366Y-93291433D02*
X151621366Y-93624766D01*
X151621366Y-93624766D02*
X151288033Y-93658099D01*
X151288033Y-93658099D02*
X151321366Y-93624766D01*
X151321366Y-93624766D02*
X151354700Y-93558099D01*
X151354700Y-93558099D02*
X151354700Y-93391433D01*
X151354700Y-93391433D02*
X151321366Y-93324766D01*
X151321366Y-93324766D02*
X151288033Y-93291433D01*
X151288033Y-93291433D02*
X151221366Y-93258099D01*
X151221366Y-93258099D02*
X151054700Y-93258099D01*
X151054700Y-93258099D02*
X150988033Y-93291433D01*
X150988033Y-93291433D02*
X150954700Y-93324766D01*
X150954700Y-93324766D02*
X150921366Y-93391433D01*
X150921366Y-93391433D02*
X150921366Y-93558099D01*
X150921366Y-93558099D02*
X150954700Y-93624766D01*
X150954700Y-93624766D02*
X150988033Y-93658099D01*
X125521366Y-93591433D02*
X125521366Y-93458099D01*
X125521366Y-93458099D02*
X125554700Y-93391433D01*
X125554700Y-93391433D02*
X125588033Y-93358099D01*
X125588033Y-93358099D02*
X125688033Y-93291433D01*
X125688033Y-93291433D02*
X125821366Y-93258099D01*
X125821366Y-93258099D02*
X126088033Y-93258099D01*
X126088033Y-93258099D02*
X126154700Y-93291433D01*
X126154700Y-93291433D02*
X126188033Y-93324766D01*
X126188033Y-93324766D02*
X126221366Y-93391433D01*
X126221366Y-93391433D02*
X126221366Y-93524766D01*
X126221366Y-93524766D02*
X126188033Y-93591433D01*
X126188033Y-93591433D02*
X126154700Y-93624766D01*
X126154700Y-93624766D02*
X126088033Y-93658099D01*
X126088033Y-93658099D02*
X125921366Y-93658099D01*
X125921366Y-93658099D02*
X125854700Y-93624766D01*
X125854700Y-93624766D02*
X125821366Y-93591433D01*
X125821366Y-93591433D02*
X125788033Y-93524766D01*
X125788033Y-93524766D02*
X125788033Y-93391433D01*
X125788033Y-93391433D02*
X125821366Y-93324766D01*
X125821366Y-93324766D02*
X125854700Y-93291433D01*
X125854700Y-93291433D02*
X125921366Y-93258099D01*
X120908033Y-73328100D02*
X120441366Y-73328100D01*
X121174700Y-73494767D02*
X120674700Y-73661433D01*
X120674700Y-73661433D02*
X120674700Y-73228100D01*
X121141366Y-73028100D02*
X121141366Y-72561433D01*
X121141366Y-72561433D02*
X120441366Y-72861433D01*
X143301366Y-93591433D02*
X143301366Y-93991433D01*
X143301366Y-93791433D02*
X144001366Y-93791433D01*
X144001366Y-93791433D02*
X143901366Y-93858100D01*
X143901366Y-93858100D02*
X143834700Y-93924767D01*
X143834700Y-93924767D02*
X143801366Y-93991433D01*
X144001366Y-92958100D02*
X144001366Y-93291433D01*
X144001366Y-93291433D02*
X143668033Y-93324766D01*
X143668033Y-93324766D02*
X143701366Y-93291433D01*
X143701366Y-93291433D02*
X143734700Y-93224766D01*
X143734700Y-93224766D02*
X143734700Y-93058100D01*
X143734700Y-93058100D02*
X143701366Y-92991433D01*
X143701366Y-92991433D02*
X143668033Y-92958100D01*
X143668033Y-92958100D02*
X143601366Y-92924766D01*
X143601366Y-92924766D02*
X143434700Y-92924766D01*
X143434700Y-92924766D02*
X143368033Y-92958100D01*
X143368033Y-92958100D02*
X143334700Y-92991433D01*
X143334700Y-92991433D02*
X143301366Y-93058100D01*
X143301366Y-93058100D02*
X143301366Y-93224766D01*
X143301366Y-93224766D02*
X143334700Y-93291433D01*
X143334700Y-93291433D02*
X143368033Y-93324766D01*
X123448033Y-73328100D02*
X122981366Y-73328100D01*
X123714700Y-73494767D02*
X123214700Y-73661433D01*
X123214700Y-73661433D02*
X123214700Y-73228100D01*
X123381366Y-72861433D02*
X123414700Y-72928100D01*
X123414700Y-72928100D02*
X123448033Y-72961433D01*
X123448033Y-72961433D02*
X123514700Y-72994766D01*
X123514700Y-72994766D02*
X123548033Y-72994766D01*
X123548033Y-72994766D02*
X123614700Y-72961433D01*
X123614700Y-72961433D02*
X123648033Y-72928100D01*
X123648033Y-72928100D02*
X123681366Y-72861433D01*
X123681366Y-72861433D02*
X123681366Y-72728100D01*
X123681366Y-72728100D02*
X123648033Y-72661433D01*
X123648033Y-72661433D02*
X123614700Y-72628100D01*
X123614700Y-72628100D02*
X123548033Y-72594766D01*
X123548033Y-72594766D02*
X123514700Y-72594766D01*
X123514700Y-72594766D02*
X123448033Y-72628100D01*
X123448033Y-72628100D02*
X123414700Y-72661433D01*
X123414700Y-72661433D02*
X123381366Y-72728100D01*
X123381366Y-72728100D02*
X123381366Y-72861433D01*
X123381366Y-72861433D02*
X123348033Y-72928100D01*
X123348033Y-72928100D02*
X123314700Y-72961433D01*
X123314700Y-72961433D02*
X123248033Y-72994766D01*
X123248033Y-72994766D02*
X123114700Y-72994766D01*
X123114700Y-72994766D02*
X123048033Y-72961433D01*
X123048033Y-72961433D02*
X123014700Y-72928100D01*
X123014700Y-72928100D02*
X122981366Y-72861433D01*
X122981366Y-72861433D02*
X122981366Y-72728100D01*
X122981366Y-72728100D02*
X123014700Y-72661433D01*
X123014700Y-72661433D02*
X123048033Y-72628100D01*
X123048033Y-72628100D02*
X123114700Y-72594766D01*
X123114700Y-72594766D02*
X123248033Y-72594766D01*
X123248033Y-72594766D02*
X123314700Y-72628100D01*
X123314700Y-72628100D02*
X123348033Y-72661433D01*
X123348033Y-72661433D02*
X123381366Y-72728100D01*
X115361366Y-93591433D02*
X115361366Y-93991433D01*
X115361366Y-93791433D02*
X116061366Y-93791433D01*
X116061366Y-93791433D02*
X115961366Y-93858100D01*
X115961366Y-93858100D02*
X115894700Y-93924767D01*
X115894700Y-93924767D02*
X115861366Y-93991433D01*
X116061366Y-93358100D02*
X116061366Y-92924766D01*
X116061366Y-92924766D02*
X115794700Y-93158100D01*
X115794700Y-93158100D02*
X115794700Y-93058100D01*
X115794700Y-93058100D02*
X115761366Y-92991433D01*
X115761366Y-92991433D02*
X115728033Y-92958100D01*
X115728033Y-92958100D02*
X115661366Y-92924766D01*
X115661366Y-92924766D02*
X115494700Y-92924766D01*
X115494700Y-92924766D02*
X115428033Y-92958100D01*
X115428033Y-92958100D02*
X115394700Y-92991433D01*
X115394700Y-92991433D02*
X115361366Y-93058100D01*
X115361366Y-93058100D02*
X115361366Y-93258100D01*
X115361366Y-93258100D02*
X115394700Y-93324766D01*
X115394700Y-93324766D02*
X115428033Y-93358100D01*
X131301366Y-93691433D02*
X131301366Y-93258099D01*
X131301366Y-93258099D02*
X131034700Y-93491433D01*
X131034700Y-93491433D02*
X131034700Y-93391433D01*
X131034700Y-93391433D02*
X131001366Y-93324766D01*
X131001366Y-93324766D02*
X130968033Y-93291433D01*
X130968033Y-93291433D02*
X130901366Y-93258099D01*
X130901366Y-93258099D02*
X130734700Y-93258099D01*
X130734700Y-93258099D02*
X130668033Y-93291433D01*
X130668033Y-93291433D02*
X130634700Y-93324766D01*
X130634700Y-93324766D02*
X130601366Y-93391433D01*
X130601366Y-93391433D02*
X130601366Y-93591433D01*
X130601366Y-93591433D02*
X130634700Y-93658099D01*
X130634700Y-93658099D02*
X130668033Y-93691433D01*
X125988033Y-73328100D02*
X125521366Y-73328100D01*
X126254700Y-73494767D02*
X125754700Y-73661433D01*
X125754700Y-73661433D02*
X125754700Y-73228100D01*
X126221366Y-72628100D02*
X126221366Y-72961433D01*
X126221366Y-72961433D02*
X125888033Y-72994766D01*
X125888033Y-72994766D02*
X125921366Y-72961433D01*
X125921366Y-72961433D02*
X125954700Y-72894766D01*
X125954700Y-72894766D02*
X125954700Y-72728100D01*
X125954700Y-72728100D02*
X125921366Y-72661433D01*
X125921366Y-72661433D02*
X125888033Y-72628100D01*
X125888033Y-72628100D02*
X125821366Y-72594766D01*
X125821366Y-72594766D02*
X125654700Y-72594766D01*
X125654700Y-72594766D02*
X125588033Y-72628100D01*
X125588033Y-72628100D02*
X125554700Y-72661433D01*
X125554700Y-72661433D02*
X125521366Y-72728100D01*
X125521366Y-72728100D02*
X125521366Y-72894766D01*
X125521366Y-72894766D02*
X125554700Y-72961433D01*
X125554700Y-72961433D02*
X125588033Y-72994766D01*
X136381366Y-73694767D02*
X136381366Y-73261433D01*
X136381366Y-73261433D02*
X136114700Y-73494767D01*
X136114700Y-73494767D02*
X136114700Y-73394767D01*
X136114700Y-73394767D02*
X136081366Y-73328100D01*
X136081366Y-73328100D02*
X136048033Y-73294767D01*
X136048033Y-73294767D02*
X135981366Y-73261433D01*
X135981366Y-73261433D02*
X135814700Y-73261433D01*
X135814700Y-73261433D02*
X135748033Y-73294767D01*
X135748033Y-73294767D02*
X135714700Y-73328100D01*
X135714700Y-73328100D02*
X135681366Y-73394767D01*
X135681366Y-73394767D02*
X135681366Y-73594767D01*
X135681366Y-73594767D02*
X135714700Y-73661433D01*
X135714700Y-73661433D02*
X135748033Y-73694767D01*
X136381366Y-73028100D02*
X136381366Y-72561433D01*
X136381366Y-72561433D02*
X135681366Y-72861433D01*
X120441366Y-93591433D02*
X120441366Y-93991433D01*
X120441366Y-93791433D02*
X121141366Y-93791433D01*
X121141366Y-93791433D02*
X121041366Y-93858100D01*
X121041366Y-93858100D02*
X120974700Y-93924767D01*
X120974700Y-93924767D02*
X120941366Y-93991433D01*
X120441366Y-92924766D02*
X120441366Y-93324766D01*
X120441366Y-93124766D02*
X121141366Y-93124766D01*
X121141366Y-93124766D02*
X121041366Y-93191433D01*
X121041366Y-93191433D02*
X120974700Y-93258100D01*
X120974700Y-93258100D02*
X120941366Y-93324766D01*
X133541366Y-93524766D02*
X133574700Y-93591433D01*
X133574700Y-93591433D02*
X133608033Y-93624766D01*
X133608033Y-93624766D02*
X133674700Y-93658099D01*
X133674700Y-93658099D02*
X133708033Y-93658099D01*
X133708033Y-93658099D02*
X133774700Y-93624766D01*
X133774700Y-93624766D02*
X133808033Y-93591433D01*
X133808033Y-93591433D02*
X133841366Y-93524766D01*
X133841366Y-93524766D02*
X133841366Y-93391433D01*
X133841366Y-93391433D02*
X133808033Y-93324766D01*
X133808033Y-93324766D02*
X133774700Y-93291433D01*
X133774700Y-93291433D02*
X133708033Y-93258099D01*
X133708033Y-93258099D02*
X133674700Y-93258099D01*
X133674700Y-93258099D02*
X133608033Y-93291433D01*
X133608033Y-93291433D02*
X133574700Y-93324766D01*
X133574700Y-93324766D02*
X133541366Y-93391433D01*
X133541366Y-93391433D02*
X133541366Y-93524766D01*
X133541366Y-93524766D02*
X133508033Y-93591433D01*
X133508033Y-93591433D02*
X133474700Y-93624766D01*
X133474700Y-93624766D02*
X133408033Y-93658099D01*
X133408033Y-93658099D02*
X133274700Y-93658099D01*
X133274700Y-93658099D02*
X133208033Y-93624766D01*
X133208033Y-93624766D02*
X133174700Y-93591433D01*
X133174700Y-93591433D02*
X133141366Y-93524766D01*
X133141366Y-93524766D02*
X133141366Y-93391433D01*
X133141366Y-93391433D02*
X133174700Y-93324766D01*
X133174700Y-93324766D02*
X133208033Y-93291433D01*
X133208033Y-93291433D02*
X133274700Y-93258099D01*
X133274700Y-93258099D02*
X133408033Y-93258099D01*
X133408033Y-93258099D02*
X133474700Y-93291433D01*
X133474700Y-93291433D02*
X133508033Y-93324766D01*
X133508033Y-93324766D02*
X133541366Y-93391433D01*
X128761366Y-73194766D02*
X128761366Y-73061432D01*
X128761366Y-73061432D02*
X128728033Y-72994766D01*
X128728033Y-72994766D02*
X128661366Y-72928099D01*
X128661366Y-72928099D02*
X128528033Y-72894766D01*
X128528033Y-72894766D02*
X128294700Y-72894766D01*
X128294700Y-72894766D02*
X128161366Y-72928099D01*
X128161366Y-72928099D02*
X128094700Y-72994766D01*
X128094700Y-72994766D02*
X128061366Y-73061432D01*
X128061366Y-73061432D02*
X128061366Y-73194766D01*
X128061366Y-73194766D02*
X128094700Y-73261432D01*
X128094700Y-73261432D02*
X128161366Y-73328099D01*
X128161366Y-73328099D02*
X128294700Y-73361432D01*
X128294700Y-73361432D02*
X128528033Y-73361432D01*
X128528033Y-73361432D02*
X128661366Y-73328099D01*
X128661366Y-73328099D02*
X128728033Y-73261432D01*
X128728033Y-73261432D02*
X128761366Y-73194766D01*
X140761366Y-93591433D02*
X140761366Y-93991433D01*
X140761366Y-93791433D02*
X141461366Y-93791433D01*
X141461366Y-93791433D02*
X141361366Y-93858100D01*
X141361366Y-93858100D02*
X141294700Y-93924767D01*
X141294700Y-93924767D02*
X141261366Y-93991433D01*
X141461366Y-92991433D02*
X141461366Y-93124766D01*
X141461366Y-93124766D02*
X141428033Y-93191433D01*
X141428033Y-93191433D02*
X141394700Y-93224766D01*
X141394700Y-93224766D02*
X141294700Y-93291433D01*
X141294700Y-93291433D02*
X141161366Y-93324766D01*
X141161366Y-93324766D02*
X140894700Y-93324766D01*
X140894700Y-93324766D02*
X140828033Y-93291433D01*
X140828033Y-93291433D02*
X140794700Y-93258100D01*
X140794700Y-93258100D02*
X140761366Y-93191433D01*
X140761366Y-93191433D02*
X140761366Y-93058100D01*
X140761366Y-93058100D02*
X140794700Y-92991433D01*
X140794700Y-92991433D02*
X140828033Y-92958100D01*
X140828033Y-92958100D02*
X140894700Y-92924766D01*
X140894700Y-92924766D02*
X141061366Y-92924766D01*
X141061366Y-92924766D02*
X141128033Y-92958100D01*
X141128033Y-92958100D02*
X141161366Y-92991433D01*
X141161366Y-92991433D02*
X141194700Y-93058100D01*
X141194700Y-93058100D02*
X141194700Y-93191433D01*
X141194700Y-93191433D02*
X141161366Y-93258100D01*
X141161366Y-93258100D02*
X141128033Y-93291433D01*
X141128033Y-93291433D02*
X141061366Y-93324766D01*
X161748033Y-73661432D02*
X161781366Y-73728099D01*
X161781366Y-73728099D02*
X161781366Y-73828099D01*
X161781366Y-73828099D02*
X161748033Y-73928099D01*
X161748033Y-73928099D02*
X161681366Y-73994766D01*
X161681366Y-73994766D02*
X161614700Y-74028099D01*
X161614700Y-74028099D02*
X161481366Y-74061432D01*
X161481366Y-74061432D02*
X161381366Y-74061432D01*
X161381366Y-74061432D02*
X161248033Y-74028099D01*
X161248033Y-74028099D02*
X161181366Y-73994766D01*
X161181366Y-73994766D02*
X161114700Y-73928099D01*
X161114700Y-73928099D02*
X161081366Y-73828099D01*
X161081366Y-73828099D02*
X161081366Y-73761432D01*
X161081366Y-73761432D02*
X161114700Y-73661432D01*
X161114700Y-73661432D02*
X161148033Y-73628099D01*
X161148033Y-73628099D02*
X161381366Y-73628099D01*
X161381366Y-73628099D02*
X161381366Y-73761432D01*
X161081366Y-73328099D02*
X161781366Y-73328099D01*
X161781366Y-73328099D02*
X161081366Y-72928099D01*
X161081366Y-72928099D02*
X161781366Y-72928099D01*
X161081366Y-72594766D02*
X161781366Y-72594766D01*
X161781366Y-72594766D02*
X161781366Y-72428099D01*
X161781366Y-72428099D02*
X161748033Y-72328099D01*
X161748033Y-72328099D02*
X161681366Y-72261433D01*
X161681366Y-72261433D02*
X161614700Y-72228099D01*
X161614700Y-72228099D02*
X161481366Y-72194766D01*
X161481366Y-72194766D02*
X161381366Y-72194766D01*
X161381366Y-72194766D02*
X161248033Y-72228099D01*
X161248033Y-72228099D02*
X161181366Y-72261433D01*
X161181366Y-72261433D02*
X161114700Y-72328099D01*
X161114700Y-72328099D02*
X161081366Y-72428099D01*
X161081366Y-72428099D02*
X161081366Y-72594766D01*
X135681366Y-93591433D02*
X135681366Y-93991433D01*
X135681366Y-93791433D02*
X136381366Y-93791433D01*
X136381366Y-93791433D02*
X136281366Y-93858100D01*
X136281366Y-93858100D02*
X136214700Y-93924767D01*
X136214700Y-93924767D02*
X136181366Y-93991433D01*
X136081366Y-93191433D02*
X136114700Y-93258100D01*
X136114700Y-93258100D02*
X136148033Y-93291433D01*
X136148033Y-93291433D02*
X136214700Y-93324766D01*
X136214700Y-93324766D02*
X136248033Y-93324766D01*
X136248033Y-93324766D02*
X136314700Y-93291433D01*
X136314700Y-93291433D02*
X136348033Y-93258100D01*
X136348033Y-93258100D02*
X136381366Y-93191433D01*
X136381366Y-93191433D02*
X136381366Y-93058100D01*
X136381366Y-93058100D02*
X136348033Y-92991433D01*
X136348033Y-92991433D02*
X136314700Y-92958100D01*
X136314700Y-92958100D02*
X136248033Y-92924766D01*
X136248033Y-92924766D02*
X136214700Y-92924766D01*
X136214700Y-92924766D02*
X136148033Y-92958100D01*
X136148033Y-92958100D02*
X136114700Y-92991433D01*
X136114700Y-92991433D02*
X136081366Y-93058100D01*
X136081366Y-93058100D02*
X136081366Y-93191433D01*
X136081366Y-93191433D02*
X136048033Y-93258100D01*
X136048033Y-93258100D02*
X136014700Y-93291433D01*
X136014700Y-93291433D02*
X135948033Y-93324766D01*
X135948033Y-93324766D02*
X135814700Y-93324766D01*
X135814700Y-93324766D02*
X135748033Y-93291433D01*
X135748033Y-93291433D02*
X135714700Y-93258100D01*
X135714700Y-93258100D02*
X135681366Y-93191433D01*
X135681366Y-93191433D02*
X135681366Y-93058100D01*
X135681366Y-93058100D02*
X135714700Y-92991433D01*
X135714700Y-92991433D02*
X135748033Y-92958100D01*
X135748033Y-92958100D02*
X135814700Y-92924766D01*
X135814700Y-92924766D02*
X135948033Y-92924766D01*
X135948033Y-92924766D02*
X136014700Y-92958100D01*
X136014700Y-92958100D02*
X136048033Y-92991433D01*
X136048033Y-92991433D02*
X136081366Y-93058100D01*
X117901366Y-93591433D02*
X117901366Y-93991433D01*
X117901366Y-93791433D02*
X118601366Y-93791433D01*
X118601366Y-93791433D02*
X118501366Y-93858100D01*
X118501366Y-93858100D02*
X118434700Y-93924767D01*
X118434700Y-93924767D02*
X118401366Y-93991433D01*
X118534700Y-93324766D02*
X118568033Y-93291433D01*
X118568033Y-93291433D02*
X118601366Y-93224766D01*
X118601366Y-93224766D02*
X118601366Y-93058100D01*
X118601366Y-93058100D02*
X118568033Y-92991433D01*
X118568033Y-92991433D02*
X118534700Y-92958100D01*
X118534700Y-92958100D02*
X118468033Y-92924766D01*
X118468033Y-92924766D02*
X118401366Y-92924766D01*
X118401366Y-92924766D02*
X118301366Y-92958100D01*
X118301366Y-92958100D02*
X117901366Y-93358100D01*
X117901366Y-93358100D02*
X117901366Y-92924766D01*
X149081366Y-93324766D02*
X149081366Y-93458099D01*
X149081366Y-93458099D02*
X149048033Y-93524766D01*
X149048033Y-93524766D02*
X149014700Y-93558099D01*
X149014700Y-93558099D02*
X148914700Y-93624766D01*
X148914700Y-93624766D02*
X148781366Y-93658099D01*
X148781366Y-93658099D02*
X148514700Y-93658099D01*
X148514700Y-93658099D02*
X148448033Y-93624766D01*
X148448033Y-93624766D02*
X148414700Y-93591433D01*
X148414700Y-93591433D02*
X148381366Y-93524766D01*
X148381366Y-93524766D02*
X148381366Y-93391433D01*
X148381366Y-93391433D02*
X148414700Y-93324766D01*
X148414700Y-93324766D02*
X148448033Y-93291433D01*
X148448033Y-93291433D02*
X148514700Y-93258099D01*
X148514700Y-93258099D02*
X148681366Y-93258099D01*
X148681366Y-93258099D02*
X148748033Y-93291433D01*
X148748033Y-93291433D02*
X148781366Y-93324766D01*
X148781366Y-93324766D02*
X148814700Y-93391433D01*
X148814700Y-93391433D02*
X148814700Y-93524766D01*
X148814700Y-93524766D02*
X148781366Y-93591433D01*
X148781366Y-93591433D02*
X148748033Y-93624766D01*
X148748033Y-93624766D02*
X148681366Y-93658099D01*
X110948033Y-73661432D02*
X110981366Y-73728099D01*
X110981366Y-73728099D02*
X110981366Y-73828099D01*
X110981366Y-73828099D02*
X110948033Y-73928099D01*
X110948033Y-73928099D02*
X110881366Y-73994766D01*
X110881366Y-73994766D02*
X110814700Y-74028099D01*
X110814700Y-74028099D02*
X110681366Y-74061432D01*
X110681366Y-74061432D02*
X110581366Y-74061432D01*
X110581366Y-74061432D02*
X110448033Y-74028099D01*
X110448033Y-74028099D02*
X110381366Y-73994766D01*
X110381366Y-73994766D02*
X110314700Y-73928099D01*
X110314700Y-73928099D02*
X110281366Y-73828099D01*
X110281366Y-73828099D02*
X110281366Y-73761432D01*
X110281366Y-73761432D02*
X110314700Y-73661432D01*
X110314700Y-73661432D02*
X110348033Y-73628099D01*
X110348033Y-73628099D02*
X110581366Y-73628099D01*
X110581366Y-73628099D02*
X110581366Y-73761432D01*
X110281366Y-73328099D02*
X110981366Y-73328099D01*
X110981366Y-73328099D02*
X110281366Y-72928099D01*
X110281366Y-72928099D02*
X110981366Y-72928099D01*
X110281366Y-72594766D02*
X110981366Y-72594766D01*
X110981366Y-72594766D02*
X110981366Y-72428099D01*
X110981366Y-72428099D02*
X110948033Y-72328099D01*
X110948033Y-72328099D02*
X110881366Y-72261433D01*
X110881366Y-72261433D02*
X110814700Y-72228099D01*
X110814700Y-72228099D02*
X110681366Y-72194766D01*
X110681366Y-72194766D02*
X110581366Y-72194766D01*
X110581366Y-72194766D02*
X110448033Y-72228099D01*
X110448033Y-72228099D02*
X110381366Y-72261433D01*
X110381366Y-72261433D02*
X110314700Y-72328099D01*
X110314700Y-72328099D02*
X110281366Y-72428099D01*
X110281366Y-72428099D02*
X110281366Y-72594766D01*
X138221366Y-93591433D02*
X138221366Y-93991433D01*
X138221366Y-93791433D02*
X138921366Y-93791433D01*
X138921366Y-93791433D02*
X138821366Y-93858100D01*
X138821366Y-93858100D02*
X138754700Y-93924767D01*
X138754700Y-93924767D02*
X138721366Y-93991433D01*
X138921366Y-93358100D02*
X138921366Y-92891433D01*
X138921366Y-92891433D02*
X138221366Y-93191433D01*
X153461366Y-72928099D02*
X153461366Y-73328099D01*
X153461366Y-73128099D02*
X154161366Y-73128099D01*
X154161366Y-73128099D02*
X154061366Y-73194766D01*
X154061366Y-73194766D02*
X153994700Y-73261433D01*
X153994700Y-73261433D02*
X153961366Y-73328099D01*
X112821366Y-73261433D02*
X112821366Y-73661433D01*
X112821366Y-73461433D02*
X113521366Y-73461433D01*
X113521366Y-73461433D02*
X113421366Y-73528100D01*
X113421366Y-73528100D02*
X113354700Y-73594767D01*
X113354700Y-73594767D02*
X113321366Y-73661433D01*
X112821366Y-72928100D02*
X112821366Y-72794766D01*
X112821366Y-72794766D02*
X112854700Y-72728100D01*
X112854700Y-72728100D02*
X112888033Y-72694766D01*
X112888033Y-72694766D02*
X112988033Y-72628100D01*
X112988033Y-72628100D02*
X113121366Y-72594766D01*
X113121366Y-72594766D02*
X113388033Y-72594766D01*
X113388033Y-72594766D02*
X113454700Y-72628100D01*
X113454700Y-72628100D02*
X113488033Y-72661433D01*
X113488033Y-72661433D02*
X113521366Y-72728100D01*
X113521366Y-72728100D02*
X113521366Y-72861433D01*
X113521366Y-72861433D02*
X113488033Y-72928100D01*
X113488033Y-72928100D02*
X113454700Y-72961433D01*
X113454700Y-72961433D02*
X113388033Y-72994766D01*
X113388033Y-72994766D02*
X113221366Y-72994766D01*
X113221366Y-72994766D02*
X113154700Y-72961433D01*
X113154700Y-72961433D02*
X113121366Y-72928100D01*
X113121366Y-72928100D02*
X113088033Y-72861433D01*
X113088033Y-72861433D02*
X113088033Y-72728100D01*
X113088033Y-72728100D02*
X113121366Y-72661433D01*
X113121366Y-72661433D02*
X113154700Y-72628100D01*
X113154700Y-72628100D02*
X113221366Y-72594766D01*
X108408033Y-73661432D02*
X108441366Y-73728099D01*
X108441366Y-73728099D02*
X108441366Y-73828099D01*
X108441366Y-73828099D02*
X108408033Y-73928099D01*
X108408033Y-73928099D02*
X108341366Y-73994766D01*
X108341366Y-73994766D02*
X108274700Y-74028099D01*
X108274700Y-74028099D02*
X108141366Y-74061432D01*
X108141366Y-74061432D02*
X108041366Y-74061432D01*
X108041366Y-74061432D02*
X107908033Y-74028099D01*
X107908033Y-74028099D02*
X107841366Y-73994766D01*
X107841366Y-73994766D02*
X107774700Y-73928099D01*
X107774700Y-73928099D02*
X107741366Y-73828099D01*
X107741366Y-73828099D02*
X107741366Y-73761432D01*
X107741366Y-73761432D02*
X107774700Y-73661432D01*
X107774700Y-73661432D02*
X107808033Y-73628099D01*
X107808033Y-73628099D02*
X108041366Y-73628099D01*
X108041366Y-73628099D02*
X108041366Y-73761432D01*
X107741366Y-73328099D02*
X108441366Y-73328099D01*
X108441366Y-73328099D02*
X107741366Y-72928099D01*
X107741366Y-72928099D02*
X108441366Y-72928099D01*
X107741366Y-72594766D02*
X108441366Y-72594766D01*
X108441366Y-72594766D02*
X108441366Y-72428099D01*
X108441366Y-72428099D02*
X108408033Y-72328099D01*
X108408033Y-72328099D02*
X108341366Y-72261433D01*
X108341366Y-72261433D02*
X108274700Y-72228099D01*
X108274700Y-72228099D02*
X108141366Y-72194766D01*
X108141366Y-72194766D02*
X108041366Y-72194766D01*
X108041366Y-72194766D02*
X107908033Y-72228099D01*
X107908033Y-72228099D02*
X107841366Y-72261433D01*
X107841366Y-72261433D02*
X107774700Y-72328099D01*
X107774700Y-72328099D02*
X107741366Y-72428099D01*
X107741366Y-72428099D02*
X107741366Y-72594766D01*
X146541366Y-93691433D02*
X146541366Y-93224766D01*
X146541366Y-93224766D02*
X145841366Y-93524766D01*
X133841366Y-73694767D02*
X133841366Y-73261433D01*
X133841366Y-73261433D02*
X133574700Y-73494767D01*
X133574700Y-73494767D02*
X133574700Y-73394767D01*
X133574700Y-73394767D02*
X133541366Y-73328100D01*
X133541366Y-73328100D02*
X133508033Y-73294767D01*
X133508033Y-73294767D02*
X133441366Y-73261433D01*
X133441366Y-73261433D02*
X133274700Y-73261433D01*
X133274700Y-73261433D02*
X133208033Y-73294767D01*
X133208033Y-73294767D02*
X133174700Y-73328100D01*
X133174700Y-73328100D02*
X133141366Y-73394767D01*
X133141366Y-73394767D02*
X133141366Y-73594767D01*
X133141366Y-73594767D02*
X133174700Y-73661433D01*
X133174700Y-73661433D02*
X133208033Y-73694767D01*
X133841366Y-72661433D02*
X133841366Y-72794766D01*
X133841366Y-72794766D02*
X133808033Y-72861433D01*
X133808033Y-72861433D02*
X133774700Y-72894766D01*
X133774700Y-72894766D02*
X133674700Y-72961433D01*
X133674700Y-72961433D02*
X133541366Y-72994766D01*
X133541366Y-72994766D02*
X133274700Y-72994766D01*
X133274700Y-72994766D02*
X133208033Y-72961433D01*
X133208033Y-72961433D02*
X133174700Y-72928100D01*
X133174700Y-72928100D02*
X133141366Y-72861433D01*
X133141366Y-72861433D02*
X133141366Y-72728100D01*
X133141366Y-72728100D02*
X133174700Y-72661433D01*
X133174700Y-72661433D02*
X133208033Y-72628100D01*
X133208033Y-72628100D02*
X133274700Y-72594766D01*
X133274700Y-72594766D02*
X133441366Y-72594766D01*
X133441366Y-72594766D02*
X133508033Y-72628100D01*
X133508033Y-72628100D02*
X133541366Y-72661433D01*
X133541366Y-72661433D02*
X133574700Y-72728100D01*
X133574700Y-72728100D02*
X133574700Y-72861433D01*
X133574700Y-72861433D02*
X133541366Y-72928100D01*
X133541366Y-72928100D02*
X133508033Y-72961433D01*
X133508033Y-72961433D02*
X133441366Y-72994766D01*
X118534700Y-73661433D02*
X118568033Y-73628100D01*
X118568033Y-73628100D02*
X118601366Y-73561433D01*
X118601366Y-73561433D02*
X118601366Y-73394767D01*
X118601366Y-73394767D02*
X118568033Y-73328100D01*
X118568033Y-73328100D02*
X118534700Y-73294767D01*
X118534700Y-73294767D02*
X118468033Y-73261433D01*
X118468033Y-73261433D02*
X118401366Y-73261433D01*
X118401366Y-73261433D02*
X118301366Y-73294767D01*
X118301366Y-73294767D02*
X117901366Y-73694767D01*
X117901366Y-73694767D02*
X117901366Y-73261433D01*
X117901366Y-72594766D02*
X117901366Y-72994766D01*
X117901366Y-72794766D02*
X118601366Y-72794766D01*
X118601366Y-72794766D02*
X118501366Y-72861433D01*
X118501366Y-72861433D02*
X118434700Y-72928100D01*
X118434700Y-72928100D02*
X118401366Y-72994766D01*
X112821366Y-93591433D02*
X112821366Y-93991433D01*
X112821366Y-93791433D02*
X113521366Y-93791433D01*
X113521366Y-93791433D02*
X113421366Y-93858100D01*
X113421366Y-93858100D02*
X113354700Y-93924767D01*
X113354700Y-93924767D02*
X113321366Y-93991433D01*
X113288033Y-92991433D02*
X112821366Y-92991433D01*
X113554700Y-93158100D02*
X113054700Y-93324766D01*
X113054700Y-93324766D02*
X113054700Y-92891433D01*
X138921366Y-73694767D02*
X138921366Y-73261433D01*
X138921366Y-73261433D02*
X138654700Y-73494767D01*
X138654700Y-73494767D02*
X138654700Y-73394767D01*
X138654700Y-73394767D02*
X138621366Y-73328100D01*
X138621366Y-73328100D02*
X138588033Y-73294767D01*
X138588033Y-73294767D02*
X138521366Y-73261433D01*
X138521366Y-73261433D02*
X138354700Y-73261433D01*
X138354700Y-73261433D02*
X138288033Y-73294767D01*
X138288033Y-73294767D02*
X138254700Y-73328100D01*
X138254700Y-73328100D02*
X138221366Y-73394767D01*
X138221366Y-73394767D02*
X138221366Y-73594767D01*
X138221366Y-73594767D02*
X138254700Y-73661433D01*
X138254700Y-73661433D02*
X138288033Y-73694767D01*
X138621366Y-72861433D02*
X138654700Y-72928100D01*
X138654700Y-72928100D02*
X138688033Y-72961433D01*
X138688033Y-72961433D02*
X138754700Y-72994766D01*
X138754700Y-72994766D02*
X138788033Y-72994766D01*
X138788033Y-72994766D02*
X138854700Y-72961433D01*
X138854700Y-72961433D02*
X138888033Y-72928100D01*
X138888033Y-72928100D02*
X138921366Y-72861433D01*
X138921366Y-72861433D02*
X138921366Y-72728100D01*
X138921366Y-72728100D02*
X138888033Y-72661433D01*
X138888033Y-72661433D02*
X138854700Y-72628100D01*
X138854700Y-72628100D02*
X138788033Y-72594766D01*
X138788033Y-72594766D02*
X138754700Y-72594766D01*
X138754700Y-72594766D02*
X138688033Y-72628100D01*
X138688033Y-72628100D02*
X138654700Y-72661433D01*
X138654700Y-72661433D02*
X138621366Y-72728100D01*
X138621366Y-72728100D02*
X138621366Y-72861433D01*
X138621366Y-72861433D02*
X138588033Y-72928100D01*
X138588033Y-72928100D02*
X138554700Y-72961433D01*
X138554700Y-72961433D02*
X138488033Y-72994766D01*
X138488033Y-72994766D02*
X138354700Y-72994766D01*
X138354700Y-72994766D02*
X138288033Y-72961433D01*
X138288033Y-72961433D02*
X138254700Y-72928100D01*
X138254700Y-72928100D02*
X138221366Y-72861433D01*
X138221366Y-72861433D02*
X138221366Y-72728100D01*
X138221366Y-72728100D02*
X138254700Y-72661433D01*
X138254700Y-72661433D02*
X138288033Y-72628100D01*
X138288033Y-72628100D02*
X138354700Y-72594766D01*
X138354700Y-72594766D02*
X138488033Y-72594766D01*
X138488033Y-72594766D02*
X138554700Y-72628100D01*
X138554700Y-72628100D02*
X138588033Y-72661433D01*
X138588033Y-72661433D02*
X138621366Y-72728100D01*
X122981366Y-93591433D02*
X122981366Y-93991433D01*
X122981366Y-93791433D02*
X123681366Y-93791433D01*
X123681366Y-93791433D02*
X123581366Y-93858100D01*
X123581366Y-93858100D02*
X123514700Y-93924767D01*
X123514700Y-93924767D02*
X123481366Y-93991433D01*
X123681366Y-93158100D02*
X123681366Y-93091433D01*
X123681366Y-93091433D02*
X123648033Y-93024766D01*
X123648033Y-93024766D02*
X123614700Y-92991433D01*
X123614700Y-92991433D02*
X123548033Y-92958100D01*
X123548033Y-92958100D02*
X123414700Y-92924766D01*
X123414700Y-92924766D02*
X123248033Y-92924766D01*
X123248033Y-92924766D02*
X123114700Y-92958100D01*
X123114700Y-92958100D02*
X123048033Y-92991433D01*
X123048033Y-92991433D02*
X123014700Y-93024766D01*
X123014700Y-93024766D02*
X122981366Y-93091433D01*
X122981366Y-93091433D02*
X122981366Y-93158100D01*
X122981366Y-93158100D02*
X123014700Y-93224766D01*
X123014700Y-93224766D02*
X123048033Y-93258100D01*
X123048033Y-93258100D02*
X123114700Y-93291433D01*
X123114700Y-93291433D02*
X123248033Y-93324766D01*
X123248033Y-93324766D02*
X123414700Y-93324766D01*
X123414700Y-93324766D02*
X123548033Y-93291433D01*
X123548033Y-93291433D02*
X123614700Y-93258100D01*
X123614700Y-93258100D02*
X123648033Y-93224766D01*
X123648033Y-93224766D02*
X123681366Y-93158100D01*
X143768033Y-73328100D02*
X143301366Y-73328100D01*
X144034700Y-73494767D02*
X143534700Y-73661433D01*
X143534700Y-73661433D02*
X143534700Y-73228100D01*
X144001366Y-72828100D02*
X144001366Y-72761433D01*
X144001366Y-72761433D02*
X143968033Y-72694766D01*
X143968033Y-72694766D02*
X143934700Y-72661433D01*
X143934700Y-72661433D02*
X143868033Y-72628100D01*
X143868033Y-72628100D02*
X143734700Y-72594766D01*
X143734700Y-72594766D02*
X143568033Y-72594766D01*
X143568033Y-72594766D02*
X143434700Y-72628100D01*
X143434700Y-72628100D02*
X143368033Y-72661433D01*
X143368033Y-72661433D02*
X143334700Y-72694766D01*
X143334700Y-72694766D02*
X143301366Y-72761433D01*
X143301366Y-72761433D02*
X143301366Y-72828100D01*
X143301366Y-72828100D02*
X143334700Y-72894766D01*
X143334700Y-72894766D02*
X143368033Y-72928100D01*
X143368033Y-72928100D02*
X143434700Y-72961433D01*
X143434700Y-72961433D02*
X143568033Y-72994766D01*
X143568033Y-72994766D02*
X143734700Y-72994766D01*
X143734700Y-72994766D02*
X143868033Y-72961433D01*
X143868033Y-72961433D02*
X143934700Y-72928100D01*
X143934700Y-72928100D02*
X143968033Y-72894766D01*
X143968033Y-72894766D02*
X144001366Y-72828100D01*
X115994700Y-73661433D02*
X116028033Y-73628100D01*
X116028033Y-73628100D02*
X116061366Y-73561433D01*
X116061366Y-73561433D02*
X116061366Y-73394767D01*
X116061366Y-73394767D02*
X116028033Y-73328100D01*
X116028033Y-73328100D02*
X115994700Y-73294767D01*
X115994700Y-73294767D02*
X115928033Y-73261433D01*
X115928033Y-73261433D02*
X115861366Y-73261433D01*
X115861366Y-73261433D02*
X115761366Y-73294767D01*
X115761366Y-73294767D02*
X115361366Y-73694767D01*
X115361366Y-73694767D02*
X115361366Y-73261433D01*
X116061366Y-72828100D02*
X116061366Y-72761433D01*
X116061366Y-72761433D02*
X116028033Y-72694766D01*
X116028033Y-72694766D02*
X115994700Y-72661433D01*
X115994700Y-72661433D02*
X115928033Y-72628100D01*
X115928033Y-72628100D02*
X115794700Y-72594766D01*
X115794700Y-72594766D02*
X115628033Y-72594766D01*
X115628033Y-72594766D02*
X115494700Y-72628100D01*
X115494700Y-72628100D02*
X115428033Y-72661433D01*
X115428033Y-72661433D02*
X115394700Y-72694766D01*
X115394700Y-72694766D02*
X115361366Y-72761433D01*
X115361366Y-72761433D02*
X115361366Y-72828100D01*
X115361366Y-72828100D02*
X115394700Y-72894766D01*
X115394700Y-72894766D02*
X115428033Y-72928100D01*
X115428033Y-72928100D02*
X115494700Y-72961433D01*
X115494700Y-72961433D02*
X115628033Y-72994766D01*
X115628033Y-72994766D02*
X115794700Y-72994766D01*
X115794700Y-72994766D02*
X115928033Y-72961433D01*
X115928033Y-72961433D02*
X115994700Y-72928100D01*
X115994700Y-72928100D02*
X116028033Y-72894766D01*
X116028033Y-72894766D02*
X116061366Y-72828100D01*
X153928033Y-93324766D02*
X153461366Y-93324766D01*
X154194700Y-93491433D02*
X153694700Y-93658099D01*
X153694700Y-93658099D02*
X153694700Y-93224766D01*
X108408033Y-93991432D02*
X108441366Y-94058099D01*
X108441366Y-94058099D02*
X108441366Y-94158099D01*
X108441366Y-94158099D02*
X108408033Y-94258099D01*
X108408033Y-94258099D02*
X108341366Y-94324766D01*
X108341366Y-94324766D02*
X108274700Y-94358099D01*
X108274700Y-94358099D02*
X108141366Y-94391432D01*
X108141366Y-94391432D02*
X108041366Y-94391432D01*
X108041366Y-94391432D02*
X107908033Y-94358099D01*
X107908033Y-94358099D02*
X107841366Y-94324766D01*
X107841366Y-94324766D02*
X107774700Y-94258099D01*
X107774700Y-94258099D02*
X107741366Y-94158099D01*
X107741366Y-94158099D02*
X107741366Y-94091432D01*
X107741366Y-94091432D02*
X107774700Y-93991432D01*
X107774700Y-93991432D02*
X107808033Y-93958099D01*
X107808033Y-93958099D02*
X108041366Y-93958099D01*
X108041366Y-93958099D02*
X108041366Y-94091432D01*
X107741366Y-93658099D02*
X108441366Y-93658099D01*
X108441366Y-93658099D02*
X107741366Y-93258099D01*
X107741366Y-93258099D02*
X108441366Y-93258099D01*
X107741366Y-92924766D02*
X108441366Y-92924766D01*
X108441366Y-92924766D02*
X108441366Y-92758099D01*
X108441366Y-92758099D02*
X108408033Y-92658099D01*
X108408033Y-92658099D02*
X108341366Y-92591433D01*
X108341366Y-92591433D02*
X108274700Y-92558099D01*
X108274700Y-92558099D02*
X108141366Y-92524766D01*
X108141366Y-92524766D02*
X108041366Y-92524766D01*
X108041366Y-92524766D02*
X107908033Y-92558099D01*
X107908033Y-92558099D02*
X107841366Y-92591433D01*
X107841366Y-92591433D02*
X107774700Y-92658099D01*
X107774700Y-92658099D02*
X107741366Y-92758099D01*
X107741366Y-92758099D02*
X107741366Y-92924766D01*
X156001366Y-93841433D02*
X156334700Y-94074766D01*
X156001366Y-94241433D02*
X156701366Y-94241433D01*
X156701366Y-94241433D02*
X156701366Y-93974766D01*
X156701366Y-93974766D02*
X156668033Y-93908100D01*
X156668033Y-93908100D02*
X156634700Y-93874766D01*
X156634700Y-93874766D02*
X156568033Y-93841433D01*
X156568033Y-93841433D02*
X156468033Y-93841433D01*
X156468033Y-93841433D02*
X156401366Y-93874766D01*
X156401366Y-93874766D02*
X156368033Y-93908100D01*
X156368033Y-93908100D02*
X156334700Y-93974766D01*
X156334700Y-93974766D02*
X156334700Y-94241433D01*
X156034700Y-93574766D02*
X156001366Y-93474766D01*
X156001366Y-93474766D02*
X156001366Y-93308100D01*
X156001366Y-93308100D02*
X156034700Y-93241433D01*
X156034700Y-93241433D02*
X156068033Y-93208100D01*
X156068033Y-93208100D02*
X156134700Y-93174766D01*
X156134700Y-93174766D02*
X156201366Y-93174766D01*
X156201366Y-93174766D02*
X156268033Y-93208100D01*
X156268033Y-93208100D02*
X156301366Y-93241433D01*
X156301366Y-93241433D02*
X156334700Y-93308100D01*
X156334700Y-93308100D02*
X156368033Y-93441433D01*
X156368033Y-93441433D02*
X156401366Y-93508100D01*
X156401366Y-93508100D02*
X156434700Y-93541433D01*
X156434700Y-93541433D02*
X156501366Y-93574766D01*
X156501366Y-93574766D02*
X156568033Y-93574766D01*
X156568033Y-93574766D02*
X156634700Y-93541433D01*
X156634700Y-93541433D02*
X156668033Y-93508100D01*
X156668033Y-93508100D02*
X156701366Y-93441433D01*
X156701366Y-93441433D02*
X156701366Y-93274766D01*
X156701366Y-93274766D02*
X156668033Y-93174766D01*
X156701366Y-92974766D02*
X156701366Y-92574766D01*
X156001366Y-92774766D02*
X156701366Y-92774766D01*
X151554700Y-73328099D02*
X151588033Y-73294766D01*
X151588033Y-73294766D02*
X151621366Y-73228099D01*
X151621366Y-73228099D02*
X151621366Y-73061433D01*
X151621366Y-73061433D02*
X151588033Y-72994766D01*
X151588033Y-72994766D02*
X151554700Y-72961433D01*
X151554700Y-72961433D02*
X151488033Y-72928099D01*
X151488033Y-72928099D02*
X151421366Y-72928099D01*
X151421366Y-72928099D02*
X151321366Y-72961433D01*
X151321366Y-72961433D02*
X150921366Y-73361433D01*
X150921366Y-73361433D02*
X150921366Y-72928099D01*
D12*
X164929580Y-95558333D02*
X164977200Y-95510714D01*
X164977200Y-95510714D02*
X165024819Y-95367857D01*
X165024819Y-95367857D02*
X165024819Y-95272619D01*
X165024819Y-95272619D02*
X164977200Y-95129762D01*
X164977200Y-95129762D02*
X164881961Y-95034524D01*
X164881961Y-95034524D02*
X164786723Y-94986905D01*
X164786723Y-94986905D02*
X164596247Y-94939286D01*
X164596247Y-94939286D02*
X164453390Y-94939286D01*
X164453390Y-94939286D02*
X164262914Y-94986905D01*
X164262914Y-94986905D02*
X164167676Y-95034524D01*
X164167676Y-95034524D02*
X164072438Y-95129762D01*
X164072438Y-95129762D02*
X164024819Y-95272619D01*
X164024819Y-95272619D02*
X164024819Y-95367857D01*
X164024819Y-95367857D02*
X164072438Y-95510714D01*
X164072438Y-95510714D02*
X164120057Y-95558333D01*
X165024819Y-96510714D02*
X165024819Y-95939286D01*
X165024819Y-96225000D02*
X164024819Y-96225000D01*
X164024819Y-96225000D02*
X164167676Y-96129762D01*
X164167676Y-96129762D02*
X164262914Y-96034524D01*
X164262914Y-96034524D02*
X164310533Y-95939286D01*
X164929580Y-99058333D02*
X164977200Y-99010714D01*
X164977200Y-99010714D02*
X165024819Y-98867857D01*
X165024819Y-98867857D02*
X165024819Y-98772619D01*
X165024819Y-98772619D02*
X164977200Y-98629762D01*
X164977200Y-98629762D02*
X164881961Y-98534524D01*
X164881961Y-98534524D02*
X164786723Y-98486905D01*
X164786723Y-98486905D02*
X164596247Y-98439286D01*
X164596247Y-98439286D02*
X164453390Y-98439286D01*
X164453390Y-98439286D02*
X164262914Y-98486905D01*
X164262914Y-98486905D02*
X164167676Y-98534524D01*
X164167676Y-98534524D02*
X164072438Y-98629762D01*
X164072438Y-98629762D02*
X164024819Y-98772619D01*
X164024819Y-98772619D02*
X164024819Y-98867857D01*
X164024819Y-98867857D02*
X164072438Y-99010714D01*
X164072438Y-99010714D02*
X164120057Y-99058333D01*
X164120057Y-99439286D02*
X164072438Y-99486905D01*
X164072438Y-99486905D02*
X164024819Y-99582143D01*
X164024819Y-99582143D02*
X164024819Y-99820238D01*
X164024819Y-99820238D02*
X164072438Y-99915476D01*
X164072438Y-99915476D02*
X164120057Y-99963095D01*
X164120057Y-99963095D02*
X164215295Y-100010714D01*
X164215295Y-100010714D02*
X164310533Y-100010714D01*
X164310533Y-100010714D02*
X164453390Y-99963095D01*
X164453390Y-99963095D02*
X165024819Y-99391667D01*
X165024819Y-99391667D02*
X165024819Y-100010714D01*
%TO.C,J2*%
X178582170Y-94900000D02*
G75*
G03*
X178582170Y-94900000I-882170J0D01*
G01*
D13*
%TO.C,SW1*%
X174950000Y-104430000D02*
X174950000Y-105220000D01*
X174350000Y-106230000D02*
X168650000Y-106230000D01*
X173100000Y-103380000D02*
X171400000Y-103380000D01*
X172900000Y-107520000D02*
X172700000Y-107730000D01*
X172900000Y-106230000D02*
X172900000Y-107520000D01*
X172700000Y-107730000D02*
X171800000Y-107730000D01*
X171600000Y-107520000D02*
X171800000Y-107730000D01*
X171600000Y-107520000D02*
X171600000Y-106230000D01*
X170100000Y-103380000D02*
X169900000Y-103380000D01*
X168050000Y-105220000D02*
X168050000Y-104430000D01*
%TO.C,C1*%
X166510000Y-95584420D02*
X166510000Y-95865580D01*
X165490000Y-95584420D02*
X165490000Y-95865580D01*
%TO.C,J1*%
X176370000Y-62810000D02*
X179030000Y-62810000D01*
X176370000Y-85730000D02*
X176370000Y-62810000D01*
X176370000Y-85730000D02*
X179030000Y-85730000D01*
X176370000Y-87000000D02*
X176370000Y-88330000D01*
X176370000Y-88330000D02*
X177700000Y-88330000D01*
X179030000Y-85730000D02*
X179030000Y-62810000D01*
%TO.C,C2*%
X166510000Y-99084420D02*
X166510000Y-99365580D01*
X165490000Y-99084420D02*
X165490000Y-99365580D01*
%TD*%
M02*
