M48
; DRILL file {KiCad 7.0.6} date Fri Feb  9 00:40:31 2024
; FORMAT={3:3/ absolute / metric / keep zeros}
; #@! TF.CreationDate,2024-02-09T00:40:31+01:00
; #@! TF.GenerationSoftware,Kicad,Pcbnew,7.0.6
; #@! TF.FileFunction,MixedPlating,1,2
FMAT,2
METRIC
; #@! TA.AperFunction,Plated,PTH,ViaDrill
T1C0.400
; #@! TA.AperFunction,Plated,PTH,ComponentDrill
T2C0.762
; #@! TA.AperFunction,Plated,PTH,ComponentDrill
T3C1.000
; #@! TA.AperFunction,NonPlated,NPTH,ComponentDrill
T4C0.900
%
G90
G05
T1
X126300Y-068100
X137800Y-100500
X143900Y-075100
X144500Y-098400
X147300Y-077800
X165200Y-100800
X166000Y-096500
X168500Y-095900
X171000Y-093700
X172200Y-095600
X173100Y-073200
X173100Y-075400
X173200Y-070300
X173700Y-067700
X178200Y-099500
T2
X131741Y-064168
X134281Y-064168
X136821Y-064168
X139361Y-064168
X168185Y-098168
X168185Y-100709
X170725Y-098168
X170725Y-100709
X173265Y-098168
X173265Y-100709
X175805Y-098168
X175805Y-100709
T3
X108060Y-070598
X108060Y-096000
X110600Y-070600
X110600Y-096000
X113140Y-070600
X113140Y-096000
X115680Y-070600
X115680Y-096000
X118220Y-070600
X118220Y-096000
X120760Y-070600
X120760Y-096000
X123300Y-070600
X123300Y-096000
X125840Y-070600
X125840Y-096000
X128380Y-070600
X128380Y-096000
X130920Y-070600
X130920Y-096000
X133460Y-070600
X133460Y-096000
X136000Y-070600
X136000Y-096000
X138540Y-070600
X138540Y-096000
X141080Y-070600
X141080Y-096000
X143620Y-070600
X143620Y-096000
X146160Y-070600
X146160Y-096000
X148700Y-070600
X148700Y-096000
X151240Y-070600
X151240Y-096000
X153780Y-070600
X153780Y-096000
X156320Y-070600
X156320Y-096000
X158860Y-070600
X158860Y-096000
X161400Y-070600
X161400Y-096000
X177700Y-064140
X177700Y-066680
X177700Y-069220
X177700Y-071760
X177700Y-074300
X177700Y-076840
X177700Y-079380
X177700Y-081920
X177700Y-084460
X177700Y-087000
T4
X170000Y-104830
X173000Y-104830
T0
M30
